<svg id="svg" version="1.1" xmlns="http://www.w3.org/2000/svg" xmlns:xlink="http://www.w3.org/1999/xlink" width="400" height="400" viewBox="0, 0, 400,400"><g id="svgg"><path id="path0" d="M349.332 43.393 C 343.092 44.525,336.713 47.372,331.989 51.133 C 330.860 52.032,311.185 71.353,288.268 94.069 C 221.209 160.537,193.397 187.921,163.391 217.025 C 155.466 224.711,143.834 235.995,137.542 242.100 C 131.250 248.205,125.940 253.200,125.742 253.200 C 125.544 253.200,118.816 246.789,110.791 238.954 C 69.944 199.073,70.851 199.898,64.400 196.768 C 35.023 182.512,1.682 208.240,7.761 240.473 C 9.775 251.153,12.548 255.204,28.475 270.731 C 34.484 276.588,51.261 292.995,65.758 307.190 C 96.180 336.979,98.235 338.724,107.200 342.378 C 126.211 350.128,145.284 345.600,162.600 329.226 C 195.668 297.955,274.685 220.690,339.400 156.344 C 352.380 143.439,368.017 127.956,374.150 121.940 C 388.993 107.377,391.856 103.677,394.535 95.594 C 404.141 66.618,379.319 37.952,349.332 43.393 " stroke="none" fill="#fc042c" fill-rule="evenodd"></path><path id="path1" d="M0.000 200.000 L 0.000 400.000 200.000 400.000 L 400.000 400.000 400.000 200.000 L 400.000 0.000 200.000 0.000 L 0.000 0.000 0.000 200.000 M366.600 43.596 C 395.119 51.310,406.407 85.299,388.022 108.102 C 383.364 113.880,249.756 245.651,191.600 301.823 C 155.703 336.496,155.085 337.040,146.918 341.146 C 133.309 347.987,116.092 347.811,102.800 340.693 C 95.594 336.835,96.240 337.420,58.443 300.486 C 40.045 282.509,23.404 266.270,21.463 264.400 C 10.462 253.804,6.424 244.556,6.902 231.054 C 8.011 199.766,42.995 181.940,69.390 199.214 C 72.544 201.278,75.202 203.741,91.200 219.429 C 109.624 237.496,125.233 252.608,125.596 252.730 C 125.809 252.802,131.702 247.314,138.691 240.535 C 191.406 189.409,219.289 162.062,272.400 109.396 C 337.772 44.572,333.022 49.041,339.734 46.030 C 347.931 42.352,358.471 41.397,366.600 43.596 " stroke="none" fill="#ffffff" fill-rule="evenodd"></path><path id="path2" d="M354.316 42.697 C 355.699 42.775,357.859 42.774,359.116 42.695 C 360.372 42.616,359.240 42.552,356.600 42.553 C 353.960 42.553,352.932 42.618,354.316 42.697 M385.000 54.400 C 386.083 55.500,387.060 56.400,387.170 56.400 C 387.280 56.400,386.483 55.500,385.400 54.400 C 384.317 53.300,383.340 52.400,383.230 52.400 C 383.120 52.400,383.917 53.300,385.000 54.400 M280.598 101.300 L 265.800 116.200 280.700 101.402 C 294.548 87.649,295.780 86.400,295.498 86.400 C 295.442 86.400,288.737 93.105,280.598 101.300 M372.198 124.100 L 357.800 138.600 372.300 124.202 C 380.275 116.283,386.800 109.758,386.800 109.702 C 386.800 109.420,385.579 110.624,372.198 124.100 M241.796 139.700 L 234.200 147.400 241.900 139.804 C 249.054 132.746,249.781 132.000,249.496 132.000 C 249.439 132.000,245.974 135.465,241.796 139.700 M215.194 165.900 L 209.800 171.400 215.300 166.006 C 218.325 163.039,220.800 160.564,220.800 160.506 C 220.800 160.219,220.206 160.791,215.194 165.900 M319.396 176.500 L 312.200 183.800 319.500 176.604 C 326.282 169.919,326.981 169.200,326.696 169.200 C 326.639 169.200,323.354 172.485,319.396 176.500 M193.191 187.500 L 189.800 191.000 193.300 187.609 C 196.551 184.459,196.982 184.000,196.691 184.000 C 196.631 184.000,195.056 185.575,193.191 187.500 M43.300 192.676 C 43.685 192.776,44.315 192.776,44.700 192.676 C 45.085 192.575,44.770 192.493,44.000 192.493 C 43.230 192.493,42.915 192.575,43.300 192.676 M175.792 204.500 L 172.200 208.200 175.900 204.608 C 177.935 202.633,179.600 200.968,179.600 200.908 C 179.600 200.618,179.128 201.064,175.792 204.500 M74.600 203.600 C 75.459 204.480,76.252 205.200,76.362 205.200 C 76.472 205.200,75.859 204.480,75.000 203.600 C 74.141 202.720,73.348 202.000,73.238 202.000 C 73.128 202.000,73.741 202.720,74.600 203.600 M286.395 209.100 L 280.600 215.000 286.500 209.205 C 291.981 203.822,292.581 203.200,292.295 203.200 C 292.237 203.200,289.582 205.855,286.395 209.100 M87.800 216.400 C 90.212 218.820,92.276 220.800,92.386 220.800 C 92.496 220.800,90.612 218.820,88.200 216.400 C 85.788 213.980,83.724 212.000,83.614 212.000 C 83.504 212.000,85.388 213.980,87.800 216.400 M161.392 218.500 L 157.400 222.600 161.500 218.608 C 163.755 216.412,165.600 214.567,165.600 214.508 C 165.600 214.218,165.101 214.692,161.392 218.500 M263.194 231.900 L 257.800 237.400 263.300 232.006 C 268.409 226.994,268.981 226.400,268.694 226.400 C 268.636 226.400,266.161 228.875,263.194 231.900 M103.800 232.000 C 105.992 234.200,107.875 236.000,107.985 236.000 C 108.095 236.000,106.392 234.200,104.200 232.000 C 102.008 229.800,100.125 228.000,100.015 228.000 C 99.905 228.000,101.608 229.800,103.800 232.000 M147.591 231.900 L 144.200 235.400 147.700 232.009 C 150.951 228.859,151.382 228.400,151.091 228.400 C 151.031 228.400,149.456 229.975,147.591 231.900 M135.988 243.100 L 133.400 245.800 136.100 243.212 C 138.608 240.807,138.983 240.400,138.688 240.400 C 138.627 240.400,137.412 241.615,135.988 243.100 M120.400 248.200 C 122.481 250.290,124.274 252.000,124.384 252.000 C 124.494 252.000,122.881 250.290,120.800 248.200 C 118.719 246.110,116.926 244.400,116.816 244.400 C 116.706 244.400,118.319 246.110,120.400 248.200 M243.394 251.300 L 238.200 256.600 243.500 251.406 C 248.423 246.581,248.981 246.000,248.694 246.000 C 248.636 246.000,246.251 248.385,243.394 251.300 M20.400 263.400 C 22.481 265.490,24.274 267.200,24.384 267.200 C 24.494 267.200,22.881 265.490,20.800 263.400 C 18.719 261.310,16.926 259.600,16.816 259.600 C 16.706 259.600,18.319 261.310,20.400 263.400 M227.192 267.100 L 223.400 271.000 227.300 267.208 C 229.445 265.122,231.200 263.367,231.200 263.308 C 231.200 263.018,230.714 263.478,227.192 267.100 M37.000 279.600 C 38.750 281.360,40.271 282.800,40.381 282.800 C 40.491 282.800,39.150 281.360,37.400 279.600 C 35.650 277.840,34.129 276.400,34.019 276.400 C 33.909 276.400,35.250 277.840,37.000 279.600 M211.789 282.100 L 209.000 285.000 211.900 282.211 C 214.594 279.620,214.983 279.200,214.689 279.200 C 214.628 279.200,213.323 280.505,211.789 282.100 M198.788 294.700 L 196.200 297.400 198.900 294.812 C 201.408 292.407,201.783 292.000,201.488 292.000 C 201.427 292.000,200.212 293.215,198.788 294.700 M54.400 296.600 C 56.481 298.690,58.274 300.400,58.384 300.400 C 58.494 300.400,56.881 298.690,54.800 296.600 C 52.719 294.510,50.926 292.800,50.816 292.800 C 50.706 292.800,52.319 294.510,54.400 296.600 M186.989 306.100 L 184.200 309.000 187.100 306.211 C 189.794 303.620,190.183 303.200,189.889 303.200 C 189.828 303.200,188.523 304.505,186.989 306.100 M71.194 312.900 C 74.161 315.925,76.636 318.400,76.694 318.400 C 76.981 318.400,76.409 317.806,71.300 312.794 L 65.800 307.400 71.194 312.900 M176.800 315.800 C 175.161 317.450,173.910 318.800,174.020 318.800 C 174.130 318.800,175.561 317.450,177.200 315.800 C 178.839 314.150,180.090 312.800,179.980 312.800 C 179.870 312.800,178.439 314.150,176.800 315.800 M167.186 325.100 L 165.000 327.400 167.300 325.214 C 169.437 323.182,169.783 322.800,169.486 322.800 C 169.424 322.800,168.389 323.835,167.186 325.100 " stroke="none" fill="#fc9cae" fill-rule="evenodd"></path><path id="path3" d="M303.998 78.300 L 290.600 91.800 304.100 78.402 C 311.525 71.033,317.600 64.958,317.600 64.902 C 317.600 64.620,316.449 65.753,303.998 78.300 M252.996 128.900 L 246.200 135.800 253.100 129.004 C 259.510 122.691,260.181 122.000,259.896 122.000 C 259.838 122.000,256.733 125.105,252.996 128.900 M348.398 147.500 L 333.400 162.600 348.500 147.602 C 362.534 133.663,363.780 132.400,363.498 132.400 C 363.442 132.400,356.647 139.195,348.398 147.500 M223.194 158.300 L 218.200 163.400 223.300 158.406 C 228.037 153.767,228.581 153.200,228.294 153.200 C 228.236 153.200,225.941 155.495,223.194 158.300 M200.794 180.300 L 195.400 185.800 200.900 180.406 C 206.009 175.394,206.581 174.800,206.294 174.800 C 206.236 174.800,203.761 177.275,200.794 180.300 M306.797 188.700 L 298.200 197.400 306.900 188.803 C 314.984 180.816,315.780 180.000,315.497 180.000 C 315.440 180.000,311.525 183.915,306.797 188.700 M182.394 198.300 L 177.400 203.400 182.500 198.406 C 185.305 195.659,187.600 193.364,187.600 193.306 C 187.600 193.019,187.033 193.563,182.394 198.300 M18.386 204.700 L 16.200 207.000 18.500 204.814 C 19.765 203.611,20.800 202.576,20.800 202.514 C 20.800 202.217,20.418 202.563,18.386 204.700 M81.400 210.400 C 83.150 212.160,84.671 213.600,84.781 213.600 C 84.891 213.600,83.550 212.160,81.800 210.400 C 80.050 208.640,78.529 207.200,78.419 207.200 C 78.309 207.200,79.650 208.640,81.400 210.400 M166.791 213.500 L 163.400 217.000 166.900 213.609 C 170.151 210.459,170.582 210.000,170.291 210.000 C 170.231 210.000,168.656 211.575,166.791 213.500 M277.995 217.100 L 271.800 223.400 278.100 217.205 C 283.953 211.449,284.581 210.800,284.295 210.800 C 284.237 210.800,281.402 213.635,277.995 217.100 M97.800 226.400 C 99.550 228.160,101.071 229.600,101.181 229.600 C 101.291 229.600,99.950 228.160,98.200 226.400 C 96.450 224.640,94.929 223.200,94.819 223.200 C 94.709 223.200,96.050 224.640,97.800 226.400 M151.988 227.900 L 149.400 230.600 152.100 228.012 C 153.585 226.588,154.800 225.373,154.800 225.312 C 154.800 225.017,154.393 225.392,151.988 227.900 M6.901 230.200 C 6.905 231.080,6.987 231.393,7.083 230.895 C 7.179 230.398,7.175 229.678,7.075 229.295 C 6.975 228.913,6.896 229.320,6.901 230.200 M6.901 235.400 C 6.905 236.280,6.987 236.593,7.083 236.095 C 7.179 235.598,7.175 234.878,7.075 234.495 C 6.975 234.113,6.896 234.520,6.901 235.400 M255.593 239.100 L 251.000 243.800 255.700 239.207 C 260.066 234.940,260.582 234.400,260.293 234.400 C 260.235 234.400,258.120 236.515,255.593 239.100 M139.588 239.900 L 137.000 242.600 139.700 240.012 C 141.185 238.588,142.400 237.373,142.400 237.312 C 142.400 237.017,141.993 237.392,139.588 239.900 M115.000 243.200 C 117.192 245.400,119.075 247.200,119.185 247.200 C 119.295 247.200,117.592 245.400,115.400 243.200 C 113.208 241.000,111.325 239.200,111.215 239.200 C 111.105 239.200,112.808 241.000,115.000 243.200 M128.388 250.700 L 125.800 253.400 128.500 250.812 C 129.985 249.388,131.200 248.173,131.200 248.112 C 131.200 247.817,130.793 248.192,128.388 250.700 M236.791 257.500 L 233.400 261.000 236.900 257.609 C 240.151 254.459,240.582 254.000,240.291 254.000 C 240.231 254.000,238.656 255.575,236.791 257.500 M27.000 269.600 C 29.412 272.020,31.476 274.000,31.586 274.000 C 31.696 274.000,29.812 272.020,27.400 269.600 C 24.988 267.180,22.924 265.200,22.814 265.200 C 22.704 265.200,24.588 267.180,27.000 269.600 M220.593 273.300 L 216.200 277.800 220.700 273.407 C 224.880 269.326,225.382 268.800,225.093 268.800 C 225.034 268.800,223.009 270.825,220.593 273.300 M42.793 284.900 C 45.099 287.265,47.034 289.200,47.093 289.200 C 47.382 289.200,46.894 288.687,42.900 284.793 L 38.600 280.600 42.793 284.900 M207.192 286.300 L 203.400 290.200 207.300 286.408 C 209.445 284.322,211.200 282.567,211.200 282.508 C 211.200 282.218,210.714 282.678,207.192 286.300 M194.589 298.500 L 191.800 301.400 194.700 298.611 C 197.394 296.020,197.783 295.600,197.489 295.600 C 197.428 295.600,196.123 296.905,194.589 298.500 M59.600 301.400 C 61.681 303.490,63.474 305.200,63.584 305.200 C 63.694 305.200,62.081 303.490,60.000 301.400 C 57.919 299.310,56.126 297.600,56.016 297.600 C 55.906 297.600,57.519 299.310,59.600 301.400 M183.586 309.100 L 181.400 311.400 183.700 309.214 C 185.837 307.182,186.183 306.800,185.886 306.800 C 185.824 306.800,184.789 307.835,183.586 309.100 M81.800 323.200 C 85.755 327.160,89.082 330.400,89.192 330.400 C 89.302 330.400,86.155 327.160,82.200 323.200 C 78.245 319.240,74.918 316.000,74.808 316.000 C 74.698 316.000,77.845 319.240,81.800 323.200 M172.585 319.700 L 170.600 321.800 172.700 319.815 C 173.855 318.723,174.800 317.778,174.800 317.715 C 174.800 317.417,174.429 317.749,172.585 319.700 M163.385 328.500 L 161.400 330.600 163.500 328.615 C 164.655 327.523,165.600 326.578,165.600 326.515 C 165.600 326.217,165.229 326.549,163.385 328.500 " stroke="none" fill="#fc718c" fill-rule="evenodd"></path><path id="path4" d="M322.794 59.500 L 317.400 65.000 322.900 59.606 C 325.925 56.639,328.400 54.164,328.400 54.106 C 328.400 53.819,327.806 54.391,322.794 59.500 M263.785 118.100 L 261.800 120.200 263.900 118.215 C 265.851 116.371,266.183 116.000,265.885 116.000 C 265.822 116.000,264.877 116.945,263.785 118.100 M231.787 149.700 L 229.400 152.200 231.900 149.813 C 233.275 148.499,234.400 147.374,234.400 147.313 C 234.400 147.017,234.005 147.378,231.787 149.700 M330.585 165.300 L 328.600 167.400 330.700 165.415 C 331.855 164.323,332.800 163.378,332.800 163.315 C 332.800 163.017,332.429 163.349,330.585 165.300 M208.000 173.000 C 207.028 173.990,206.323 174.800,206.433 174.800 C 206.543 174.800,207.428 173.990,208.400 173.000 C 209.372 172.010,210.077 171.200,209.967 171.200 C 209.857 171.200,208.972 172.010,208.000 173.000 M188.575 192.100 L 187.400 193.400 188.700 192.225 C 189.912 191.130,190.184 190.800,189.875 190.800 C 189.806 190.800,189.221 191.385,188.575 192.100 M46.100 192.687 C 46.705 192.778,47.695 192.778,48.300 192.687 C 48.905 192.595,48.410 192.520,47.200 192.520 C 45.990 192.520,45.495 192.595,46.100 192.687 M294.788 200.700 L 292.200 203.400 294.900 200.812 C 296.385 199.388,297.600 198.173,297.600 198.112 C 297.600 197.817,297.193 198.192,294.788 200.700 M92.400 220.925 C 92.400 220.994,92.985 221.579,93.700 222.225 L 95.000 223.400 93.825 222.100 C 92.730 220.888,92.400 220.616,92.400 220.925 M270.181 224.900 L 268.600 226.600 270.300 225.019 C 271.235 224.149,272.000 223.384,272.000 223.319 C 272.000 223.016,271.652 223.319,270.181 224.900 M109.400 237.600 C 110.259 238.480,111.052 239.200,111.162 239.200 C 111.272 239.200,110.659 238.480,109.800 237.600 C 108.941 236.720,108.148 236.000,108.038 236.000 C 107.928 236.000,108.541 236.720,109.400 237.600 M249.775 244.900 L 248.600 246.200 249.900 245.025 C 251.112 243.930,251.384 243.600,251.075 243.600 C 251.006 243.600,250.421 244.185,249.775 244.900 M132.175 246.900 L 131.000 248.200 132.300 247.025 C 133.512 245.930,133.784 245.600,133.475 245.600 C 133.406 245.600,132.821 246.185,132.175 246.900 M232.175 262.100 L 231.000 263.400 232.300 262.225 C 233.015 261.579,233.600 260.994,233.600 260.925 C 233.600 260.616,233.270 260.888,232.175 262.100 M31.600 274.125 C 31.600 274.194,32.185 274.779,32.900 275.425 L 34.200 276.600 33.025 275.300 C 31.930 274.088,31.600 273.816,31.600 274.125 M49.200 291.400 C 49.946 292.170,50.647 292.800,50.757 292.800 C 50.867 292.800,50.346 292.170,49.600 291.400 C 48.854 290.630,48.153 290.000,48.043 290.000 C 47.933 290.000,48.454 290.630,49.200 291.400 M63.600 305.325 C 63.600 305.394,64.185 305.979,64.900 306.625 L 66.200 307.800 65.025 306.500 C 63.930 305.288,63.600 305.016,63.600 305.325 " stroke="none" fill="#fc7c94" fill-rule="evenodd"></path></g></svg>