<?xml version="1.0" encoding="utf-8"?>
<!-- Generator: Adobe Illustrator 24.0.2, SVG Export Plug-In . SVG Version: 6.00 Build 0)  -->
<svg version="1.1" id="Calque_1" xmlns="http://www.w3.org/2000/svg" xmlns:xlink="http://www.w3.org/1999/xlink" x="0px" y="0px"
	 viewBox="0 0 512 512" style="enable-background:new 0 0 512 512;" xml:space="preserve">
<style type="text/css">
	.st0{fill:#FFFFFF;}
</style>
<path class="st0" d="M511.5,252.5C509.4,110.9,389.3-8.7,238.1,1.1C106.5,9.6-9.5,123,0.1,274.3c8.5,133.3,123.7,247.3,273,237.7
	C406.4,503.4,513.2,391.3,511.5,252.5z M97.9,172c4.7-15.9,20.6-33.6,47.1-33.4c36.9,0.2,73.7,0.1,110.6,0.1c0,0,0,0,0,0
	c37,0,73.9,0,110.9,0c22.5,0,40.6,13.1,46.8,33.7c0.7,2.3,0.3,3.4-1.8,4.7c-51.2,31.2-102.4,62.4-153.5,93.7c-1.9,1.1-3.2,1.1-5,0
	c-51-31.2-102.1-62.4-153.2-93.6C97.4,175.8,97.2,174.5,97.9,172z M415.5,325.9c0,23.3-14.2,41.8-36.4,47.2c-4.2,1-8.6,1.3-13,1.3
	c-73.8,0.1-147.6,0.1-221.4,0c-22,0-39.5-11.8-46.3-31.7c-1.7-5.1-2.7-10.8-2.7-16.2c-0.2-39.7-0.1-79.3-0.1-119c0-0.5,0-1,0-2.1
	c1.5,0.9,2.6,1.5,3.6,2.1c48.4,29.5,96.7,58.9,145.1,88.5c7.6,4.6,14.9,4.6,22.5,0c48.4-29.6,96.9-59.1,145.3-88.6
	c1-0.6,1.9-1.1,3.4-1.9c0,1.2,0,2,0,2.7C415.5,247.4,415.5,286.6,415.5,325.9z"/>
</svg>
