<?xml version="1.0" encoding="utf-8"?>
<!-- Generator: Adobe Illustrator 24.0.2, SVG Export Plug-In . SVG Version: 6.00 Build 0)  -->
<svg version="1.1" id="Calque_1" xmlns="http://www.w3.org/2000/svg" xmlns:xlink="http://www.w3.org/1999/xlink" x="0px" y="0px"
	 viewBox="0 0 512 512" style="enable-background:new 0 0 512 512;" xml:space="preserve">
<style type="text/css">
	.st0{fill:#FFFFFF;}
</style>
<g>
	<g>
		<path class="st0" d="M62.9,396c7.6-22.7,14.7-43.9,21.7-65.1c3.3-10,6.4-20.1,10.1-30c2-5.3,1.5-9.6-1.2-14.6
			c-16.5-30.5-24.3-63.2-23.7-98C71.5,97.4,142.5,16.4,232.4,3.4c98.7-14.2,189,44.3,215.7,139.9c30.2,107.8-42,221.5-152,239.8
			c-41.8,7-81.6,1.3-119.6-17.3c-5.3-2.6-9.8-2.9-15.4-1c-30.6,10-61.3,19.7-92,29.5C67.7,394.7,66.2,395.1,62.9,396z M113.3,346.2
			c3.5-0.9,5.5-1.2,7.3-1.8c15.7-5,31.4-9.9,47-15.2c4.5-1.5,8-1.2,12.2,1.4c31.6,19,65.6,26,102.3,21.8
			c79.1-9,152.5-82.6,138.7-182.3C406.3,66,294.6,4.5,198.4,47.1c-87,38.4-121.1,140.4-76.4,222.1c8.1,14.9,10.2,26.7,3.3,41.7
			C120.3,321.7,117.5,333.5,113.3,346.2z"/>
		<path class="st0" d="M312.4,289.9c-4.5-0.9-11-1.8-17.1-3.6c-44.4-13.6-79-40.4-104.4-79.1c-10.6-16.2-21.3-32.3-24-52.2
			c-2.4-18.3,3.3-33.9,15.5-47.6c8-9,18.1-8.9,28.5-6.8c2.4,0.5,5.1,3.6,6.2,6.1c5.3,12.6,10.5,25.3,14.7,38.2
			c1.2,3.8-0.5,8.8-1.7,13c-0.6,2.3-2.8,4.3-4.5,6.2c-11.3,13.6-11.1,13.5-1.2,28.6c13.6,20.5,31.5,35.9,53.3,47
			c7.3,3.7,12.9,3.8,18.2-3.1c3.7-4.9,8.2-9.3,12.1-14c3-3.6,6.5-5,10.9-2.7c13.2,6.9,26.6,13.6,39.6,21c2.1,1.2,3.6,5.6,3.4,8.4
			c-1.2,21-15,35.8-36,39.2C322,289.2,318.1,289.3,312.4,289.9z"/>
	</g>
</g>
<g>
	<path class="st0" d="M95.6,488H79.7l-8.9-34.7c-0.3-1.2-0.9-3.8-1.7-7.7c-0.8-3.9-1.3-6.5-1.4-7.8c-0.2,1.6-0.6,4.2-1.4,7.8
		c-0.7,3.6-1.3,6.2-1.7,7.7L55.7,488H39.8L23,422h13.8l8.4,36c1.5,6.7,2.5,12.4,3.2,17.3c0.2-1.7,0.6-4.4,1.2-8
		c0.6-3.6,1.3-6.4,1.8-8.4l9.6-37h13.2l9.6,37c0.4,1.7,0.9,4.2,1.6,7.6c0.6,3.4,1.1,6.3,1.4,8.8c0.3-2.3,0.8-5.3,1.4-8.8
		c0.7-3.5,1.3-6.3,1.8-8.5l8.4-36h13.8L95.6,488z"/>
	<path class="st0" d="M166.2,488h-13.8v-29.5c0-7.3-2.7-10.9-8.1-10.9c-3.9,0-6.6,1.3-8.4,3.9c-1.7,2.6-2.6,6.9-2.6,12.7V488h-13.8
		v-70.3h13.8v14.3c0,1.1-0.1,3.7-0.3,7.9l-0.3,4.1h0.7c3.1-4.9,7.9-7.4,14.6-7.4c5.9,0,10.4,1.6,13.5,4.8c3.1,3.2,4.6,7.8,4.6,13.7
		V488z"/>
	<path class="st0" d="M212.5,488l-2.7-6.9h-0.4c-2.3,2.9-4.7,4.9-7.2,6.1c-2.5,1.1-5.7,1.7-9.6,1.7c-4.8,0-8.7-1.4-11.4-4.2
		c-2.8-2.8-4.2-6.7-4.2-11.8c0-5.4,1.9-9.3,5.6-11.9c3.7-2.5,9.4-4,17-4.2l8.8-0.3v-2.2c0-5.1-2.6-7.7-7.9-7.7
		c-4,0-8.8,1.2-14.2,3.7l-4.6-9.3c5.8-3,12.3-4.6,19.3-4.6c6.8,0,12,1.5,15.6,4.4c3.6,3,5.4,7.4,5.4,13.5V488H212.5z M208.4,464.7
		l-5.3,0.2c-4,0.1-7,0.8-8.9,2.2c-2,1.3-2.9,3.3-2.9,6.1c0,3.9,2.2,5.8,6.7,5.8c3.2,0,5.7-0.9,7.7-2.8c1.9-1.8,2.9-4.3,2.9-7.3
		V464.7z"/>
	<path class="st0" d="M257.5,478c2.4,0,5.3-0.5,8.7-1.6v10.3c-3.4,1.5-7.6,2.3-12.6,2.3c-5.5,0-9.5-1.4-12-4.2
		c-2.5-2.8-3.8-7-3.8-12.5v-24.3h-6.6v-5.8l7.6-4.6l4-10.7h8.8v10.7h14.1v10.3h-14.1v24.3c0,2,0.5,3.4,1.6,4.3
		C254.3,477.5,255.7,478,257.5,478z"/>
	<path class="st0" d="M311.6,473.1c0,5.2-1.8,9.1-5.4,11.8c-3.6,2.7-9,4.1-16.1,4.1c-3.7,0-6.8-0.2-9.4-0.7c-2.6-0.5-5-1.2-7.3-2.2
		v-11.4c2.6,1.2,5.4,2.2,8.6,3s6,1.2,8.5,1.2c5,0,7.5-1.4,7.5-4.3c0-1.1-0.3-2-1-2.6c-0.7-0.7-1.8-1.4-3.4-2.3
		c-1.6-0.9-3.8-1.9-6.5-3c-3.9-1.6-6.7-3.1-8.6-4.5c-1.8-1.4-3.1-3-4-4.8c-0.8-1.8-1.2-4-1.2-6.6c0-4.5,1.7-8,5.2-10.4
		c3.5-2.5,8.4-3.7,14.8-3.7c6.1,0,12,1.3,17.7,4l-4.2,9.9c-2.5-1.1-4.9-2-7.1-2.7c-2.2-0.7-4.4-1-6.7-1c-4.1,0-6.1,1.1-6.1,3.3
		c0,1.2,0.7,2.3,2,3.2s4.2,2.2,8.6,4c3.9,1.6,6.8,3.1,8.7,4.5c1.8,1.4,3.2,3,4.1,4.8C311.2,468.4,311.6,470.6,311.6,473.1z"/>
	<path class="st0" d="M363.9,488l-4.8-15.7H335l-4.8,15.7h-15.1l23.3-66.3h17.1L379,488H363.9z M355.7,460.6
		c-4.4-14.2-6.9-22.3-7.5-24.2s-1-3.3-1.2-4.4c-1,3.9-3.8,13.4-8.5,28.6H355.7z"/>
	<path class="st0" d="M413.9,488.9c-5.9,0-10.6-2.2-14-6.5h-0.7c0.5,4.2,0.7,6.7,0.7,7.3v20.5h-13.8v-72.7h11.2l1.9,6.5h0.6
		c3.2-5,8-7.5,14.3-7.5c6,0,10.6,2.3,14,6.9c3.4,4.6,5.1,11,5.1,19.2c0,5.4-0.8,10.1-2.4,14c-1.6,4-3.8,7-6.8,9.1
		C421.3,487.9,417.9,488.9,413.9,488.9z M409.8,447.6c-3.4,0-5.9,1-7.5,3.1c-1.6,2.1-2.4,5.5-2.4,10.4v1.5c0,5.4,0.8,9.3,2.4,11.7
		c1.6,2.3,4.2,3.5,7.7,3.5c6.2,0,9.3-5.1,9.3-15.3c0-5-0.8-8.7-2.3-11.2S413.1,447.6,409.8,447.6z"/>
	<path class="st0" d="M472.4,488.9c-5.9,0-10.6-2.2-14-6.5h-0.7c0.5,4.2,0.7,6.7,0.7,7.3v20.5h-13.8v-72.7h11.2l1.9,6.5h0.6
		c3.2-5,8-7.5,14.3-7.5c6,0,10.6,2.3,14,6.9c3.4,4.6,5.1,11,5.1,19.2c0,5.4-0.8,10.1-2.4,14c-1.6,4-3.8,7-6.8,9.1
		C479.8,487.9,476.4,488.9,472.4,488.9z M468.4,447.6c-3.4,0-5.9,1-7.5,3.1c-1.6,2.1-2.4,5.5-2.4,10.4v1.5c0,5.4,0.8,9.3,2.4,11.7
		c1.6,2.3,4.2,3.5,7.7,3.5c6.2,0,9.3-5.1,9.3-15.3c0-5-0.8-8.7-2.3-11.2S471.6,447.6,468.4,447.6z"/>
</g>
</svg>
