<?xml version="1.0" encoding="utf-8"?>
<!-- Generator: Adobe Illustrator 24.0.2, SVG Export Plug-In . SVG Version: 6.00 Build 0)  -->
<svg version="1.1" id="Calque_1" xmlns="http://www.w3.org/2000/svg" xmlns:xlink="http://www.w3.org/1999/xlink" x="0px" y="0px"
	 viewBox="0 0 512 512" style="enable-background:new 0 0 512 512;" xml:space="preserve">
<style type="text/css">
	.st0{fill:#FFFFFF;}
</style>
<g>
	<g>
		<path class="st0" d="M512,252.9c1.7,138.9-105.1,250.9-238.4,259.5C124.2,522,9,407.9,0.6,274.7C-9,123.5,107,10,238.6,1.5
			C389.8-8.3,509.9,111.3,512,252.9z M124.5,188c-0.8,11.6,3.6,23.6,7.8,31.6C169.6,290,223.5,343.9,294,381c12,6.3,24.9,9,38.6,7.3
			c24.1-3,47.3-21.7,53.7-43.7c3.1-10.5,1-19.1-5.9-24.4c-17.7-13.8-35.5-27.6-53.2-41.4c-7.7-6-17.4-5.5-24.4,1.5
			c-4.2,4.2-8.3,8.7-12.7,12.7c-4.9,4.6-10.2,4.7-15.4,1c-21.6-15.6-40.4-34.1-56-55.7c-3.8-5.2-3.5-11.2,1-15.9
			c3.6-3.7,7.3-7.3,10.9-11c9.6-9.6,10-17.3,1.7-28c-12.3-15.7-24.9-31.2-36.7-47.3c-8.1-11.1-16.5-13.3-30.5-8.5
			C143.7,135.2,123.4,161.4,124.5,188z"/>
	</g>
</g>
</svg>
