<?xml version="1.0" encoding="utf-8"?>
<!-- Generator: Adobe Illustrator 24.0.2, SVG Export Plug-In . SVG Version: 6.00 Build 0)  -->
<svg version="1.1" id="Calque_1" xmlns:sketch="http://www.bohemiancoding.com/sketch/ns"
	 xmlns="http://www.w3.org/2000/svg" xmlns:xlink="http://www.w3.org/1999/xlink" x="0px" y="0px" viewBox="0 0 60 60"
	 style="enable-background:new 0 0 60 60;" xml:space="preserve">
<style type="text/css">
	.st0{fill-rule:evenodd;clip-rule:evenodd;fill:#FF2146;}
	.st1{fill-rule:evenodd;clip-rule:evenodd;fill:#FFFFFF;}
</style>
<title></title>
<g id="flat">
	<g id="linkedin">
		<path id="Linkedin" class="st0" d="M30,60c16.6,0,30-13.4,30-30S46.6,0,30,0S0,13.4,0,30S13.4,60,30,60z"/>
		<path class="st1" d="M21.9,43.8V25.5h-5.7v18.3H21.9z M21.9,19c0-1.6-1.1-2.9-2.9-2.9c-1.8,0-2.9,1.2-2.9,2.9
			c0,1.6,1.1,2.9,2.9,2.9h0C20.8,21.9,21.9,20.6,21.9,19z M31.1,43.8V33.4c0-0.6,0-1.1,0.2-1.5c0.4-1.1,1.5-2.3,3.2-2.3
			c2.2,0,3.7,1.3,3.7,3.8v10.4h5.7V33.1c0-5.7-3.1-8.4-7.1-8.4c-3.3,0-4.8,1.9-5.6,3.1l0-2.4h-5.7c0.1,1.8,0,18.4,0,18.4H31.1z"/>
	</g>
</g>
<text transform="matrix(1 0 0 1 344 125)" style="font-family:'MyriadPro-Regular'; font-size:12px;"> </text>
</svg>
