<?xml version="1.0" encoding="utf-8"?>
<!-- Generator: Adobe Illustrator 24.0.2, SVG Export Plug-In . SVG Version: 6.00 Build 0)  -->
<svg version="1.1" id="Calque_1" xmlns:sketch="http://www.bohemiancoding.com/sketch/ns"
	 xmlns="http://www.w3.org/2000/svg" xmlns:xlink="http://www.w3.org/1999/xlink" x="0px" y="0px" viewBox="0 0 60 60"
	 style="enable-background:new 0 0 60 60;" xml:space="preserve">
<style type="text/css">
	.st0{fill-rule:evenodd;clip-rule:evenodd;fill:#FF2146;}
	.st1{fill:#FFFFFF;}
</style>
<title></title>
<g id="flat_1_">
	<g id="linkedin_1_">
		<path id="Linkedin_1_" class="st0" d="M30,60c16.6,0,30-13.4,30-30S46.6,0,30,0S0,13.4,0,30S13.4,60,30,60z"/>
	</g>
</g>
<path class="st1" d="M47.1,16.2H12.9c-0.7,0-1.3,0.6-1.3,1.3v25.1c0,0.7,0.6,1.3,1.3,1.3h34.1c0.7,0,1.3-0.6,1.3-1.3V17.4
	C48.3,16.7,47.8,16.2,47.1,16.2z M31.2,31.8c-0.3,0.3-0.7,0.4-1.2,0.4c-0.5,0-0.9-0.2-1.2-0.4L16,18.7h28.2L31.2,31.8z M23.5,29.9
	l-9.3,9.5V20.5L23.5,29.9z M25.3,31.8l1.8,1.8c0.8,0.8,1.8,1.2,3,1.2c1.1,0,2.2-0.4,3-1.2l1.8-1.8l9.2,9.4H16L25.3,31.8z M36.6,30
	l9.2-9.3v18.7L36.6,30z"/>
</svg>
