<?xml version="1.0" encoding="utf-8"?>
<!-- Generator: Adobe Illustrator 24.0.2, SVG Export Plug-In . SVG Version: 6.00 Build 0)  -->
<svg version="1.1" id="Calque_1" xmlns="http://www.w3.org/2000/svg" xmlns:xlink="http://www.w3.org/1999/xlink" x="0px" y="0px"
	 viewBox="0 0 502.8 391.5" style="enable-background:new 0 0 502.8 391.5;" xml:space="preserve">
<style type="text/css">
	.st0{fill:#FF2146;}
</style>
<path class="st0" d="M154.5,388c0,0-0.1,0-0.2,0c-26,0-42.2-16.4-47.6-21.9c-7.7-7.9-35.1-34.6-61.7-60.4
	c-8.8-8.6-17.4-17-25.4-24.7c-20.4-19.9-20.5-52.7-0.2-72.7l0,0c19.8-19.5,51.5-19.6,71.4-0.2c8.1,7.9,16.7,16.3,25.3,24.7
	c13.9,13.6,27.5,26.8,38.7,37.7c83-79.8,176.4-172.4,256.4-252.1c19.9-19.9,52.1-19.8,72,0.1l0,0c19.9,19.9,19.9,52.2-0.1,72.1
	c-88.6,88.3-193.5,192.1-282.5,277.1C195.6,372.7,179.6,388,154.5,388z"/>
</svg>
