<?xml version="1.0" encoding="utf-8"?>
<!-- Generator: Adobe Illustrator 24.0.2, SVG Export Plug-In . SVG Version: 6.00 Build 0)  -->
<svg version="1.1" id="Calque_1" xmlns="http://www.w3.org/2000/svg" xmlns:xlink="http://www.w3.org/1999/xlink" x="0px" y="0px"
	 viewBox="0 0 118.8 116.8" style="enable-background:new 0 0 118.8 116.8;" xml:space="preserve">
<style type="text/css">
	.st0{fill:#FF2146;}
</style>
<path class="st0" d="M77.5,0C54.8,0,36.2,18.5,36.2,41.3c0,8.3,2.5,16.1,6.8,22.6l-41,41c-2.7,2.7-2.7,7.2,0,9.9
	c1.4,1.4,3.2,2.1,4.9,2.1s3.6-0.7,4.9-2.1l40.6-40.6c6.9,5.3,15.6,8.4,24.9,8.4c22.7,0,41.3-18.5,41.3-41.3S100.2,0,77.5,0z
	 M77.5,68.5c-15,0-27.3-12.2-27.3-27.3S62.5,14,77.5,14c15,0,27.3,12.2,27.3,27.3S92.5,68.5,77.5,68.5z"/>
</svg>
