<?xml version="1.0" encoding="utf-8"?>
<!-- Generator: Adobe Illustrator 24.0.2, SVG Export Plug-In . SVG Version: 6.00 Build 0)  -->
<svg version="1.1" id="Calque_1" xmlns="http://www.w3.org/2000/svg" xmlns:xlink="http://www.w3.org/1999/xlink" x="0px" y="0px"
	 viewBox="0 0 392.4 117.7" style="enable-background:new 0 0 392.4 117.7;" xml:space="preserve">
<style type="text/css">
	.st0{fill:#FF2146;}
	.st1{fill:#004996;}
</style>
<g>
	<g>
		<path class="st0" d="M164.2,97.9h-2.6v-2h2.6v-2.7c0-1.6,0.3-2.8,0.9-3.6c0.6-0.8,1.7-1.2,3.2-1.2c0.3,0,0.5,0,0.8,0
			c0.3,0,0.6,0.1,0.9,0.2l-0.3,2c-0.2-0.1-0.4-0.1-0.6-0.2c-0.2,0-0.4-0.1-0.7-0.1c-0.4,0-0.8,0.1-1,0.2c-0.3,0.1-0.5,0.3-0.6,0.5
			c-0.1,0.2-0.2,0.5-0.3,0.9c0,0.3-0.1,0.7-0.1,1.1v2.8h2.7v2h-2.7V108h-2.3V97.9z"/>
		<path class="st0" d="M171.5,91.6c0-0.5,0.2-0.9,0.5-1.2c0.3-0.3,0.7-0.5,1.2-0.5s0.9,0.2,1.2,0.5c0.3,0.3,0.5,0.7,0.5,1.2
			s-0.2,0.9-0.5,1.2c-0.3,0.3-0.7,0.5-1.2,0.5s-0.9-0.2-1.2-0.5C171.6,92.5,171.5,92.1,171.5,91.6z M172,95.9h2.3v12H172V95.9z"/>
		<path class="st0" d="M178,95.9h2.3v1.9h0.1c0.3-0.6,0.8-1.2,1.5-1.6c0.7-0.4,1.5-0.6,2.5-0.6c0.6,0,1.1,0.1,1.7,0.3
			c0.5,0.2,1,0.5,1.4,0.8c0.4,0.4,0.7,0.9,1,1.4c0.2,0.6,0.4,1.3,0.4,2.1v7.7h-2.3v-7.1c0-0.6-0.1-1-0.2-1.4c-0.2-0.4-0.4-0.7-0.6-1
			c-0.3-0.2-0.5-0.4-0.9-0.5c-0.3-0.1-0.7-0.2-1-0.2c-0.5,0-0.9,0.1-1.3,0.2c-0.4,0.2-0.8,0.4-1.1,0.7c-0.3,0.3-0.5,0.7-0.7,1.3
			c-0.2,0.5-0.3,1.1-0.3,1.8v6.2H178V95.9z"/>
		<path class="st0" d="M192.3,97.4c0.6-0.6,1.4-1,2.2-1.3c0.8-0.3,1.7-0.4,2.5-0.4c0.9,0,1.6,0.1,2.3,0.3c0.6,0.2,1.2,0.5,1.6,0.9
			c0.4,0.4,0.7,0.8,0.9,1.3c0.2,0.5,0.3,1,0.3,1.5v6.1c0,0.4,0,0.8,0,1.2c0,0.4,0,0.7,0.1,1h-2c-0.1-0.6-0.1-1.2-0.1-1.8H200
			c-0.5,0.8-1.1,1.3-1.8,1.7c-0.7,0.3-1.5,0.5-2.4,0.5c-0.6,0-1.1-0.1-1.6-0.2c-0.5-0.2-1-0.4-1.3-0.7c-0.4-0.3-0.7-0.7-0.9-1.1
			c-0.2-0.4-0.3-1-0.3-1.6c0-0.8,0.2-1.4,0.5-2c0.3-0.5,0.8-1,1.4-1.3c0.6-0.3,1.3-0.6,2.1-0.7c0.8-0.1,1.7-0.2,2.6-0.2h1.7V100
			c0-0.3-0.1-0.6-0.2-0.9c-0.1-0.3-0.3-0.6-0.5-0.8c-0.2-0.2-0.5-0.4-0.9-0.6c-0.4-0.1-0.8-0.2-1.3-0.2c-0.4,0-0.8,0-1.2,0.1
			c-0.3,0.1-0.6,0.2-0.9,0.3c-0.3,0.1-0.5,0.3-0.7,0.4c-0.2,0.2-0.4,0.3-0.6,0.5L192.3,97.4z M198.7,102.2c-0.5,0-1.1,0-1.7,0.1
			s-1.1,0.2-1.5,0.3c-0.5,0.2-0.8,0.4-1.1,0.7c-0.3,0.3-0.4,0.7-0.4,1.2c0,0.7,0.2,1.2,0.7,1.5c0.5,0.3,1.1,0.5,1.9,0.5
			c0.6,0,1.2-0.1,1.6-0.3c0.4-0.2,0.8-0.5,1.1-0.8c0.3-0.3,0.5-0.7,0.6-1.1c0.1-0.4,0.2-0.8,0.2-1.2v-0.8H198.7z"/>
		<path class="st0" d="M205.5,95.9h2.3v1.9h0.1c0.3-0.6,0.8-1.2,1.5-1.6c0.7-0.4,1.5-0.6,2.5-0.6c0.6,0,1.1,0.1,1.7,0.3
			c0.5,0.2,1,0.5,1.4,0.8c0.4,0.4,0.7,0.9,1,1.4c0.2,0.6,0.4,1.3,0.4,2.1v7.7h-2.3v-7.1c0-0.6-0.1-1-0.2-1.4c-0.2-0.4-0.4-0.7-0.6-1
			c-0.3-0.2-0.5-0.4-0.9-0.5c-0.3-0.1-0.7-0.2-1-0.2c-0.5,0-0.9,0.1-1.3,0.2c-0.4,0.2-0.8,0.4-1.1,0.7c-0.3,0.3-0.5,0.7-0.7,1.3
			c-0.2,0.5-0.3,1.1-0.3,1.8v6.2h-2.3V95.9z"/>
		<path class="st0" d="M228.3,99.1c-0.4-0.4-0.9-0.8-1.3-1c-0.5-0.2-1-0.3-1.7-0.3c-0.6,0-1.2,0.1-1.6,0.3c-0.5,0.2-0.9,0.5-1.2,0.9
			c-0.3,0.4-0.6,0.9-0.7,1.4c-0.2,0.5-0.2,1.1-0.2,1.6c0,0.6,0.1,1.1,0.3,1.6c0.2,0.5,0.4,0.9,0.8,1.3c0.3,0.4,0.7,0.7,1.2,0.9
			c0.5,0.2,1,0.3,1.6,0.3c0.6,0,1.2-0.1,1.7-0.3c0.5-0.2,0.9-0.6,1.3-1l1.6,1.6c-0.6,0.7-1.3,1.1-2.1,1.4c-0.8,0.3-1.6,0.4-2.5,0.4
			c-0.9,0-1.8-0.2-2.6-0.5c-0.8-0.3-1.4-0.7-2-1.3c-0.6-0.6-1-1.2-1.3-2c-0.3-0.8-0.5-1.6-0.5-2.6s0.2-1.8,0.5-2.6
			c0.3-0.8,0.7-1.4,1.3-2c0.5-0.6,1.2-1,2-1.3s1.6-0.5,2.6-0.5c0.9,0,1.7,0.2,2.5,0.5c0.8,0.3,1.5,0.8,2.1,1.4L228.3,99.1z"/>
		<path class="st0" d="M233.7,102.8c0,0.5,0.1,1,0.3,1.4c0.2,0.4,0.5,0.8,0.9,1.1c0.4,0.3,0.8,0.5,1.3,0.7c0.5,0.2,1,0.3,1.5,0.3
			c0.7,0,1.3-0.2,1.9-0.5c0.5-0.3,1-0.8,1.4-1.3l1.7,1.3c-1.3,1.6-3,2.5-5.3,2.5c-0.9,0-1.8-0.2-2.6-0.5c-0.8-0.3-1.4-0.8-2-1.3
			c-0.5-0.6-0.9-1.2-1.2-2c-0.3-0.8-0.4-1.6-0.4-2.5c0-0.9,0.2-1.7,0.5-2.5c0.3-0.8,0.7-1.4,1.3-2s1.2-1,2-1.3
			c0.8-0.3,1.6-0.5,2.5-0.5c1.1,0,2,0.2,2.7,0.6c0.7,0.4,1.3,0.9,1.8,1.5c0.5,0.6,0.8,1.3,1,2c0.2,0.8,0.3,1.5,0.3,2.3v0.8H233.7z
			 M240.9,101c0-0.5-0.1-1-0.2-1.4c-0.1-0.4-0.4-0.8-0.6-1.1c-0.3-0.3-0.6-0.6-1.1-0.7c-0.4-0.2-0.9-0.3-1.5-0.3
			c-0.6,0-1.1,0.1-1.5,0.3c-0.5,0.2-0.9,0.5-1.2,0.8c-0.3,0.3-0.6,0.7-0.8,1.1c-0.2,0.4-0.3,0.8-0.3,1.2H240.9z"/>
		<path class="st0" d="M251.9,95.9h2.6l3.6,9.2l3.5-9.2h2.4l-4.7,12h-2.5L251.9,95.9z"/>
		<path class="st0" d="M265.5,102c0-0.9,0.2-1.7,0.5-2.5c0.3-0.8,0.8-1.4,1.4-2c0.6-0.6,1.3-1,2-1.4c0.8-0.3,1.6-0.5,2.5-0.5
			s1.7,0.2,2.5,0.5c0.8,0.3,1.5,0.8,2,1.4s1,1.2,1.4,2c0.3,0.8,0.5,1.6,0.5,2.5c0,0.9-0.2,1.7-0.5,2.5c-0.3,0.8-0.8,1.4-1.4,2
			c-0.6,0.6-1.3,1-2,1.3c-0.8,0.3-1.6,0.5-2.5,0.5s-1.7-0.2-2.5-0.5c-0.8-0.3-1.5-0.8-2-1.3c-0.6-0.6-1-1.2-1.4-2
			C265.7,103.7,265.5,102.8,265.5,102z M268,102c0,0.6,0.1,1.2,0.3,1.7c0.2,0.5,0.4,1,0.8,1.3c0.3,0.4,0.8,0.7,1.2,0.9
			c0.5,0.2,1,0.3,1.7,0.3c0.6,0,1.2-0.1,1.7-0.3c0.5-0.2,0.9-0.5,1.2-0.9c0.3-0.4,0.6-0.8,0.8-1.3c0.2-0.5,0.3-1.1,0.3-1.7
			c0-0.6-0.1-1.2-0.3-1.7c-0.2-0.5-0.4-1-0.8-1.3c-0.3-0.4-0.8-0.7-1.2-0.9c-0.5-0.2-1-0.3-1.7-0.3c-0.6,0-1.2,0.1-1.7,0.3
			c-0.5,0.2-0.9,0.5-1.2,0.9c-0.3,0.4-0.6,0.8-0.8,1.3C268,100.8,268,101.3,268,102z"/>
		<path class="st0" d="M287.7,99c-0.3-0.3-0.6-0.6-1-0.9s-0.9-0.3-1.5-0.3c-0.5,0-1,0.1-1.4,0.3s-0.6,0.6-0.6,1
			c0,0.4,0.1,0.6,0.3,0.9s0.5,0.4,0.8,0.5c0.3,0.1,0.6,0.2,1,0.3c0.4,0.1,0.7,0.1,0.9,0.2c0.5,0.1,1,0.3,1.4,0.4
			c0.4,0.2,0.8,0.4,1.1,0.7c0.3,0.3,0.6,0.6,0.7,1c0.2,0.4,0.3,0.9,0.3,1.4c0,0.7-0.1,1.3-0.4,1.7c-0.3,0.5-0.7,0.9-1.1,1.2
			c-0.5,0.3-1,0.5-1.6,0.7c-0.6,0.1-1.2,0.2-1.8,0.2c-1,0-1.9-0.2-2.6-0.5c-0.8-0.3-1.4-0.9-2-1.7l1.7-1.4c0.4,0.4,0.8,0.7,1.2,1
			s1,0.4,1.7,0.4c0.3,0,0.6,0,0.9-0.1c0.3-0.1,0.6-0.2,0.8-0.3c0.2-0.1,0.4-0.3,0.6-0.5c0.1-0.2,0.2-0.4,0.2-0.7
			c0-0.3-0.1-0.6-0.3-0.8c-0.2-0.2-0.5-0.4-0.8-0.5c-0.3-0.1-0.6-0.2-0.9-0.3c-0.3-0.1-0.6-0.1-0.9-0.2c-0.5-0.1-1-0.3-1.4-0.4
			c-0.4-0.2-0.8-0.4-1.2-0.6c-0.3-0.3-0.6-0.6-0.8-1c-0.2-0.4-0.3-0.9-0.3-1.4c0-0.6,0.1-1.2,0.4-1.6c0.3-0.5,0.6-0.9,1-1.2
			c0.4-0.3,0.9-0.5,1.5-0.7c0.6-0.2,1.1-0.2,1.7-0.2c0.8,0,1.6,0.2,2.3,0.5c0.7,0.3,1.3,0.8,1.8,1.5L287.7,99z"/>
		<path class="st0" d="M299.8,95.9h2.3v1.7h0.1c0.4-0.6,1-1.1,1.8-1.5c0.8-0.4,1.6-0.5,2.4-0.5c0.9,0,1.8,0.2,2.5,0.5
			c0.8,0.3,1.4,0.8,1.9,1.3s0.9,1.2,1.2,2c0.3,0.8,0.4,1.6,0.4,2.5c0,0.9-0.1,1.7-0.4,2.5c-0.3,0.8-0.7,1.4-1.2,2
			c-0.5,0.6-1.2,1-1.9,1.3c-0.8,0.3-1.6,0.5-2.5,0.5c-0.9,0-1.7-0.2-2.4-0.5c-0.8-0.4-1.3-0.9-1.8-1.5H302v8.9h-2.3V95.9z M306,97.8
			c-0.6,0-1.2,0.1-1.7,0.3c-0.5,0.2-0.9,0.5-1.2,0.9c-0.3,0.4-0.6,0.8-0.8,1.3c-0.2,0.5-0.3,1.1-0.3,1.7c0,0.6,0.1,1.2,0.3,1.7
			c0.2,0.5,0.4,1,0.8,1.3c0.3,0.4,0.8,0.7,1.2,0.9c0.5,0.2,1,0.3,1.7,0.3c0.6,0,1.2-0.1,1.7-0.3c0.5-0.2,0.9-0.5,1.2-0.9
			c0.3-0.4,0.6-0.8,0.8-1.3c0.2-0.5,0.3-1.1,0.3-1.7c0-0.6-0.1-1.2-0.3-1.7c-0.2-0.5-0.4-1-0.8-1.3c-0.3-0.4-0.8-0.7-1.2-0.9
			C307.2,97.9,306.6,97.8,306,97.8z"/>
		<path class="st0" d="M315.3,95.9h2.3v1.9h0.1c0.2-0.3,0.4-0.6,0.6-0.9c0.3-0.3,0.5-0.5,0.9-0.7c0.3-0.2,0.7-0.3,1-0.4
			c0.4-0.1,0.7-0.2,1.1-0.2s0.7,0.1,1,0.2l-0.1,2.5c-0.2-0.1-0.4-0.1-0.6-0.1c-0.2,0-0.4-0.1-0.6-0.1c-1.1,0-2,0.3-2.6,0.9
			c-0.6,0.6-0.9,1.6-0.9,2.9v6h-2.3V95.9z"/>
		<path class="st0" d="M323.8,102c0-0.9,0.2-1.7,0.5-2.5c0.3-0.8,0.8-1.4,1.4-2c0.6-0.6,1.3-1,2-1.4c0.8-0.3,1.6-0.5,2.5-0.5
			s1.7,0.2,2.5,0.5c0.8,0.3,1.5,0.8,2,1.4c0.6,0.6,1,1.2,1.4,2c0.3,0.8,0.5,1.6,0.5,2.5c0,0.9-0.2,1.7-0.5,2.5
			c-0.3,0.8-0.8,1.4-1.4,2c-0.6,0.6-1.3,1-2,1.3c-0.8,0.3-1.6,0.5-2.5,0.5s-1.7-0.2-2.5-0.5c-0.8-0.3-1.5-0.8-2-1.3
			c-0.6-0.6-1-1.2-1.4-2C323.9,103.7,323.8,102.8,323.8,102z M326.2,102c0,0.6,0.1,1.2,0.3,1.7c0.2,0.5,0.4,1,0.8,1.3
			c0.3,0.4,0.8,0.7,1.2,0.9c0.5,0.2,1,0.3,1.7,0.3c0.6,0,1.2-0.1,1.7-0.3c0.5-0.2,0.9-0.5,1.2-0.9c0.3-0.4,0.6-0.8,0.8-1.3
			c0.2-0.5,0.3-1.1,0.3-1.7c0-0.6-0.1-1.2-0.3-1.7c-0.2-0.5-0.4-1-0.8-1.3c-0.3-0.4-0.8-0.7-1.2-0.9c-0.5-0.2-1-0.3-1.7-0.3
			c-0.6,0-1.2,0.1-1.7,0.3c-0.5,0.2-0.9,0.5-1.2,0.9c-0.3,0.4-0.6,0.8-0.8,1.3C326.3,100.8,326.2,101.3,326.2,102z"/>
		<path class="st0" d="M342,95.9v13.8c0,0.3,0,0.7-0.1,1.2c0,0.5-0.2,1-0.4,1.4s-0.6,0.9-1.1,1.2c-0.5,0.3-1.2,0.5-2.1,0.5
			c-0.3,0-0.5,0-0.7-0.1c-0.2,0-0.5-0.1-0.7-0.2l0.3-2.1c0.1,0.1,0.3,0.1,0.5,0.1s0.3,0.1,0.5,0.1c0.6,0,1.1-0.2,1.3-0.6
			c0.2-0.4,0.4-1,0.4-1.7V95.9H342z M339.2,91.6c0-0.5,0.2-0.9,0.5-1.2c0.3-0.3,0.7-0.5,1.2-0.5s0.9,0.2,1.2,0.5
			c0.3,0.3,0.5,0.7,0.5,1.2s-0.2,0.9-0.5,1.2c-0.3,0.3-0.7,0.5-1.2,0.5s-0.9-0.2-1.2-0.5C339.3,92.5,339.2,92.1,339.2,91.6z"/>
		<path class="st0" d="M347.4,102.8c0,0.5,0.1,1,0.3,1.4c0.2,0.4,0.5,0.8,0.9,1.1c0.4,0.3,0.8,0.5,1.3,0.7c0.5,0.2,1,0.3,1.5,0.3
			c0.7,0,1.3-0.2,1.9-0.5c0.5-0.3,1-0.8,1.4-1.3l1.7,1.3c-1.3,1.6-3,2.5-5.3,2.5c-0.9,0-1.8-0.2-2.6-0.5c-0.8-0.3-1.4-0.8-2-1.3
			c-0.5-0.6-0.9-1.2-1.2-2c-0.3-0.8-0.4-1.6-0.4-2.5c0-0.9,0.2-1.7,0.5-2.5c0.3-0.8,0.7-1.4,1.3-2s1.2-1,2-1.3
			c0.8-0.3,1.6-0.5,2.5-0.5c1.1,0,2,0.2,2.7,0.6c0.7,0.4,1.3,0.9,1.8,1.5c0.5,0.6,0.8,1.3,1,2c0.2,0.8,0.3,1.5,0.3,2.3v0.8H347.4z
			 M354.6,101c0-0.5-0.1-1-0.2-1.4c-0.1-0.4-0.4-0.8-0.6-1.1c-0.3-0.3-0.6-0.6-1.1-0.7c-0.4-0.2-0.9-0.3-1.5-0.3
			c-0.6,0-1.1,0.1-1.5,0.3c-0.5,0.2-0.9,0.5-1.2,0.8c-0.3,0.3-0.6,0.7-0.8,1.1c-0.2,0.4-0.3,0.8-0.3,1.2H354.6z"/>
		<path class="st0" d="M366.4,97.9h-3.3v5.5c0,0.3,0,0.7,0,1c0,0.3,0.1,0.6,0.2,0.9c0.1,0.3,0.3,0.5,0.5,0.6c0.2,0.2,0.6,0.2,1,0.2
			c0.3,0,0.6,0,0.8-0.1c0.3-0.1,0.5-0.1,0.8-0.3v2.1c-0.3,0.2-0.6,0.3-1.1,0.3c-0.4,0.1-0.8,0.1-1,0.1c-0.9,0-1.6-0.1-2-0.4
			c-0.5-0.2-0.8-0.6-1.1-1c-0.2-0.4-0.4-0.8-0.4-1.3c0-0.5-0.1-1-0.1-1.5v-6.3h-2.6v-2h2.6v-3.4h2.3v3.4h3.3V97.9z"/>
		<path class="st0" d="M375.8,99c-0.3-0.3-0.6-0.6-1-0.9c-0.4-0.2-0.9-0.3-1.5-0.3c-0.5,0-1,0.1-1.4,0.3s-0.6,0.6-0.6,1
			c0,0.4,0.1,0.6,0.3,0.9s0.5,0.4,0.8,0.5c0.3,0.1,0.6,0.2,1,0.3c0.4,0.1,0.7,0.1,0.9,0.2c0.5,0.1,1,0.3,1.4,0.4
			c0.4,0.2,0.8,0.4,1.1,0.7c0.3,0.3,0.6,0.6,0.7,1c0.2,0.4,0.3,0.9,0.3,1.4c0,0.7-0.1,1.3-0.4,1.7s-0.7,0.9-1.1,1.2
			c-0.5,0.3-1,0.5-1.6,0.7c-0.6,0.1-1.2,0.2-1.8,0.2c-1,0-1.9-0.2-2.6-0.5c-0.8-0.3-1.4-0.9-2-1.7l1.7-1.4c0.4,0.4,0.8,0.7,1.2,1
			s1,0.4,1.7,0.4c0.3,0,0.6,0,0.9-0.1c0.3-0.1,0.6-0.2,0.8-0.3c0.2-0.1,0.4-0.3,0.6-0.5c0.1-0.2,0.2-0.4,0.2-0.7
			c0-0.3-0.1-0.6-0.3-0.8c-0.2-0.2-0.5-0.4-0.8-0.5c-0.3-0.1-0.6-0.2-0.9-0.3c-0.3-0.1-0.6-0.1-0.9-0.2c-0.5-0.1-1-0.3-1.4-0.4
			c-0.4-0.2-0.8-0.4-1.2-0.6c-0.3-0.3-0.6-0.6-0.8-1c-0.2-0.4-0.3-0.9-0.3-1.4c0-0.6,0.1-1.2,0.4-1.6c0.3-0.5,0.6-0.9,1-1.2
			c0.4-0.3,0.9-0.5,1.5-0.7c0.6-0.2,1.1-0.2,1.7-0.2c0.8,0,1.6,0.2,2.3,0.5c0.7,0.3,1.3,0.8,1.8,1.5L375.8,99z"/>
	</g>
	<g>
		<g>
			<path class="st1" d="M52.2,40.5c4.1,0,7.3,1.3,9.8,3.8c2.5,2.5,3.7,5.9,3.7,10v24.4H55.1V57.6c0-2-0.6-3.6-1.8-4.9
				c-1.2-1.2-2.7-1.9-4.7-1.9c-2.1,0-3.8,0.6-5.1,1.9c-1.3,1.3-1.9,2.9-1.9,5v21.1H30.9V57.6c0-2-0.6-3.6-1.8-4.9
				c-1.2-1.2-2.8-1.9-4.7-1.9c-2.1,0-3.8,0.6-5.1,1.9c-1.3,1.3-1.9,2.9-1.9,5v21.1H6.7V41.4h10.7v3.9c2.8-3.2,6.3-4.8,10.6-4.8
				c5.4,0,9.4,2.1,11.8,6.4C42.7,42.7,46.9,40.5,52.2,40.5z"/>
			<path class="st1" d="M97.7,41.4h10.7v37.4H97.7v-4.1c-2.7,3.3-6.4,5-10.9,5c-4.2,0-7.5-1.3-10-3.9s-3.8-6-3.8-10.3V41.4h10.7v21
				c0,2.1,0.6,3.8,1.8,5.1c1.2,1.3,2.8,1.9,4.9,1.9c2.1,0,3.9-0.7,5.2-2c1.3-1.3,2-3,2-5.1V41.4z"/>
			<path class="st1" d="M116.9,78.8V26h10.7v52.8H116.9z"/>
			<path class="st1" d="M158.3,41.4v9.7H151v27.7h-10.7V51.2h-6.8v-9.7h6.8v-8.7l10.7-2.4v11H158.3z"/>
			<path class="st0" d="M169.1,36.7C169.1,36.7,169.1,36.7,169.1,36.7c-2.3,0-3.8-1.5-4.3-2c-0.7-0.7-3.2-3.1-5.5-5.4
				c-0.8-0.8-1.6-1.5-2.3-2.2c-1.8-1.8-1.8-4.7,0-6.5l0,0c1.8-1.8,4.6-1.8,6.4,0c0.7,0.7,1.5,1.5,2.3,2.2c1.3,1.2,2.5,2.4,3.5,3.4
				c7.4-7.2,15.8-15.5,23-22.6c1.8-1.8,4.7-1.8,6.5,0l0,0c1.8,1.8,1.8,4.7,0,6.5c-7.9,7.9-17.4,17.2-25.3,24.9
				C172.8,35.3,171.4,36.7,169.1,36.7z"/>
			<path class="st1" d="M201,79.7c-5.8,0-10.6-1.9-14.4-5.6c-3.8-3.8-5.8-8.4-5.8-14s1.9-10.2,5.8-14c3.8-3.7,8.7-5.6,14.4-5.6
				c5.3,0,9.8,1.6,13.5,4.8c3.7,3.2,5.9,7.2,6.5,12.2h-11.2c-0.5-2-1.6-3.5-3.2-4.8c-1.6-1.2-3.4-1.8-5.6-1.8
				c-2.6,0-4.8,0.9-6.6,2.6c-1.7,1.8-2.6,4-2.6,6.6c0,2.6,0.9,4.8,2.6,6.6c1.7,1.8,3.9,2.7,6.6,2.7c2.1,0,4-0.6,5.6-1.8
				c1.6-1.2,2.6-2.8,3.2-4.8h11.2c-0.6,4.9-2.8,9-6.5,12.2C210.7,78.1,206.2,79.7,201,79.7z"/>
			<path class="st1" d="M237.6,46.4c2.9-3.7,6.4-5.6,10.4-5.6v11c-3.3,0-5.9,0.9-7.7,2.6c-1.8,1.7-2.7,4-2.7,7v17.4h-10.7V41.4h10.7
				V46.4z"/>
			<path class="st1" d="M290.7,60.3c0,1.4-0.1,2.5-0.3,3.3h-28.6c0.6,2.1,1.7,3.8,3.3,5c1.6,1.2,3.5,1.8,5.7,1.8
				c1.8,0,3.4-0.4,4.8-1.1c1.4-0.7,2.4-1.6,3.1-2.7H290c-1.4,3.9-3.8,7.1-7.3,9.5c-3.5,2.4-7.5,3.6-12.1,3.6
				c-5.8,0-10.6-1.9-14.4-5.6c-3.8-3.8-5.8-8.4-5.8-14s1.9-10.2,5.8-14c3.8-3.7,8.7-5.6,14.4-5.6c5.7,0,10.5,1.9,14.4,5.6
				C288.8,49.9,290.7,54.6,290.7,60.3z M270.5,49.8c-2.1,0-3.9,0.6-5.4,1.8c-1.5,1.2-2.6,2.8-3.2,4.9h17.3c-0.6-2.1-1.6-3.7-3.2-4.9
				C274.4,50.4,272.6,49.8,270.5,49.8z"/>
			<path class="st1" d="M324.1,26h10.7v52.8h-10.7v-4.1c-3,3.3-6.8,5-11.3,5c-5.1,0-9.4-1.9-12.9-5.6c-3.5-3.8-5.2-8.4-5.2-14
				s1.7-10.2,5.2-14c3.5-3.7,7.7-5.6,12.9-5.6c4.5,0,8.3,1.7,11.3,5V26z M315,69.4c2.6,0,4.8-0.9,6.6-2.7c1.7-1.8,2.6-4,2.6-6.6
				c0-2.6-0.9-4.8-2.6-6.6c-1.7-1.8-3.9-2.6-6.6-2.6c-2.6,0-4.8,0.9-6.5,2.6c-1.7,1.8-2.6,4-2.6,6.6c0,2.6,0.9,4.8,2.6,6.6
				C310.2,68.5,312.4,69.4,315,69.4z"/>
			<path class="st1" d="M343.3,78.8V41.4H354v37.4H343.3z"/>
			<path class="st1" d="M384.7,41.4v9.7h-7.2v27.7h-10.7V51.2h-6.8v-9.7h6.8V34l10.7-3.6v11H384.7z"/>
			<circle class="st0" cx="348.7" cy="31.4" r="5.3"/>
			<rect x="163.8" y="41.4" class="st1" width="10.7" height="37.4"/>
		</g>
	</g>
</g>
</svg>
