<?xml version="1.0" encoding="utf-8"?>
<!-- Generator: Adobe Illustrator 24.0.2, SVG Export Plug-In . SVG Version: 6.00 Build 0)  -->
<svg version="1.1" id="Calque_1" xmlns="http://www.w3.org/2000/svg" xmlns:xlink="http://www.w3.org/1999/xlink" x="0px" y="0px"
	 viewBox="0 0 392.4 117.7" style="enable-background:new 0 0 392.4 117.7;" xml:space="preserve">
<style type="text/css">
	.st0{fill:#004996;}
	.st1{fill:#FF2146;}
</style>
<g>
	<g>
		<g>
			<path class="st0" d="M52.6,41.1c4.1,0,7.3,1.3,9.8,3.8c2.5,2.5,3.7,5.9,3.7,10v24.4H55.4V58.1c0-2-0.6-3.6-1.8-4.9
				C52.5,52,51,51.4,49,51.4c-2.1,0-3.8,0.6-5.1,1.9c-1.3,1.3-1.9,2.9-1.9,5v21.1H31.3V58.1c0-2-0.6-3.6-1.8-4.9
				c-1.2-1.2-2.8-1.9-4.7-1.9c-2.1,0-3.8,0.6-5.1,1.9c-1.3,1.3-1.9,2.9-1.9,5v21.1H7.1V41.9h10.7v3.9c2.8-3.2,6.3-4.8,10.6-4.8
				c5.4,0,9.3,2.1,11.8,6.4C43.1,43.2,47.2,41.1,52.6,41.1z"/>
			<path class="st0" d="M98.1,41.9h10.7v37.4H98.1v-4.1c-2.7,3.3-6.4,5-10.9,5c-4.2,0-7.5-1.3-10-3.8c-2.5-2.6-3.8-6-3.8-10.3V41.9
				h10.7v21c0,2.1,0.6,3.8,1.8,5.1c1.2,1.3,2.8,1.9,4.9,1.9c2.1,0,3.9-0.7,5.2-2c1.3-1.3,2-3,2-5.1V41.9z"/>
			<path class="st0" d="M117.3,79.3V26.5H128v52.8H117.3z"/>
			<path class="st0" d="M158.6,41.9v9.7h-7.2v27.6h-10.7V51.7h-6.8v-9.7h6.8v-8.7l10.7-2.4v11H158.6z"/>
			<path class="st1" d="M169.5,37.2C169.5,37.2,169.5,37.2,169.5,37.2c-2.3,0-3.8-1.5-4.3-2c-0.7-0.7-3.2-3.1-5.5-5.4
				c-0.8-0.8-1.6-1.5-2.3-2.2c-1.8-1.8-1.8-4.7,0-6.5l0,0c1.8-1.7,4.6-1.8,6.4,0c0.7,0.7,1.5,1.5,2.3,2.2c1.3,1.2,2.5,2.4,3.5,3.4
				c7.4-7.2,15.8-15.5,23-22.6c1.8-1.8,4.7-1.8,6.5,0v0c1.8,1.8,1.8,4.7,0,6.5c-7.9,7.9-17.4,17.2-25.3,24.9
				C173.1,35.8,171.7,37.2,169.5,37.2z"/>
			<path class="st0" d="M201.3,80.2c-5.8,0-10.6-1.9-14.4-5.6c-3.8-3.7-5.8-8.4-5.8-14s1.9-10.2,5.8-14c3.8-3.7,8.7-5.6,14.4-5.6
				c5.3,0,9.8,1.6,13.5,4.8c3.7,3.2,5.9,7.2,6.5,12.2h-11.2c-0.5-2-1.6-3.5-3.2-4.8c-1.6-1.2-3.4-1.8-5.6-1.8
				c-2.6,0-4.8,0.9-6.6,2.6c-1.7,1.8-2.6,4-2.6,6.6c0,2.6,0.9,4.8,2.6,6.6c1.7,1.8,3.9,2.6,6.6,2.6c2.1,0,4-0.6,5.6-1.8
				c1.6-1.2,2.6-2.8,3.2-4.8h11.2c-0.6,4.9-2.8,9-6.5,12.2C211.1,78.6,206.6,80.2,201.3,80.2z"/>
			<path class="st0" d="M237.9,46.9c2.9-3.7,6.4-5.6,10.4-5.6v11c-3.3,0-5.9,0.9-7.7,2.6c-1.8,1.7-2.7,4-2.7,7v17.4h-10.7V41.9h10.7
				V46.9z"/>
			<path class="st0" d="M291,60.8c0,1.4-0.1,2.5-0.3,3.3h-28.6c0.6,2.1,1.7,3.8,3.3,5c1.6,1.2,3.5,1.8,5.7,1.8
				c1.8,0,3.4-0.4,4.8-1.1c1.4-0.7,2.4-1.6,3.1-2.7h11.4c-1.4,3.9-3.8,7.1-7.3,9.5c-3.5,2.4-7.5,3.6-12.1,3.6
				c-5.8,0-10.6-1.9-14.4-5.6c-3.8-3.7-5.8-8.4-5.8-14s1.9-10.2,5.8-14c3.8-3.7,8.7-5.6,14.4-5.6c5.7,0,10.5,1.9,14.4,5.6
				C289.1,50.4,291,55.1,291,60.8z M270.8,50.3c-2.1,0-3.9,0.6-5.4,1.8c-1.5,1.2-2.6,2.8-3.2,4.9h17.3c-0.6-2.1-1.6-3.7-3.2-4.9
				C274.7,50.9,272.9,50.3,270.8,50.3z"/>
			<path class="st0" d="M324.4,26.5h10.7v52.8h-10.7v-4.1c-3,3.3-6.8,5-11.3,5c-5.1,0-9.4-1.9-12.9-5.6c-3.5-3.7-5.2-8.4-5.2-14
				s1.7-10.2,5.2-14c3.5-3.7,7.7-5.6,12.9-5.6c4.5,0,8.3,1.7,11.3,5V26.5z M315.2,69.9c2.6,0,4.8-0.9,6.6-2.6c1.7-1.8,2.6-4,2.6-6.6
				c0-2.6-0.9-4.8-2.6-6.6c-1.7-1.8-3.9-2.6-6.6-2.6c-2.6,0-4.8,0.9-6.5,2.6c-1.7,1.8-2.6,4-2.6,6.6c0,2.6,0.9,4.8,2.6,6.6
				C310.5,69,312.6,69.9,315.2,69.9z"/>
			<path class="st0" d="M343.6,79.3V41.9h10.7v37.4H343.6z"/>
			<path class="st0" d="M384.9,41.9v9.7h-7.2v27.6H367V51.7h-6.8v-9.7h6.8v-7.5l10.7-3.6v11H384.9z"/>
			<circle class="st1" cx="349" cy="31.9" r="5.3"/>
			<rect x="164.1" y="41.9" class="st0" width="10.7" height="37.4"/>
		</g>
	</g>
	<g>
		<path class="st1" d="M106.3,98.4h-2.6v-2h2.6v-2.7c0-1.6,0.3-2.8,0.9-3.6c0.6-0.8,1.7-1.2,3.2-1.2c0.3,0,0.5,0,0.8,0
			c0.3,0,0.6,0.1,0.9,0.2l-0.3,2c-0.2-0.1-0.4-0.1-0.6-0.2c-0.2,0-0.4-0.1-0.7-0.1c-0.4,0-0.8,0.1-1,0.2c-0.3,0.1-0.5,0.3-0.6,0.5
			c-0.1,0.2-0.2,0.5-0.3,0.9c0,0.3-0.1,0.7-0.1,1.1v2.8h2.7v2h-2.8v10.1h-2.3V98.4z"/>
		<path class="st1" d="M113.5,92.1c0-0.5,0.2-0.9,0.5-1.2c0.3-0.3,0.7-0.5,1.2-0.5c0.5,0,0.9,0.2,1.2,0.5c0.3,0.3,0.5,0.7,0.5,1.2
			c0,0.5-0.2,0.9-0.5,1.2c-0.3,0.3-0.7,0.5-1.2,0.5c-0.5,0-0.9-0.2-1.2-0.5C113.7,93,113.5,92.6,113.5,92.1z M114,96.5h2.3v12.1H114
			V96.5z"/>
		<path class="st1" d="M120,96.5h2.3v1.9h0.1c0.3-0.6,0.8-1.2,1.5-1.6c0.7-0.4,1.5-0.6,2.5-0.6c0.6,0,1.1,0.1,1.7,0.3
			c0.5,0.2,1,0.5,1.4,0.8c0.4,0.4,0.7,0.9,1,1.4c0.2,0.6,0.4,1.3,0.4,2.1v7.8h-2.3v-7.2c0-0.6-0.1-1-0.2-1.4c-0.2-0.4-0.4-0.7-0.6-1
			c-0.3-0.2-0.5-0.4-0.9-0.5c-0.3-0.1-0.7-0.2-1-0.2c-0.5,0-0.9,0.1-1.3,0.2c-0.4,0.2-0.8,0.4-1.1,0.7c-0.3,0.3-0.5,0.8-0.7,1.3
			c-0.2,0.5-0.3,1.1-0.3,1.8v6.2H120V96.5z"/>
		<path class="st1" d="M134.3,97.9c0.6-0.6,1.4-1,2.2-1.3c0.9-0.3,1.7-0.4,2.6-0.4c0.9,0,1.6,0.1,2.3,0.3c0.6,0.2,1.2,0.5,1.6,0.9
			c0.4,0.4,0.7,0.8,0.9,1.3c0.2,0.5,0.3,1,0.3,1.5v6.2c0,0.4,0,0.8,0,1.2c0,0.4,0,0.7,0.1,1h-2c-0.1-0.6-0.1-1.2-0.1-1.8H142
			c-0.5,0.8-1.1,1.3-1.8,1.7c-0.7,0.3-1.5,0.5-2.4,0.5c-0.6,0-1.1-0.1-1.6-0.2c-0.5-0.2-1-0.4-1.3-0.7c-0.4-0.3-0.7-0.7-0.9-1.1
			c-0.2-0.5-0.3-1-0.3-1.6c0-0.8,0.2-1.4,0.5-2c0.3-0.5,0.8-1,1.4-1.3c0.6-0.3,1.3-0.6,2.1-0.7c0.8-0.1,1.7-0.2,2.6-0.2h1.7v-0.5
			c0-0.3-0.1-0.6-0.2-0.9c-0.1-0.3-0.3-0.6-0.5-0.8c-0.2-0.2-0.5-0.4-0.9-0.6c-0.4-0.1-0.8-0.2-1.3-0.2c-0.4,0-0.8,0-1.2,0.1
			s-0.6,0.2-0.9,0.3c-0.3,0.1-0.5,0.3-0.7,0.4c-0.2,0.2-0.4,0.3-0.6,0.5L134.3,97.9z M140.7,102.7c-0.5,0-1.1,0-1.7,0.1
			c-0.6,0.1-1.1,0.2-1.6,0.3c-0.5,0.2-0.9,0.4-1.1,0.7c-0.3,0.3-0.4,0.7-0.4,1.2c0,0.7,0.2,1.2,0.7,1.5c0.5,0.3,1.1,0.5,1.9,0.5
			c0.6,0,1.2-0.1,1.6-0.3c0.4-0.2,0.8-0.5,1.1-0.8c0.3-0.3,0.5-0.7,0.6-1.1c0.1-0.4,0.2-0.8,0.2-1.2v-0.8H140.7z"/>
		<path class="st1" d="M147.5,96.5h2.3v1.9h0.1c0.3-0.6,0.8-1.2,1.5-1.6c0.7-0.4,1.5-0.6,2.5-0.6c0.6,0,1.1,0.1,1.7,0.3
			c0.5,0.2,1,0.5,1.4,0.8c0.4,0.4,0.7,0.9,1,1.4c0.2,0.6,0.4,1.3,0.4,2.1v7.8h-2.3v-7.2c0-0.6-0.1-1-0.2-1.4c-0.2-0.4-0.4-0.7-0.6-1
			c-0.3-0.2-0.5-0.4-0.9-0.5c-0.3-0.1-0.7-0.2-1-0.2c-0.5,0-0.9,0.1-1.3,0.2c-0.4,0.2-0.8,0.4-1.1,0.7c-0.3,0.3-0.5,0.8-0.7,1.3
			c-0.2,0.5-0.3,1.1-0.3,1.8v6.2h-2.3V96.5z"/>
		<path class="st1" d="M170.3,99.7c-0.4-0.4-0.9-0.8-1.3-1c-0.5-0.2-1-0.3-1.7-0.3c-0.6,0-1.2,0.1-1.6,0.3c-0.5,0.2-0.9,0.5-1.2,0.9
			c-0.3,0.4-0.6,0.9-0.7,1.4c-0.2,0.5-0.2,1.1-0.2,1.6c0,0.6,0.1,1.1,0.3,1.6c0.2,0.5,0.5,0.9,0.8,1.3c0.3,0.4,0.7,0.7,1.2,0.9
			c0.5,0.2,1,0.3,1.6,0.3c0.6,0,1.2-0.1,1.7-0.3c0.5-0.2,0.9-0.6,1.3-1l1.6,1.6c-0.6,0.7-1.3,1.1-2.1,1.4c-0.8,0.3-1.6,0.4-2.5,0.4
			c-0.9,0-1.8-0.2-2.6-0.5c-0.8-0.3-1.4-0.7-2-1.3c-0.6-0.6-1-1.2-1.3-2c-0.3-0.8-0.5-1.6-0.5-2.6c0-0.9,0.2-1.8,0.5-2.6
			c0.3-0.8,0.7-1.5,1.3-2c0.6-0.6,1.2-1,2-1.3c0.8-0.3,1.6-0.5,2.6-0.5c0.9,0,1.7,0.2,2.5,0.5c0.8,0.3,1.5,0.8,2.1,1.4L170.3,99.7z"
			/>
		<path class="st1" d="M173.4,102.5c0-0.9,0.2-1.7,0.5-2.5c0.3-0.8,0.8-1.4,1.4-2c0.6-0.6,1.3-1,2-1.4c0.8-0.3,1.6-0.5,2.5-0.5
			c0.9,0,1.7,0.2,2.5,0.5c0.8,0.3,1.5,0.8,2,1.4c0.6,0.6,1,1.3,1.4,2c0.3,0.8,0.5,1.6,0.5,2.5c0,0.9-0.2,1.7-0.5,2.5
			c-0.3,0.8-0.8,1.4-1.4,2c-0.6,0.6-1.3,1-2,1.4c-0.8,0.3-1.6,0.5-2.5,0.5c-0.9,0-1.7-0.2-2.5-0.5c-0.8-0.3-1.5-0.8-2-1.4
			c-0.6-0.6-1-1.2-1.4-2C173.6,104.2,173.4,103.4,173.4,102.5z M175.9,102.5c0,0.6,0.1,1.2,0.3,1.7c0.2,0.5,0.5,1,0.8,1.3
			c0.3,0.4,0.8,0.7,1.3,0.9c0.5,0.2,1,0.3,1.7,0.3c0.6,0,1.2-0.1,1.7-0.3c0.5-0.2,0.9-0.5,1.3-0.9c0.3-0.4,0.6-0.8,0.8-1.3
			c0.2-0.5,0.3-1.1,0.3-1.7c0-0.6-0.1-1.2-0.3-1.7c-0.2-0.5-0.5-1-0.8-1.3c-0.3-0.4-0.8-0.7-1.3-0.9c-0.5-0.2-1-0.3-1.7-0.3
			c-0.6,0-1.2,0.1-1.7,0.3c-0.5,0.2-0.9,0.5-1.3,0.9c-0.3,0.4-0.6,0.8-0.8,1.3C175.9,101.3,175.9,101.9,175.9,102.5z"/>
		<path class="st1" d="M189.2,96.5h2.3v1.9h0.1c0.3-0.6,0.8-1.2,1.5-1.6c0.7-0.4,1.5-0.6,2.5-0.6c0.6,0,1.1,0.1,1.7,0.3
			c0.5,0.2,1,0.5,1.4,0.8c0.4,0.4,0.7,0.9,1,1.4c0.2,0.6,0.4,1.3,0.4,2.1v7.8h-2.3v-7.2c0-0.6-0.1-1-0.2-1.4c-0.2-0.4-0.4-0.7-0.6-1
			c-0.3-0.2-0.5-0.4-0.9-0.5c-0.3-0.1-0.7-0.2-1-0.2c-0.5,0-0.9,0.1-1.3,0.2c-0.4,0.2-0.8,0.4-1.1,0.7c-0.3,0.3-0.5,0.8-0.7,1.3
			c-0.2,0.5-0.3,1.1-0.3,1.8v6.2h-2.3V96.5z"/>
		<path class="st1" d="M210.5,96.5h2.3v1.7h0.1c0.4-0.6,1.1-1.1,1.8-1.5c0.8-0.4,1.6-0.5,2.4-0.5c0.9,0,1.8,0.2,2.5,0.5
			c0.8,0.3,1.4,0.8,1.9,1.4c0.5,0.6,0.9,1.3,1.2,2c0.3,0.8,0.4,1.6,0.4,2.5c0,0.9-0.1,1.7-0.4,2.5c-0.3,0.8-0.7,1.4-1.2,2
			c-0.5,0.6-1.2,1-1.9,1.3c-0.8,0.3-1.6,0.5-2.5,0.5c-0.9,0-1.7-0.2-2.5-0.5c-0.8-0.4-1.4-0.9-1.8-1.5h-0.1v8.9h-2.3V96.5z
			 M216.8,98.3c-0.6,0-1.2,0.1-1.7,0.3c-0.5,0.2-0.9,0.5-1.3,0.9c-0.3,0.4-0.6,0.8-0.8,1.3c-0.2,0.5-0.3,1.1-0.3,1.7
			c0,0.6,0.1,1.2,0.3,1.7c0.2,0.5,0.5,1,0.8,1.3c0.3,0.4,0.8,0.7,1.3,0.9c0.5,0.2,1,0.3,1.7,0.3c0.6,0,1.2-0.1,1.7-0.3
			c0.5-0.2,0.9-0.5,1.3-0.9c0.3-0.4,0.6-0.8,0.8-1.3c0.2-0.5,0.3-1.1,0.3-1.7c0-0.6-0.1-1.2-0.3-1.7c-0.2-0.5-0.5-1-0.8-1.3
			c-0.3-0.4-0.8-0.7-1.3-0.9C217.9,98.4,217.4,98.3,216.8,98.3z"/>
		<path class="st1" d="M226.1,96.5h2.3v1.9h0.1c0.2-0.3,0.4-0.6,0.6-0.9c0.3-0.3,0.5-0.5,0.9-0.7c0.3-0.2,0.7-0.3,1-0.4
			c0.4-0.1,0.7-0.2,1.1-0.2c0.4,0,0.7,0.1,1,0.2l-0.1,2.5c-0.2-0.1-0.4-0.1-0.6-0.1c-0.2,0-0.4-0.1-0.6-0.1c-1.1,0-2,0.3-2.6,0.9
			c-0.6,0.6-0.9,1.6-0.9,2.9v6.1h-2.3V96.5z"/>
		<path class="st1" d="M234.5,102.5c0-0.9,0.2-1.7,0.5-2.5c0.3-0.8,0.8-1.4,1.4-2c0.6-0.6,1.3-1,2-1.4c0.8-0.3,1.6-0.5,2.5-0.5
			c0.9,0,1.7,0.2,2.5,0.5c0.8,0.3,1.5,0.8,2,1.4c0.6,0.6,1,1.3,1.4,2c0.3,0.8,0.5,1.6,0.5,2.5c0,0.9-0.2,1.7-0.5,2.5
			c-0.3,0.8-0.8,1.4-1.4,2c-0.6,0.6-1.3,1-2,1.4c-0.8,0.3-1.6,0.5-2.5,0.5c-0.9,0-1.7-0.2-2.5-0.5c-0.8-0.3-1.5-0.8-2-1.4
			c-0.6-0.6-1-1.2-1.4-2C234.7,104.2,234.5,103.4,234.5,102.5z M236.9,102.5c0,0.6,0.1,1.2,0.3,1.7c0.2,0.5,0.5,1,0.8,1.3
			c0.3,0.4,0.8,0.7,1.3,0.9c0.5,0.2,1,0.3,1.7,0.3c0.6,0,1.2-0.1,1.7-0.3c0.5-0.2,0.9-0.5,1.3-0.9c0.3-0.4,0.6-0.8,0.8-1.3
			c0.2-0.5,0.3-1.1,0.3-1.7c0-0.6-0.1-1.2-0.3-1.7s-0.5-1-0.8-1.3c-0.3-0.4-0.8-0.7-1.3-0.9c-0.5-0.2-1-0.3-1.7-0.3
			c-0.6,0-1.2,0.1-1.7,0.3c-0.5,0.2-0.9,0.5-1.3,0.9c-0.3,0.4-0.6,0.8-0.8,1.3C237,101.3,236.9,101.9,236.9,102.5z"/>
		<path class="st1" d="M252.7,96.5v13.8c0,0.3,0,0.7-0.1,1.2c0,0.5-0.2,1-0.4,1.5c-0.2,0.5-0.6,0.9-1.1,1.2
			c-0.5,0.3-1.2,0.5-2.1,0.5c-0.3,0-0.5,0-0.8-0.1c-0.2,0-0.5-0.1-0.7-0.2l0.3-2.1c0.1,0.1,0.3,0.1,0.5,0.1c0.2,0,0.3,0.1,0.5,0.1
			c0.6,0,1.1-0.2,1.3-0.6c0.2-0.4,0.4-1,0.4-1.7V96.5H252.7z M249.9,92.1c0-0.5,0.2-0.9,0.5-1.2c0.3-0.3,0.7-0.5,1.2-0.5
			c0.5,0,0.9,0.2,1.2,0.5c0.3,0.3,0.5,0.7,0.5,1.2c0,0.5-0.2,0.9-0.5,1.2c-0.3,0.3-0.7,0.5-1.2,0.5c-0.5,0-0.9-0.2-1.2-0.5
			C250.1,93,249.9,92.6,249.9,92.1z"/>
		<path class="st1" d="M258.1,103.4c0,0.5,0.1,1,0.3,1.4c0.2,0.4,0.5,0.8,0.9,1.1c0.4,0.3,0.8,0.5,1.3,0.7c0.5,0.2,1,0.3,1.5,0.3
			c0.7,0,1.3-0.2,1.9-0.5c0.5-0.3,1-0.8,1.5-1.3l1.7,1.3c-1.3,1.7-3.1,2.5-5.4,2.5c-1,0-1.8-0.2-2.6-0.5c-0.8-0.3-1.4-0.8-2-1.3
			c-0.5-0.6-0.9-1.2-1.2-2c-0.3-0.8-0.4-1.6-0.4-2.5c0-0.9,0.2-1.7,0.5-2.5c0.3-0.8,0.7-1.4,1.3-2c0.6-0.6,1.2-1,2-1.3
			c0.8-0.3,1.6-0.5,2.5-0.5c1.1,0,2,0.2,2.7,0.6c0.7,0.4,1.3,0.9,1.8,1.5c0.5,0.6,0.8,1.3,1,2c0.2,0.8,0.3,1.5,0.3,2.3v0.8H258.1z
			 M265.4,101.5c0-0.5-0.1-1-0.2-1.4c-0.1-0.4-0.4-0.8-0.7-1.1s-0.7-0.6-1.1-0.7c-0.4-0.2-0.9-0.3-1.5-0.3c-0.6,0-1.1,0.1-1.5,0.3
			c-0.5,0.2-0.9,0.5-1.2,0.8s-0.6,0.7-0.8,1.1c-0.2,0.4-0.3,0.8-0.3,1.2H265.4z"/>
		<path class="st1" d="M270.6,89.2h2.3v12.5l5.2-5.2h3.2l-5.6,5.5l6.1,6.6h-3.3l-5.6-6.3v6.3h-2.3V89.2z"/>
		<path class="st1" d="M290.3,98.4H287v5.5c0,0.3,0,0.7,0,1c0,0.3,0.1,0.6,0.2,0.9c0.1,0.3,0.3,0.5,0.5,0.6c0.2,0.2,0.6,0.2,1,0.2
			c0.3,0,0.6,0,0.8-0.1c0.3-0.1,0.6-0.1,0.8-0.3v2.1c-0.3,0.2-0.6,0.3-1.1,0.3c-0.4,0.1-0.8,0.1-1,0.1c-0.9,0-1.6-0.1-2.1-0.4
			s-0.8-0.6-1.1-1c-0.2-0.4-0.4-0.8-0.4-1.3c0-0.5-0.1-1-0.1-1.5v-6.3h-2.7v-2h2.7v-3.4h2.3v3.4h3.3V98.4z"/>
		<path class="st1" d="M295,103.4c0,0.5,0.1,1,0.3,1.4c0.2,0.4,0.5,0.8,0.9,1.1c0.4,0.3,0.8,0.5,1.3,0.7c0.5,0.2,1,0.3,1.5,0.3
			c0.7,0,1.3-0.2,1.9-0.5c0.5-0.3,1-0.8,1.5-1.3l1.7,1.3c-1.3,1.7-3.1,2.5-5.4,2.5c-1,0-1.8-0.2-2.6-0.5c-0.8-0.3-1.4-0.8-2-1.3
			c-0.5-0.6-0.9-1.2-1.2-2c-0.3-0.8-0.4-1.6-0.4-2.5c0-0.9,0.2-1.7,0.5-2.5c0.3-0.8,0.7-1.4,1.3-2c0.6-0.6,1.2-1,2-1.3
			c0.8-0.3,1.6-0.5,2.5-0.5c1.1,0,2,0.2,2.7,0.6c0.7,0.4,1.3,0.9,1.8,1.5c0.5,0.6,0.8,1.3,1,2c0.2,0.8,0.3,1.5,0.3,2.3v0.8H295z
			 M302.3,101.5c0-0.5-0.1-1-0.2-1.4c-0.1-0.4-0.4-0.8-0.7-1.1c-0.3-0.3-0.7-0.6-1.1-0.7c-0.4-0.2-0.9-0.3-1.5-0.3
			c-0.6,0-1.1,0.1-1.5,0.3c-0.5,0.2-0.9,0.5-1.2,0.8s-0.6,0.7-0.8,1.1c-0.2,0.4-0.3,0.8-0.3,1.2H302.3z"/>
		<path class="st1" d="M314,98.4h-3.3v5.5c0,0.3,0,0.7,0,1s0.1,0.6,0.2,0.9c0.1,0.3,0.3,0.5,0.5,0.6c0.2,0.2,0.6,0.2,1,0.2
			c0.3,0,0.6,0,0.8-0.1c0.3-0.1,0.6-0.1,0.8-0.3v2.1c-0.3,0.2-0.6,0.3-1.1,0.3c-0.4,0.1-0.8,0.1-1,0.1c-0.9,0-1.6-0.1-2.1-0.4
			s-0.8-0.6-1.1-1c-0.2-0.4-0.4-0.8-0.4-1.3c0-0.5-0.1-1-0.1-1.5v-6.3h-2.7v-2h2.7v-3.4h2.3v3.4h3.3V98.4z"/>
		<path class="st1" d="M330.6,98.4h-3.3v5.5c0,0.3,0,0.7,0,1s0.1,0.6,0.2,0.9c0.1,0.3,0.3,0.5,0.5,0.6c0.2,0.2,0.6,0.2,1,0.2
			c0.3,0,0.6,0,0.8-0.1c0.3-0.1,0.6-0.1,0.8-0.3v2.1c-0.3,0.2-0.6,0.3-1.1,0.3c-0.4,0.1-0.8,0.1-1,0.1c-0.9,0-1.6-0.1-2.1-0.4
			s-0.8-0.6-1.1-1c-0.2-0.4-0.4-0.8-0.4-1.3c0-0.5-0.1-1-0.1-1.5v-6.3h-2.7v-2h2.7v-3.4h2.3v3.4h3.3V98.4z"/>
		<path class="st1" d="M344.3,108.6H342v-1.9h-0.1c-0.3,0.6-0.8,1.2-1.5,1.6c-0.7,0.4-1.5,0.6-2.5,0.6c-0.6,0-1.2-0.1-1.7-0.3
			c-0.5-0.2-1-0.5-1.4-0.8c-0.4-0.4-0.7-0.9-1-1.4c-0.2-0.6-0.4-1.3-0.4-2.1v-7.8h2.3v7.2c0,0.6,0.1,1,0.2,1.4s0.4,0.7,0.6,1
			c0.3,0.2,0.5,0.4,0.9,0.5c0.3,0.1,0.7,0.2,1,0.2c0.5,0,0.9-0.1,1.3-0.2c0.4-0.2,0.8-0.4,1.1-0.7c0.3-0.3,0.5-0.8,0.7-1.3
			c0.2-0.5,0.3-1.1,0.3-1.8v-6.2h2.3V108.6z"/>
		<path class="st1" d="M347.8,97.9c0.6-0.6,1.4-1,2.2-1.3c0.9-0.3,1.7-0.4,2.6-0.4c0.9,0,1.6,0.1,2.3,0.3c0.6,0.2,1.2,0.5,1.6,0.9
			c0.4,0.4,0.7,0.8,0.9,1.3c0.2,0.5,0.3,1,0.3,1.5v6.2c0,0.4,0,0.8,0,1.2c0,0.4,0,0.7,0.1,1h-2c-0.1-0.6-0.1-1.2-0.1-1.8h-0.1
			c-0.5,0.8-1.1,1.3-1.8,1.7c-0.7,0.3-1.5,0.5-2.4,0.5c-0.6,0-1.1-0.1-1.6-0.2c-0.5-0.2-1-0.4-1.3-0.7c-0.4-0.3-0.7-0.7-0.9-1.1
			c-0.2-0.5-0.3-1-0.3-1.6c0-0.8,0.2-1.4,0.5-2c0.3-0.5,0.8-1,1.4-1.3c0.6-0.3,1.3-0.6,2.1-0.7c0.8-0.1,1.7-0.2,2.6-0.2h1.7v-0.5
			c0-0.3-0.1-0.6-0.2-0.9c-0.1-0.3-0.3-0.6-0.5-0.8c-0.2-0.2-0.5-0.4-0.9-0.6c-0.4-0.1-0.8-0.2-1.3-0.2c-0.4,0-0.8,0-1.2,0.1
			c-0.3,0.1-0.6,0.2-0.9,0.3c-0.3,0.1-0.5,0.3-0.7,0.4c-0.2,0.2-0.4,0.3-0.6,0.5L347.8,97.9z M354.3,102.7c-0.5,0-1.1,0-1.7,0.1
			c-0.6,0.1-1.1,0.2-1.6,0.3c-0.5,0.2-0.9,0.4-1.1,0.7c-0.3,0.3-0.4,0.7-0.4,1.2c0,0.7,0.2,1.2,0.7,1.5s1.1,0.5,1.9,0.5
			c0.6,0,1.2-0.1,1.6-0.3c0.4-0.2,0.8-0.5,1.1-0.8c0.3-0.3,0.5-0.7,0.6-1.1c0.1-0.4,0.2-0.8,0.2-1.2v-0.8H354.3z"/>
		<path class="st1" d="M363.5,96.5v13.8c0,0.3,0,0.7-0.1,1.2c0,0.5-0.2,1-0.4,1.5c-0.2,0.5-0.6,0.9-1.1,1.2
			c-0.5,0.3-1.2,0.5-2.1,0.5c-0.3,0-0.5,0-0.8-0.1c-0.2,0-0.5-0.1-0.7-0.2l0.3-2.1c0.1,0.1,0.3,0.1,0.5,0.1c0.2,0,0.3,0.1,0.5,0.1
			c0.6,0,1.1-0.2,1.3-0.6c0.2-0.4,0.4-1,0.4-1.7V96.5H363.5z M360.6,92.1c0-0.5,0.2-0.9,0.5-1.2c0.3-0.3,0.7-0.5,1.2-0.5
			c0.5,0,0.9,0.2,1.2,0.5c0.3,0.3,0.5,0.7,0.5,1.2c0,0.5-0.2,0.9-0.5,1.2c-0.3,0.3-0.7,0.5-1.2,0.5c-0.5,0-0.9-0.2-1.2-0.5
			C360.8,93,360.6,92.6,360.6,92.1z"/>
		<path class="st1" d="M367.2,97.9c0.6-0.6,1.4-1,2.2-1.3c0.9-0.3,1.7-0.4,2.6-0.4c0.9,0,1.6,0.1,2.3,0.3c0.6,0.2,1.2,0.5,1.6,0.9
			c0.4,0.4,0.7,0.8,0.9,1.3c0.2,0.5,0.3,1,0.3,1.5v6.2c0,0.4,0,0.8,0,1.2c0,0.4,0,0.7,0.1,1h-2c-0.1-0.6-0.1-1.2-0.1-1.8H375
			c-0.5,0.8-1.1,1.3-1.8,1.7c-0.7,0.3-1.5,0.5-2.4,0.5c-0.6,0-1.1-0.1-1.6-0.2c-0.5-0.2-1-0.4-1.3-0.7c-0.4-0.3-0.7-0.7-0.9-1.1
			c-0.2-0.5-0.3-1-0.3-1.6c0-0.8,0.2-1.4,0.5-2c0.3-0.5,0.8-1,1.4-1.3c0.6-0.3,1.3-0.6,2.1-0.7c0.8-0.1,1.7-0.2,2.6-0.2h1.7v-0.5
			c0-0.3-0.1-0.6-0.2-0.9c-0.1-0.3-0.3-0.6-0.5-0.8c-0.2-0.2-0.5-0.4-0.9-0.6c-0.4-0.1-0.8-0.2-1.3-0.2c-0.4,0-0.8,0-1.2,0.1
			s-0.6,0.2-0.9,0.3c-0.3,0.1-0.5,0.3-0.7,0.4c-0.2,0.2-0.4,0.3-0.6,0.5L367.2,97.9z M373.7,102.7c-0.5,0-1.1,0-1.7,0.1
			c-0.6,0.1-1.1,0.2-1.6,0.3c-0.5,0.2-0.9,0.4-1.1,0.7c-0.3,0.3-0.4,0.7-0.4,1.2c0,0.7,0.2,1.2,0.7,1.5s1.1,0.5,1.9,0.5
			c0.6,0,1.2-0.1,1.6-0.3c0.4-0.2,0.8-0.5,1.1-0.8c0.3-0.3,0.5-0.7,0.6-1.1c0.1-0.4,0.2-0.8,0.2-1.2v-0.8H373.7z"/>
	</g>
</g>
</svg>
