<?xml version="1.0" encoding="utf-8"?>
<!-- Generator: Adobe Illustrator 24.0.2, SVG Export Plug-In . SVG Version: 6.00 Build 0)  -->
<svg version="1.1" id="Calque_1" xmlns="http://www.w3.org/2000/svg" xmlns:xlink="http://www.w3.org/1999/xlink" x="0px" y="0px"
	 viewBox="0 0 392.4 117.7" style="enable-background:new 0 0 392.4 117.7;" xml:space="preserve">
<style type="text/css">
	.st0{fill:#FF2146;}
	.st1{fill:#004996;}
</style>
<g>
	<path class="st0" d="M164.6,98.7H162v-2h2.6V94c0-1.6,0.3-2.8,0.9-3.6c0.6-0.8,1.7-1.2,3.2-1.2c0.3,0,0.5,0,0.8,0
		c0.3,0,0.6,0.1,0.9,0.2l-0.3,2c-0.2-0.1-0.4-0.1-0.6-0.2c-0.2,0-0.4-0.1-0.7-0.1c-0.4,0-0.8,0.1-1,0.2c-0.3,0.1-0.5,0.3-0.6,0.5
		s-0.2,0.5-0.3,0.9c0,0.3-0.1,0.7-0.1,1.1v2.8h2.7v2h-2.8v10.1h-2.3V98.7z"/>
	<path class="st0" d="M171.9,92.4c0-0.5,0.2-0.9,0.5-1.2c0.3-0.3,0.7-0.5,1.2-0.5s0.9,0.2,1.2,0.5c0.3,0.3,0.5,0.7,0.5,1.2
		s-0.2,0.9-0.5,1.2c-0.3,0.3-0.7,0.5-1.2,0.5s-0.9-0.2-1.2-0.5C172.1,93.2,171.9,92.8,171.9,92.4z M172.5,96.7h2.3v12.1h-2.3V96.7z"
		/>
	<path class="st0" d="M178.5,96.7h2.3v1.9h0.1c0.3-0.6,0.8-1.2,1.5-1.6s1.5-0.6,2.5-0.6c0.6,0,1.1,0.1,1.7,0.3
		c0.5,0.2,1,0.5,1.4,0.8c0.4,0.4,0.7,0.9,1,1.4c0.2,0.6,0.4,1.3,0.4,2.1v7.8h-2.3v-7.1c0-0.6-0.1-1-0.2-1.4c-0.2-0.4-0.4-0.7-0.6-1
		c-0.3-0.2-0.5-0.4-0.9-0.5c-0.3-0.1-0.7-0.2-1-0.2c-0.5,0-0.9,0.1-1.3,0.2s-0.8,0.4-1.1,0.7c-0.3,0.3-0.5,0.8-0.7,1.3
		c-0.2,0.5-0.3,1.1-0.3,1.8v6.2h-2.3V96.7z"/>
	<path class="st0" d="M192.8,98.2c0.6-0.6,1.4-1,2.2-1.3c0.8-0.3,1.7-0.4,2.5-0.4c0.9,0,1.6,0.1,2.3,0.3s1.2,0.5,1.6,0.9
		c0.4,0.4,0.7,0.8,0.9,1.3c0.2,0.5,0.3,1,0.3,1.5v6.2c0,0.4,0,0.8,0,1.2c0,0.4,0,0.7,0.1,1h-2c-0.1-0.6-0.1-1.2-0.1-1.8h-0.1
		c-0.5,0.8-1.1,1.3-1.8,1.7c-0.7,0.3-1.5,0.5-2.4,0.5c-0.6,0-1.1-0.1-1.6-0.2c-0.5-0.2-1-0.4-1.3-0.7c-0.4-0.3-0.7-0.7-0.9-1.1
		c-0.2-0.5-0.3-1-0.3-1.6c0-0.8,0.2-1.4,0.5-2s0.8-1,1.4-1.3c0.6-0.3,1.3-0.6,2.1-0.7s1.7-0.2,2.6-0.2h1.7v-0.5
		c0-0.3-0.1-0.6-0.2-0.9c-0.1-0.3-0.3-0.6-0.5-0.8c-0.2-0.2-0.5-0.4-0.9-0.6c-0.4-0.1-0.8-0.2-1.3-0.2c-0.4,0-0.8,0-1.2,0.1
		c-0.3,0.1-0.6,0.2-0.9,0.3c-0.3,0.1-0.5,0.3-0.7,0.4c-0.2,0.2-0.4,0.3-0.6,0.5L192.8,98.2z M199.3,103c-0.5,0-1.1,0-1.7,0.1
		s-1.1,0.2-1.6,0.3c-0.5,0.2-0.9,0.4-1.1,0.7c-0.3,0.3-0.4,0.7-0.4,1.2c0,0.7,0.2,1.2,0.7,1.5c0.5,0.3,1.1,0.5,1.9,0.5
		c0.6,0,1.2-0.1,1.6-0.3c0.4-0.2,0.8-0.5,1.1-0.8c0.3-0.3,0.5-0.7,0.6-1.1c0.1-0.4,0.2-0.8,0.2-1.2V103H199.3z"/>
	<path class="st0" d="M206.1,96.7h2.3v1.9h0.1c0.3-0.6,0.8-1.2,1.5-1.6c0.7-0.4,1.5-0.6,2.5-0.6c0.6,0,1.1,0.1,1.7,0.3
		c0.5,0.2,1,0.5,1.4,0.8c0.4,0.4,0.7,0.9,1,1.4c0.2,0.6,0.4,1.3,0.4,2.1v7.8h-2.3v-7.1c0-0.6-0.1-1-0.2-1.4c-0.2-0.4-0.4-0.7-0.6-1
		c-0.3-0.2-0.5-0.4-0.9-0.5s-0.7-0.2-1-0.2c-0.5,0-0.9,0.1-1.3,0.2c-0.4,0.2-0.8,0.4-1.1,0.7c-0.3,0.3-0.5,0.8-0.7,1.3
		c-0.2,0.5-0.3,1.1-0.3,1.8v6.2h-2.3V96.7z"/>
	<path class="st0" d="M229,99.9c-0.4-0.4-0.9-0.8-1.3-1c-0.5-0.2-1-0.3-1.7-0.3c-0.6,0-1.2,0.1-1.6,0.3s-0.9,0.5-1.2,0.9
		s-0.6,0.9-0.7,1.4c-0.2,0.5-0.2,1.1-0.2,1.6c0,0.6,0.1,1.1,0.3,1.6c0.2,0.5,0.5,0.9,0.8,1.3c0.3,0.4,0.7,0.7,1.2,0.9
		c0.5,0.2,1,0.3,1.6,0.3c0.6,0,1.2-0.1,1.7-0.3s0.9-0.6,1.3-1l1.6,1.6c-0.6,0.7-1.3,1.1-2.1,1.4c-0.8,0.3-1.6,0.4-2.5,0.4
		c-0.9,0-1.8-0.2-2.6-0.5c-0.8-0.3-1.4-0.7-2-1.3c-0.6-0.6-1-1.2-1.3-2s-0.5-1.6-0.5-2.6s0.2-1.8,0.5-2.6c0.3-0.8,0.7-1.5,1.3-2
		c0.6-0.6,1.2-1,2-1.3s1.6-0.5,2.6-0.5c0.9,0,1.7,0.2,2.5,0.5s1.5,0.8,2.1,1.4L229,99.9z"/>
	<path class="st0" d="M234.4,103.6c0,0.5,0.1,1,0.3,1.4c0.2,0.4,0.5,0.8,0.9,1.1c0.4,0.3,0.8,0.5,1.3,0.7c0.5,0.2,1,0.3,1.5,0.3
		c0.7,0,1.3-0.2,1.9-0.5c0.5-0.3,1-0.8,1.5-1.3l1.7,1.3c-1.3,1.6-3.1,2.5-5.4,2.5c-1,0-1.8-0.2-2.6-0.5c-0.8-0.3-1.4-0.8-2-1.3
		c-0.5-0.6-0.9-1.2-1.2-2c-0.3-0.8-0.4-1.6-0.4-2.5c0-0.9,0.2-1.7,0.5-2.5c0.3-0.8,0.7-1.4,1.3-2s1.2-1,2-1.3s1.6-0.5,2.5-0.5
		c1.1,0,2,0.2,2.7,0.6s1.3,0.9,1.8,1.5c0.5,0.6,0.8,1.3,1,2c0.2,0.8,0.3,1.5,0.3,2.3v0.8H234.4z M241.7,101.8c0-0.5-0.1-1-0.2-1.4
		s-0.4-0.8-0.7-1.1s-0.7-0.6-1.1-0.7s-0.9-0.3-1.5-0.3c-0.6,0-1.1,0.1-1.5,0.3c-0.5,0.2-0.9,0.5-1.2,0.8c-0.3,0.3-0.6,0.7-0.8,1.1
		c-0.2,0.4-0.3,0.8-0.3,1.2H241.7z"/>
	<path class="st0" d="M252.6,96.7h2.7l3.6,9.3l3.5-9.3h2.4l-4.7,12.1h-2.5L252.6,96.7z"/>
	<path class="st0" d="M266.3,102.8c0-0.9,0.2-1.7,0.5-2.5c0.3-0.8,0.8-1.4,1.4-2s1.3-1,2-1.4c0.8-0.3,1.6-0.5,2.5-0.5
		s1.7,0.2,2.5,0.5c0.8,0.3,1.5,0.8,2,1.4s1,1.2,1.4,2c0.3,0.8,0.5,1.6,0.5,2.5c0,0.9-0.2,1.7-0.5,2.5c-0.3,0.8-0.8,1.4-1.4,2
		c-0.6,0.6-1.3,1-2,1.4c-0.8,0.3-1.6,0.5-2.5,0.5s-1.7-0.2-2.5-0.5c-0.8-0.3-1.5-0.8-2-1.4c-0.6-0.6-1-1.2-1.4-2
		C266.5,104.5,266.3,103.6,266.3,102.8z M268.8,102.8c0,0.6,0.1,1.2,0.3,1.7c0.2,0.5,0.5,1,0.8,1.3c0.3,0.4,0.8,0.7,1.2,0.9
		c0.5,0.2,1,0.3,1.7,0.3c0.6,0,1.2-0.1,1.7-0.3c0.5-0.2,0.9-0.5,1.2-0.9s0.6-0.8,0.8-1.3c0.2-0.5,0.3-1.1,0.3-1.7
		c0-0.6-0.1-1.2-0.3-1.7c-0.2-0.5-0.5-1-0.8-1.3c-0.3-0.4-0.8-0.7-1.2-0.9c-0.5-0.2-1-0.3-1.7-0.3c-0.6,0-1.2,0.1-1.7,0.3
		c-0.5,0.2-0.9,0.5-1.2,0.9c-0.3,0.4-0.6,0.8-0.8,1.3C268.9,101.6,268.8,102.1,268.8,102.8z"/>
	<path class="st0" d="M288.6,99.7c-0.3-0.3-0.6-0.6-1-0.9s-0.9-0.3-1.5-0.3c-0.5,0-1,0.1-1.4,0.3s-0.6,0.6-0.6,1
		c0,0.4,0.1,0.6,0.3,0.9s0.5,0.4,0.8,0.5c0.3,0.1,0.7,0.2,1,0.3c0.4,0.1,0.7,0.1,0.9,0.2c0.5,0.1,1,0.3,1.4,0.4s0.8,0.4,1.1,0.7
		c0.3,0.3,0.6,0.6,0.7,1c0.2,0.4,0.3,0.9,0.3,1.4c0,0.7-0.1,1.3-0.4,1.7s-0.7,0.9-1.1,1.2c-0.5,0.3-1,0.5-1.6,0.7
		c-0.6,0.1-1.2,0.2-1.8,0.2c-1,0-1.9-0.2-2.6-0.5c-0.8-0.3-1.4-0.9-2-1.7l1.7-1.4c0.4,0.4,0.8,0.7,1.2,1s1,0.4,1.7,0.4
		c0.3,0,0.6,0,0.9-0.1c0.3-0.1,0.6-0.2,0.8-0.3c0.2-0.1,0.4-0.3,0.6-0.5c0.1-0.2,0.2-0.4,0.2-0.7c0-0.3-0.1-0.6-0.3-0.8
		c-0.2-0.2-0.5-0.4-0.8-0.5c-0.3-0.1-0.6-0.2-0.9-0.3c-0.3-0.1-0.6-0.1-0.9-0.2c-0.5-0.1-1-0.3-1.4-0.4c-0.4-0.2-0.8-0.4-1.2-0.6
		c-0.3-0.3-0.6-0.6-0.8-1c-0.2-0.4-0.3-0.9-0.3-1.5c0-0.6,0.1-1.2,0.4-1.6s0.6-0.9,1-1.2c0.4-0.3,0.9-0.5,1.5-0.7
		c0.6-0.2,1.1-0.2,1.7-0.2c0.8,0,1.6,0.2,2.3,0.5c0.7,0.3,1.3,0.8,1.8,1.5L288.6,99.7z"/>
	<path class="st0" d="M300.7,96.7h2.3v1.7h0.1c0.4-0.6,1-1.1,1.8-1.5c0.8-0.4,1.6-0.5,2.4-0.5c0.9,0,1.8,0.2,2.5,0.5
		c0.8,0.3,1.4,0.8,1.9,1.4s0.9,1.3,1.2,2s0.4,1.6,0.4,2.5c0,0.9-0.1,1.7-0.4,2.5c-0.3,0.8-0.7,1.4-1.2,2c-0.5,0.6-1.2,1-1.9,1.3
		c-0.8,0.3-1.6,0.5-2.5,0.5c-0.9,0-1.7-0.2-2.4-0.5c-0.8-0.4-1.4-0.9-1.8-1.5H303v8.9h-2.3V96.7z M307,98.5c-0.6,0-1.2,0.1-1.7,0.3
		c-0.5,0.2-0.9,0.5-1.2,0.9c-0.3,0.4-0.6,0.8-0.8,1.3c-0.2,0.5-0.3,1.1-0.3,1.7c0,0.6,0.1,1.2,0.3,1.7c0.2,0.5,0.5,1,0.8,1.3
		s0.8,0.7,1.2,0.9c0.5,0.2,1,0.3,1.7,0.3s1.2-0.1,1.7-0.3c0.5-0.2,0.9-0.5,1.2-0.9s0.6-0.8,0.8-1.3c0.2-0.5,0.3-1.1,0.3-1.7
		c0-0.6-0.1-1.2-0.3-1.7c-0.2-0.5-0.5-1-0.8-1.3c-0.3-0.4-0.8-0.7-1.2-0.9C308.2,98.7,307.6,98.5,307,98.5z"/>
	<path class="st0" d="M316.4,96.7h2.3v1.9h0.1c0.2-0.3,0.4-0.6,0.6-0.9c0.3-0.3,0.5-0.5,0.9-0.7c0.3-0.2,0.7-0.3,1-0.4
		c0.4-0.1,0.7-0.2,1.1-0.2s0.7,0.1,1,0.2l-0.1,2.5c-0.2-0.1-0.4-0.1-0.6-0.1c-0.2,0-0.4-0.1-0.6-0.1c-1.1,0-2,0.3-2.6,0.9
		c-0.6,0.6-0.9,1.6-0.9,2.9v6.1h-2.3V96.7z"/>
	<path class="st0" d="M324.8,102.8c0-0.9,0.2-1.7,0.5-2.5c0.3-0.8,0.8-1.4,1.4-2s1.3-1,2-1.4c0.8-0.3,1.6-0.5,2.5-0.5
		s1.7,0.2,2.5,0.5c0.8,0.3,1.5,0.8,2,1.4s1,1.2,1.4,2c0.3,0.8,0.5,1.6,0.5,2.5c0,0.9-0.2,1.7-0.5,2.5c-0.3,0.8-0.8,1.4-1.4,2
		c-0.6,0.6-1.3,1-2,1.4c-0.8,0.3-1.6,0.5-2.5,0.5s-1.7-0.2-2.5-0.5c-0.8-0.3-1.5-0.8-2-1.4c-0.6-0.6-1-1.2-1.4-2
		C325,104.5,324.8,103.6,324.8,102.8z M327.3,102.8c0,0.6,0.1,1.2,0.3,1.7c0.2,0.5,0.5,1,0.8,1.3c0.3,0.4,0.8,0.7,1.2,0.9
		c0.5,0.2,1,0.3,1.7,0.3c0.6,0,1.2-0.1,1.7-0.3c0.5-0.2,0.9-0.5,1.2-0.9s0.6-0.8,0.8-1.3c0.2-0.5,0.3-1.1,0.3-1.7
		c0-0.6-0.1-1.2-0.3-1.7c-0.2-0.5-0.5-1-0.8-1.3c-0.3-0.4-0.8-0.7-1.2-0.9c-0.5-0.2-1-0.3-1.7-0.3c-0.6,0-1.2,0.1-1.7,0.3
		c-0.5,0.2-0.9,0.5-1.2,0.9c-0.3,0.4-0.6,0.8-0.8,1.3C327.4,101.6,327.3,102.1,327.3,102.8z"/>
	<path class="st0" d="M343.1,96.7v13.8c0,0.3,0,0.7-0.1,1.2c0,0.5-0.2,1-0.4,1.5s-0.6,0.9-1.1,1.2c-0.5,0.3-1.2,0.5-2.1,0.5
		c-0.3,0-0.5,0-0.8-0.1c-0.2,0-0.5-0.1-0.7-0.2l0.3-2.1c0.1,0.1,0.3,0.1,0.5,0.1s0.3,0.1,0.5,0.1c0.6,0,1.1-0.2,1.3-0.6
		c0.2-0.4,0.4-1,0.4-1.7V96.7H343.1z M340.3,92.4c0-0.5,0.2-0.9,0.5-1.2c0.3-0.3,0.7-0.5,1.2-0.5s0.9,0.2,1.2,0.5
		c0.3,0.3,0.5,0.7,0.5,1.2s-0.2,0.9-0.5,1.2c-0.3,0.3-0.7,0.5-1.2,0.5s-0.9-0.2-1.2-0.5C340.5,93.2,340.3,92.8,340.3,92.4z"/>
	<path class="st0" d="M348.6,103.6c0,0.5,0.1,1,0.3,1.4c0.2,0.4,0.5,0.8,0.9,1.1c0.4,0.3,0.8,0.5,1.3,0.7c0.5,0.2,1,0.3,1.5,0.3
		c0.7,0,1.3-0.2,1.9-0.5c0.5-0.3,1-0.8,1.5-1.3l1.7,1.3c-1.3,1.6-3.1,2.5-5.4,2.5c-1,0-1.8-0.2-2.6-0.5c-0.8-0.3-1.4-0.8-2-1.3
		c-0.5-0.6-0.9-1.2-1.2-2c-0.3-0.8-0.4-1.6-0.4-2.5c0-0.9,0.2-1.7,0.5-2.5c0.3-0.8,0.7-1.4,1.3-2s1.2-1,2-1.3s1.6-0.5,2.5-0.5
		c1.1,0,2,0.2,2.7,0.6s1.3,0.9,1.8,1.5c0.5,0.6,0.8,1.3,1,2c0.2,0.8,0.3,1.5,0.3,2.3v0.8H348.6z M355.8,101.8c0-0.5-0.1-1-0.2-1.4
		s-0.4-0.8-0.7-1.1s-0.7-0.6-1.1-0.7s-0.9-0.3-1.5-0.3c-0.6,0-1.1,0.1-1.5,0.3c-0.5,0.2-0.9,0.5-1.2,0.8c-0.3,0.3-0.6,0.7-0.8,1.1
		c-0.2,0.4-0.3,0.8-0.3,1.2H355.8z"/>
	<path class="st0" d="M367.6,98.7h-3.3v5.5c0,0.3,0,0.7,0,1c0,0.3,0.1,0.6,0.2,0.9c0.1,0.3,0.3,0.5,0.5,0.6c0.2,0.2,0.6,0.2,1,0.2
		c0.3,0,0.6,0,0.8-0.1c0.3-0.1,0.6-0.1,0.8-0.3v2.1c-0.3,0.2-0.6,0.3-1.1,0.3s-0.8,0.1-1,0.1c-0.9,0-1.6-0.1-2.1-0.4s-0.8-0.6-1.1-1
		c-0.2-0.4-0.4-0.8-0.4-1.3c0-0.5-0.1-1-0.1-1.5v-6.3h-2.7v-2h2.7v-3.4h2.3v3.4h3.3V98.7z"/>
	<path class="st0" d="M377,99.7c-0.3-0.3-0.6-0.6-1-0.9s-0.9-0.3-1.5-0.3c-0.5,0-1,0.1-1.4,0.3s-0.6,0.6-0.6,1
		c0,0.4,0.1,0.6,0.3,0.9s0.5,0.4,0.8,0.5c0.3,0.1,0.7,0.2,1,0.3c0.4,0.1,0.7,0.1,0.9,0.2c0.5,0.1,1,0.3,1.4,0.4s0.8,0.4,1.1,0.7
		c0.3,0.3,0.6,0.6,0.7,1c0.2,0.4,0.3,0.9,0.3,1.4c0,0.7-0.1,1.3-0.4,1.7s-0.7,0.9-1.1,1.2c-0.5,0.3-1,0.5-1.6,0.7
		c-0.6,0.1-1.2,0.2-1.8,0.2c-1,0-1.9-0.2-2.6-0.5c-0.8-0.3-1.4-0.9-2-1.7l1.7-1.4c0.4,0.4,0.8,0.7,1.2,1s1,0.4,1.7,0.4
		c0.3,0,0.6,0,0.9-0.1c0.3-0.1,0.6-0.2,0.8-0.3c0.2-0.1,0.4-0.3,0.6-0.5c0.1-0.2,0.2-0.4,0.2-0.7c0-0.3-0.1-0.6-0.3-0.8
		c-0.2-0.2-0.5-0.4-0.8-0.5c-0.3-0.1-0.6-0.2-0.9-0.3c-0.3-0.1-0.6-0.1-0.9-0.2c-0.5-0.1-1-0.3-1.4-0.4c-0.4-0.2-0.8-0.4-1.2-0.6
		c-0.3-0.3-0.6-0.6-0.8-1c-0.2-0.4-0.3-0.9-0.3-1.5c0-0.6,0.1-1.2,0.4-1.6s0.6-0.9,1-1.2c0.4-0.3,0.9-0.5,1.5-0.7
		c0.6-0.2,1.1-0.2,1.7-0.2c0.8,0,1.6,0.2,2.3,0.5c0.7,0.3,1.3,0.8,1.8,1.5L377,99.7z"/>
</g>
<g>
	<path class="st1" d="M52.8,41.1c4.1,0,7.4,1.3,9.9,3.8c2.5,2.6,3.7,5.9,3.7,10.1v24.5H55.6V58.3c0-2-0.6-3.6-1.8-4.9
		c-1.2-1.2-2.7-1.9-4.7-1.9c-2.1,0-3.8,0.6-5.1,1.9c-1.3,1.3-1.9,2.9-1.9,5v21.1H31.3V58.3c0-2-0.6-3.6-1.8-4.9
		c-1.2-1.2-2.8-1.9-4.7-1.9c-2.1,0-3.8,0.6-5.1,1.9c-1.3,1.3-1.9,2.9-1.9,5v21.1H7V42h10.8v4c2.8-3.2,6.4-4.9,10.7-4.9
		c5.4,0,9.4,2.2,11.8,6.5C43.2,43.3,47.4,41.1,52.8,41.1z"/>
	<path class="st1" d="M98.4,42h10.8v37.5H98.4v-4.1c-2.8,3.3-6.4,5-10.9,5c-4.2,0-7.5-1.3-10.1-3.9c-2.5-2.6-3.8-6-3.8-10.3V42h10.8
		v21c0,2.1,0.6,3.8,1.9,5.1c1.2,1.3,2.9,1.9,4.9,1.9c2.2,0,3.9-0.7,5.3-2c1.4-1.3,2-3.1,2-5.2V42z"/>
	<path class="st1" d="M117.7,79.6v-53h10.8v53H117.7z"/>
	<path class="st1" d="M159.2,42v9.8h-7.3v27.8h-10.8V51.8h-6.9V42h6.9v-8.7l10.8-2.4V42H159.2z"/>
	<path class="st0" d="M170.1,37.2C170.1,37.2,170.1,37.2,170.1,37.2c-2.4,0-3.8-1.5-4.3-2c-0.7-0.7-3.2-3.1-5.6-5.4
		c-0.8-0.8-1.6-1.5-2.3-2.2c-1.8-1.8-1.8-4.7,0-6.6v0c1.8-1.8,4.6-1.8,6.4,0c0.7,0.7,1.5,1.5,2.3,2.2c1.3,1.2,2.5,2.4,3.5,3.4
		c7.5-7.2,15.9-15.5,23.1-22.7c1.8-1.8,4.7-1.8,6.5,0v0c1.8,1.8,1.8,4.7,0,6.5c-8,8-17.4,17.3-25.4,25
		C173.8,35.8,172.4,37.2,170.1,37.2z"/>
	<path class="st1" d="M202.1,80.4c-5.8,0-10.6-1.9-14.5-5.6c-3.9-3.8-5.8-8.4-5.8-14s1.9-10.3,5.8-14c3.9-3.8,8.7-5.6,14.5-5.6
		c5.3,0,9.8,1.6,13.5,4.8c3.7,3.2,5.9,7.3,6.5,12.2h-11.2c-0.6-2-1.6-3.6-3.2-4.8c-1.6-1.2-3.5-1.8-5.6-1.8c-2.7,0-4.9,0.9-6.6,2.6
		c-1.7,1.8-2.6,4-2.6,6.6c0,2.6,0.9,4.9,2.6,6.6c1.7,1.8,3.9,2.7,6.6,2.7c2.2,0,4-0.6,5.6-1.9c1.6-1.2,2.7-2.8,3.2-4.8h11.2
		c-0.6,5-2.8,9-6.5,12.2C211.9,78.8,207.4,80.4,202.1,80.4z"/>
	<path class="st1" d="M238.9,47c2.9-3.7,6.4-5.6,10.5-5.6v11c-3.3,0-5.9,0.9-7.7,2.6c-1.8,1.7-2.7,4.1-2.7,7v17.5h-10.8V42h10.8V47z
		"/>
	<path class="st1" d="M292.1,60.9c0,1.4-0.1,2.5-0.3,3.3h-28.7c0.6,2.1,1.7,3.8,3.3,5c1.6,1.2,3.5,1.8,5.7,1.8
		c1.8,0,3.4-0.4,4.8-1.1c1.4-0.7,2.4-1.6,3.1-2.7h11.4c-1.4,3.9-3.8,7.1-7.3,9.5c-3.5,2.4-7.6,3.6-12.2,3.6
		c-5.8,0-10.6-1.9-14.5-5.6c-3.9-3.8-5.8-8.4-5.8-14s1.9-10.3,5.8-14c3.9-3.8,8.7-5.6,14.5-5.6c5.8,0,10.6,1.9,14.4,5.6
		C290.2,50.5,292.1,55.2,292.1,60.9z M271.9,50.4c-2.1,0-3.9,0.6-5.4,1.8c-1.5,1.2-2.6,2.8-3.3,4.9h17.4c-0.6-2.1-1.6-3.7-3.2-4.9
		C275.8,51,274,50.4,271.9,50.4z"/>
	<path class="st1" d="M325.7,26.5h10.8v53h-10.8v-4.1c-3,3.3-6.8,5-11.4,5c-5.2,0-9.5-1.9-12.9-5.6c-3.5-3.8-5.2-8.4-5.2-14
		s1.7-10.3,5.2-14c3.5-3.8,7.8-5.6,12.9-5.6c4.5,0,8.3,1.7,11.4,5V26.5z M316.5,70.1c2.7,0,4.9-0.9,6.6-2.7c1.7-1.8,2.6-4,2.6-6.6
		c0-2.6-0.9-4.9-2.6-6.6c-1.7-1.8-3.9-2.6-6.6-2.6c-2.6,0-4.8,0.9-6.5,2.6c-1.7,1.8-2.6,4-2.6,6.6c0,2.6,0.9,4.9,2.6,6.6
		C311.7,69.2,313.9,70.1,316.5,70.1z"/>
	<path class="st1" d="M345,79.6V42h10.8v37.5H345z"/>
	<path class="st1" d="M386.5,42v9.8h-7.3v27.8h-10.8V51.8h-6.9V42h6.9v-7.5l10.8-3.6V42H386.5z"/>
	<circle class="st0" cx="350.4" cy="31.9" r="5.4"/>
	<rect x="164.7" y="42" class="st1" width="10.8" height="37.5"/>
</g>
</svg>
