<?xml version="1.0" encoding="utf-8"?>
<!-- Generator: Adobe Illustrator 24.0.2, SVG Export Plug-In . SVG Version: 6.00 Build 0)  -->
<svg version="1.1" id="Calque_1" xmlns="http://www.w3.org/2000/svg" xmlns:xlink="http://www.w3.org/1999/xlink" x="0px" y="0px"
	 viewBox="0 0 392.4 117.7" style="enable-background:new 0 0 392.4 117.7;" xml:space="preserve">
<style type="text/css">
	.st0{fill:#004996;}
	.st1{fill:#FF2146;}
</style>
<g>
	<g>
		<g>
			<path class="st0" d="M53.7,40.5c4.1,0,7.3,1.3,9.8,3.8c2.5,2.5,3.7,5.9,3.7,10v24.4H56.5V57.6c0-2-0.6-3.6-1.8-4.9
				c-1.2-1.2-2.7-1.9-4.7-1.9c-2.1,0-3.8,0.6-5.1,1.9c-1.3,1.3-1.9,2.9-1.9,5v21.1H32.3V57.6c0-2-0.6-3.6-1.8-4.9
				c-1.2-1.2-2.8-1.9-4.7-1.9c-2.1,0-3.8,0.6-5.1,1.9c-1.3,1.3-1.9,2.9-1.9,5v21.1H8.1V41.4h10.7v3.9c2.8-3.2,6.3-4.8,10.6-4.8
				c5.4,0,9.4,2.1,11.8,6.4C44.2,42.7,48.3,40.5,53.7,40.5z"/>
			<path class="st0" d="M99.2,41.4h10.7v37.4H99.2v-4.1c-2.7,3.3-6.4,5-10.9,5c-4.2,0-7.5-1.3-10-3.9s-3.8-6-3.8-10.3V41.4h10.7v21
				c0,2.1,0.6,3.8,1.8,5.1c1.2,1.3,2.8,1.9,4.9,1.9c2.1,0,3.9-0.7,5.2-2c1.3-1.3,2-3,2-5.1V41.4z"/>
			<path class="st0" d="M118.4,78.8V26h10.7v52.8H118.4z"/>
			<path class="st0" d="M159.7,41.4v9.7h-7.2v27.7h-10.7V51.2h-6.8v-9.7h6.8v-8.7l10.7-2.4v11H159.7z"/>
			<path class="st1" d="M170.6,36.7C170.6,36.7,170.6,36.7,170.6,36.7c-2.3,0-3.8-1.5-4.3-2c-0.7-0.7-3.2-3.1-5.5-5.4
				c-0.8-0.8-1.6-1.5-2.3-2.2c-1.8-1.8-1.8-4.7,0-6.5v0c1.8-1.8,4.6-1.8,6.4,0c0.7,0.7,1.5,1.5,2.3,2.2c1.3,1.2,2.5,2.4,3.5,3.4
				c7.4-7.2,15.8-15.5,23-22.6c1.8-1.8,4.7-1.8,6.5,0v0c1.8,1.8,1.8,4.7,0,6.5c-7.9,7.9-17.4,17.2-25.3,24.9
				C174.3,35.3,172.8,36.7,170.6,36.7z"/>
			<path class="st0" d="M202.4,79.7c-5.8,0-10.6-1.9-14.4-5.6c-3.8-3.8-5.8-8.4-5.8-14s1.9-10.2,5.8-14c3.8-3.7,8.7-5.6,14.4-5.6
				c5.3,0,9.8,1.6,13.5,4.8c3.7,3.2,5.9,7.2,6.5,12.2h-11.2c-0.5-2-1.6-3.5-3.2-4.8c-1.6-1.2-3.4-1.8-5.6-1.8
				c-2.6,0-4.8,0.9-6.6,2.6c-1.7,1.8-2.6,4-2.6,6.6c0,2.6,0.9,4.8,2.6,6.6c1.7,1.8,3.9,2.7,6.6,2.7c2.1,0,4-0.6,5.6-1.8
				c1.6-1.2,2.6-2.8,3.2-4.8h11.2c-0.6,4.9-2.8,9-6.5,12.2C212.2,78.1,207.7,79.7,202.4,79.7z"/>
			<path class="st0" d="M239.1,46.4c2.9-3.7,6.4-5.6,10.4-5.6v11c-3.3,0-5.9,0.9-7.7,2.6c-1.8,1.7-2.7,4-2.7,7v17.4h-10.7V41.4h10.7
				V46.4z"/>
			<path class="st0" d="M292.1,60.3c0,1.4-0.1,2.5-0.3,3.3h-28.6c0.6,2.1,1.7,3.8,3.3,5c1.6,1.2,3.5,1.8,5.7,1.8
				c1.8,0,3.4-0.4,4.8-1.1c1.4-0.7,2.4-1.6,3.1-2.7h11.4c-1.4,3.9-3.8,7.1-7.3,9.5c-3.5,2.4-7.5,3.6-12.1,3.6
				c-5.8,0-10.6-1.9-14.4-5.6c-3.8-3.8-5.8-8.4-5.8-14s1.9-10.2,5.8-14c3.8-3.7,8.7-5.6,14.4-5.6c5.7,0,10.5,1.9,14.4,5.6
				C290.2,49.9,292.1,54.6,292.1,60.3z M272,49.8c-2.1,0-3.9,0.6-5.4,1.8c-1.5,1.2-2.6,2.8-3.2,4.9h17.3c-0.6-2.1-1.6-3.7-3.2-4.9
				C275.8,50.4,274,49.8,272,49.8z"/>
			<path class="st0" d="M325.6,26h10.7v52.8h-10.7v-4.1c-3,3.3-6.8,5-11.3,5c-5.1,0-9.4-1.9-12.9-5.6c-3.5-3.8-5.2-8.4-5.2-14
				s1.7-10.2,5.2-14c3.5-3.7,7.7-5.6,12.9-5.6c4.5,0,8.3,1.7,11.3,5V26z M316.4,69.4c2.6,0,4.8-0.9,6.6-2.7c1.7-1.8,2.6-4,2.6-6.6
				c0-2.6-0.9-4.8-2.6-6.6c-1.7-1.8-3.9-2.6-6.6-2.6c-2.6,0-4.8,0.9-6.5,2.6c-1.7,1.8-2.6,4-2.6,6.6c0,2.6,0.9,4.8,2.6,6.6
				C311.6,68.5,313.8,69.4,316.4,69.4z"/>
			<path class="st0" d="M344.8,78.8V41.4h10.7v37.4H344.8z"/>
			<path class="st0" d="M386.1,41.4v9.7h-7.2v27.7h-10.7V51.2h-6.8v-9.7h6.8V34l10.7-3.6v11H386.1z"/>
			<circle class="st1" cx="350.1" cy="31.4" r="5.3"/>
			<rect x="165.2" y="41.4" class="st0" width="10.7" height="37.4"/>
		</g>
	</g>
	<g>
		<path class="st1" d="M113.2,90h11.4v2.3h-8.9v5.7h8.3v2.3h-8.3v7.8h-2.5V90z"/>
		<path class="st1" d="M126.9,91.6c0-0.5,0.2-0.9,0.5-1.2c0.3-0.3,0.7-0.5,1.2-0.5c0.5,0,0.9,0.2,1.2,0.5c0.3,0.3,0.5,0.7,0.5,1.2
			c0,0.5-0.2,0.9-0.5,1.2s-0.7,0.5-1.2,0.5c-0.5,0-0.9-0.2-1.2-0.5C127.1,92.5,126.9,92.1,126.9,91.6z M127.5,96h2.3v12.1h-2.3V96z"
			/>
		<path class="st1" d="M133.4,96h2.3v1.9h0.1c0.3-0.6,0.8-1.2,1.5-1.6c0.7-0.4,1.5-0.6,2.5-0.6c0.6,0,1.1,0.1,1.7,0.3
			c0.5,0.2,1,0.5,1.4,0.8c0.4,0.4,0.7,0.9,1,1.4c0.2,0.6,0.4,1.3,0.4,2.1v7.8h-2.3v-7.2c0-0.6-0.1-1-0.2-1.4c-0.2-0.4-0.4-0.7-0.6-1
			c-0.3-0.2-0.5-0.4-0.9-0.5c-0.3-0.1-0.7-0.2-1-0.2c-0.5,0-0.9,0.1-1.3,0.2c-0.4,0.2-0.8,0.4-1.1,0.7c-0.3,0.3-0.5,0.8-0.7,1.3
			c-0.2,0.5-0.3,1.1-0.3,1.8v6.2h-2.3V96z"/>
		<path class="st1" d="M147.7,97.4c0.6-0.6,1.4-1,2.2-1.3c0.9-0.3,1.7-0.4,2.6-0.4c0.9,0,1.6,0.1,2.3,0.3c0.6,0.2,1.2,0.5,1.6,0.9
			c0.4,0.4,0.7,0.8,0.9,1.3c0.2,0.5,0.3,1,0.3,1.5v6.2c0,0.4,0,0.8,0,1.2c0,0.4,0,0.7,0.1,1h-2c-0.1-0.6-0.1-1.2-0.1-1.8h-0.1
			c-0.5,0.8-1.1,1.3-1.8,1.7c-0.7,0.3-1.5,0.5-2.4,0.5c-0.6,0-1.1-0.1-1.6-0.2c-0.5-0.2-1-0.4-1.3-0.7c-0.4-0.3-0.7-0.7-0.9-1.1
			c-0.2-0.5-0.3-1-0.3-1.6c0-0.8,0.2-1.4,0.5-2c0.3-0.5,0.8-1,1.4-1.3c0.6-0.3,1.3-0.6,2.1-0.7c0.8-0.1,1.7-0.2,2.6-0.2h1.7V100
			c0-0.3-0.1-0.6-0.2-0.9s-0.3-0.6-0.5-0.8c-0.2-0.2-0.5-0.4-0.9-0.6c-0.4-0.1-0.8-0.2-1.3-0.2c-0.4,0-0.8,0-1.2,0.1
			c-0.3,0.1-0.6,0.2-0.9,0.3c-0.3,0.1-0.5,0.3-0.7,0.4c-0.2,0.2-0.4,0.3-0.6,0.5L147.7,97.4z M154.2,102.2c-0.5,0-1.1,0-1.7,0.1
			c-0.6,0.1-1.1,0.2-1.6,0.3c-0.5,0.2-0.9,0.4-1.1,0.7c-0.3,0.3-0.4,0.7-0.4,1.2c0,0.7,0.2,1.2,0.7,1.5c0.5,0.3,1.1,0.5,1.9,0.5
			c0.6,0,1.2-0.1,1.6-0.3s0.8-0.5,1.1-0.8c0.3-0.3,0.5-0.7,0.6-1.1c0.1-0.4,0.2-0.8,0.2-1.2v-0.8H154.2z"/>
		<path class="st1" d="M160.9,96h2.3v1.9h0.1c0.3-0.6,0.8-1.2,1.5-1.6c0.7-0.4,1.5-0.6,2.5-0.6c0.6,0,1.1,0.1,1.7,0.3
			c0.5,0.2,1,0.5,1.4,0.8c0.4,0.4,0.7,0.9,1,1.4c0.2,0.6,0.4,1.3,0.4,2.1v7.8h-2.3v-7.2c0-0.6-0.1-1-0.2-1.4c-0.2-0.4-0.4-0.7-0.6-1
			c-0.3-0.2-0.5-0.4-0.9-0.5c-0.3-0.1-0.7-0.2-1-0.2c-0.5,0-0.9,0.1-1.3,0.2c-0.4,0.2-0.8,0.4-1.1,0.7c-0.3,0.3-0.5,0.8-0.7,1.3
			s-0.3,1.1-0.3,1.8v6.2h-2.3V96z"/>
		<path class="st1" d="M174.3,106l6.9-8.1h-6.6v-2h9.5v2l-6.9,8.1h7.3v2h-10V106z"/>
		<path class="st1" d="M186.6,91.6c0-0.5,0.2-0.9,0.5-1.2c0.3-0.3,0.7-0.5,1.2-0.5c0.5,0,0.9,0.2,1.2,0.5c0.3,0.3,0.5,0.7,0.5,1.2
			c0,0.5-0.2,0.9-0.5,1.2c-0.3,0.3-0.7,0.5-1.2,0.5c-0.5,0-0.9-0.2-1.2-0.5C186.8,92.5,186.6,92.1,186.6,91.6z M187.1,96h2.3v12.1
			h-2.3V96z"/>
		<path class="st1" d="M194.8,102.9c0,0.5,0.1,1,0.3,1.4c0.2,0.4,0.5,0.8,0.9,1.1c0.4,0.3,0.8,0.5,1.3,0.7c0.5,0.2,1,0.3,1.5,0.3
			c0.7,0,1.3-0.2,1.9-0.5c0.5-0.3,1-0.8,1.5-1.3l1.7,1.3c-1.3,1.7-3.1,2.5-5.4,2.5c-1,0-1.8-0.2-2.6-0.5c-0.8-0.3-1.4-0.8-2-1.3
			c-0.5-0.6-1-1.2-1.2-2c-0.3-0.8-0.4-1.6-0.4-2.5c0-0.9,0.2-1.7,0.5-2.5c0.3-0.8,0.7-1.4,1.3-2c0.6-0.6,1.2-1,2-1.3
			c0.8-0.3,1.6-0.5,2.5-0.5c1.1,0,2,0.2,2.7,0.6c0.7,0.4,1.4,0.9,1.8,1.5s0.8,1.3,1,2c0.2,0.8,0.3,1.5,0.3,2.3v0.8H194.8z
			 M202.1,101c0-0.5-0.1-1-0.2-1.4c-0.1-0.4-0.4-0.8-0.7-1.1s-0.7-0.6-1.1-0.7c-0.4-0.2-0.9-0.3-1.5-0.3c-0.6,0-1.1,0.1-1.5,0.3
			c-0.5,0.2-0.9,0.5-1.2,0.8c-0.3,0.3-0.6,0.7-0.8,1.1c-0.2,0.4-0.3,0.8-0.3,1.2H202.1z"/>
		<path class="st1" d="M207.3,96h2.3v1.9h0.1c0.2-0.3,0.4-0.6,0.6-0.9c0.3-0.3,0.5-0.5,0.9-0.7c0.3-0.2,0.7-0.3,1-0.4
			c0.4-0.1,0.7-0.2,1.1-0.2c0.4,0,0.7,0.1,1,0.2l-0.1,2.5c-0.2-0.1-0.4-0.1-0.6-0.1c-0.2,0-0.4-0.1-0.6-0.1c-1.1,0-2,0.3-2.6,0.9
			c-0.6,0.6-0.9,1.6-0.9,2.9v6.1h-2.3V96z"/>
		<path class="st1" d="M223.2,97.9H220v5.5c0,0.3,0,0.7,0,1c0,0.3,0.1,0.6,0.2,0.9c0.1,0.3,0.3,0.5,0.5,0.6c0.2,0.2,0.6,0.2,1,0.2
			c0.3,0,0.6,0,0.8-0.1c0.3-0.1,0.6-0.1,0.8-0.3v2.1c-0.3,0.2-0.6,0.3-1.1,0.3c-0.4,0.1-0.8,0.1-1,0.1c-0.9,0-1.6-0.1-2.1-0.4
			s-0.8-0.6-1.1-1c-0.2-0.4-0.4-0.8-0.4-1.3c0-0.5-0.1-1-0.1-1.5v-6.3H215v-2h2.7v-3.4h2.3V96h3.3V97.9z"/>
		<path class="st1" d="M233.9,90h2.5v18.1h-2.5V90z"/>
		<path class="st1" d="M240.4,88.7h2.3v9.1h0.1c0.3-0.6,0.8-1.2,1.5-1.6c0.7-0.4,1.5-0.6,2.5-0.6c0.6,0,1.1,0.1,1.7,0.3
			c0.5,0.2,1,0.5,1.4,0.8c0.4,0.4,0.7,0.9,1,1.4c0.2,0.6,0.4,1.3,0.4,2.1v7.8h-2.3v-7.2c0-0.6-0.1-1-0.2-1.4c-0.2-0.4-0.4-0.7-0.6-1
			c-0.3-0.2-0.5-0.4-0.9-0.5c-0.3-0.1-0.7-0.2-1-0.2c-0.5,0-0.9,0.1-1.3,0.2c-0.4,0.2-0.8,0.4-1.1,0.7c-0.3,0.3-0.5,0.8-0.7,1.3
			c-0.2,0.5-0.3,1.1-0.3,1.8v6.2h-2.3V88.7z"/>
		<path class="st1" d="M254.6,96h2.3v1.9h0.1c0.2-0.3,0.4-0.6,0.6-0.9c0.3-0.3,0.5-0.5,0.9-0.7c0.3-0.2,0.7-0.3,1-0.4
			c0.4-0.1,0.7-0.2,1.1-0.2c0.4,0,0.7,0.1,1,0.2l-0.1,2.5c-0.2-0.1-0.4-0.1-0.6-0.1c-0.2,0-0.4-0.1-0.6-0.1c-1.1,0-2,0.3-2.6,0.9
			c-0.6,0.6-0.9,1.6-0.9,2.9v6.1h-2.3V96z"/>
		<path class="st1" d="M265.4,102.9c0,0.5,0.1,1,0.3,1.4c0.2,0.4,0.5,0.8,0.9,1.1c0.4,0.3,0.8,0.5,1.3,0.7c0.5,0.2,1,0.3,1.5,0.3
			c0.7,0,1.3-0.2,1.9-0.5c0.5-0.3,1-0.8,1.5-1.3l1.7,1.3c-1.3,1.7-3.1,2.5-5.4,2.5c-1,0-1.8-0.2-2.6-0.5c-0.8-0.3-1.4-0.8-2-1.3
			c-0.5-0.6-1-1.2-1.2-2c-0.3-0.8-0.4-1.6-0.4-2.5c0-0.9,0.2-1.7,0.5-2.5c0.3-0.8,0.7-1.4,1.3-2c0.6-0.6,1.2-1,2-1.3
			c0.8-0.3,1.6-0.5,2.5-0.5c1.1,0,2,0.2,2.7,0.6c0.7,0.4,1.4,0.9,1.8,1.5c0.5,0.6,0.8,1.3,1,2c0.2,0.8,0.3,1.5,0.3,2.3v0.8H265.4z
			 M272.6,101c0-0.5-0.1-1-0.2-1.4c-0.1-0.4-0.4-0.8-0.7-1.1s-0.7-0.6-1.1-0.7c-0.4-0.2-0.9-0.3-1.5-0.3c-0.6,0-1.1,0.1-1.5,0.3
			c-0.5,0.2-0.9,0.5-1.2,0.8c-0.3,0.3-0.6,0.7-0.8,1.1c-0.2,0.4-0.3,0.8-0.3,1.2H272.6z"/>
		<path class="st1" d="M285.5,90h6.4c1.2,0,2.1,0.2,2.9,0.5c0.7,0.3,1.3,0.7,1.8,1.2c0.4,0.5,0.7,1,0.9,1.6c0.2,0.6,0.3,1.2,0.3,1.8
			c0,0.6-0.1,1.1-0.3,1.8c-0.2,0.6-0.5,1.2-0.9,1.6c-0.4,0.5-1,0.9-1.8,1.2c-0.8,0.3-1.7,0.5-2.9,0.5H288v8h-2.5V90z M288,97.9h3.2
			c0.5,0,1,0,1.4-0.1c0.5-0.1,0.9-0.2,1.3-0.4c0.4-0.2,0.7-0.5,0.9-0.9c0.2-0.4,0.3-0.9,0.3-1.5c0-0.6-0.1-1.1-0.3-1.5
			c-0.2-0.4-0.5-0.7-0.9-0.9c-0.4-0.2-0.8-0.3-1.3-0.4c-0.5-0.1-0.9-0.1-1.4-0.1H288V97.9z"/>
		<path class="st1" d="M300.1,96h2.3v1.9h0.1c0.2-0.3,0.4-0.6,0.6-0.9c0.3-0.3,0.5-0.5,0.9-0.7c0.3-0.2,0.7-0.3,1-0.4
			c0.4-0.1,0.7-0.2,1.1-0.2c0.4,0,0.7,0.1,1,0.2l-0.1,2.5c-0.2-0.1-0.4-0.1-0.6-0.1c-0.2,0-0.4-0.1-0.6-0.1c-1.1,0-2,0.3-2.6,0.9
			c-0.6,0.6-0.9,1.6-0.9,2.9v6.1h-2.3V96z"/>
		<path class="st1" d="M308.5,102c0-0.9,0.2-1.7,0.5-2.5s0.8-1.4,1.4-2s1.3-1,2-1.4c0.8-0.3,1.6-0.5,2.5-0.5c0.9,0,1.7,0.2,2.5,0.5
			c0.8,0.3,1.5,0.8,2,1.4s1,1.3,1.4,2c0.3,0.8,0.5,1.6,0.5,2.5c0,0.9-0.2,1.7-0.5,2.5c-0.3,0.8-0.8,1.4-1.4,2c-0.6,0.6-1.3,1-2,1.4
			c-0.8,0.3-1.6,0.5-2.5,0.5c-0.9,0-1.7-0.2-2.5-0.5c-0.8-0.3-1.5-0.8-2-1.4c-0.6-0.6-1-1.2-1.4-2
			C308.7,103.7,308.5,102.9,308.5,102z M311,102c0,0.6,0.1,1.2,0.3,1.7c0.2,0.5,0.5,1,0.8,1.3c0.3,0.4,0.8,0.7,1.3,0.9
			c0.5,0.2,1,0.3,1.7,0.3c0.6,0,1.2-0.1,1.7-0.3c0.5-0.2,0.9-0.5,1.3-0.9c0.3-0.4,0.6-0.8,0.8-1.3c0.2-0.5,0.3-1.1,0.3-1.7
			s-0.1-1.2-0.3-1.7c-0.2-0.5-0.5-1-0.8-1.3c-0.3-0.4-0.8-0.7-1.3-0.9c-0.5-0.2-1-0.3-1.7-0.3c-0.6,0-1.2,0.1-1.7,0.3
			c-0.5,0.2-0.9,0.5-1.3,0.9c-0.3,0.4-0.6,0.8-0.8,1.3C311.1,100.8,311,101.4,311,102z"/>
		<path class="st1" d="M326.8,96v13.9c0,0.3,0,0.7-0.1,1.2c0,0.5-0.2,1-0.4,1.5c-0.2,0.5-0.6,0.9-1.1,1.2c-0.5,0.3-1.2,0.5-2.1,0.5
			c-0.3,0-0.5,0-0.8-0.1c-0.2,0-0.5-0.1-0.7-0.2l0.3-2.1c0.1,0.1,0.3,0.1,0.5,0.1c0.2,0,0.3,0.1,0.5,0.1c0.6,0,1.1-0.2,1.3-0.6
			c0.2-0.4,0.4-1,0.4-1.8V96H326.8z M323.9,91.6c0-0.5,0.2-0.9,0.5-1.2c0.3-0.3,0.7-0.5,1.2-0.5c0.5,0,0.9,0.2,1.2,0.5
			c0.3,0.3,0.5,0.7,0.5,1.2c0,0.5-0.2,0.9-0.5,1.2s-0.7,0.5-1.2,0.5c-0.5,0-0.9-0.2-1.2-0.5C324.1,92.5,323.9,92.1,323.9,91.6z"/>
		<path class="st1" d="M332.1,102.9c0,0.5,0.1,1,0.3,1.4c0.2,0.4,0.5,0.8,0.9,1.1c0.4,0.3,0.8,0.5,1.3,0.7c0.5,0.2,1,0.3,1.5,0.3
			c0.7,0,1.3-0.2,1.9-0.5c0.5-0.3,1-0.8,1.5-1.3l1.7,1.3c-1.3,1.7-3.1,2.5-5.4,2.5c-1,0-1.8-0.2-2.6-0.5c-0.8-0.3-1.4-0.8-2-1.3
			c-0.5-0.6-1-1.2-1.2-2c-0.3-0.8-0.4-1.6-0.4-2.5c0-0.9,0.2-1.7,0.5-2.5c0.3-0.8,0.7-1.4,1.3-2c0.6-0.6,1.2-1,2-1.3
			c0.8-0.3,1.6-0.5,2.5-0.5c1.1,0,2,0.2,2.7,0.6c0.7,0.4,1.4,0.9,1.8,1.5c0.5,0.6,0.8,1.3,1,2c0.2,0.8,0.3,1.5,0.3,2.3v0.8H332.1z
			 M339.4,101c0-0.5-0.1-1-0.2-1.4c-0.1-0.4-0.4-0.8-0.7-1.1s-0.7-0.6-1.1-0.7c-0.4-0.2-0.9-0.3-1.5-0.3c-0.6,0-1.1,0.1-1.5,0.3
			c-0.5,0.2-0.9,0.5-1.2,0.8c-0.3,0.3-0.6,0.7-0.8,1.1c-0.2,0.4-0.3,0.8-0.3,1.2H339.4z"/>
		<path class="st1" d="M344.6,88.7h2.3v12.5l5.2-5.2h3.2l-5.6,5.5l6.1,6.6h-3.3l-5.6-6.3v6.3h-2.3V88.7z"/>
		<path class="st1" d="M364.4,97.9h-3.3v5.5c0,0.3,0,0.7,0,1c0,0.3,0.1,0.6,0.2,0.9c0.1,0.3,0.3,0.5,0.5,0.6c0.2,0.2,0.6,0.2,1,0.2
			c0.3,0,0.6,0,0.8-0.1c0.3-0.1,0.6-0.1,0.8-0.3v2.1c-0.3,0.2-0.6,0.3-1.1,0.3c-0.4,0.1-0.8,0.1-1,0.1c-0.9,0-1.6-0.1-2.1-0.4
			c-0.5-0.2-0.8-0.6-1.1-1c-0.2-0.4-0.4-0.8-0.4-1.3c0-0.5-0.1-1-0.1-1.5v-6.3h-2.7v-2h2.7v-3.4h2.3V96h3.3V97.9z"/>
		<path class="st1" d="M369.1,102.9c0,0.5,0.1,1,0.3,1.4c0.2,0.4,0.5,0.8,0.9,1.1c0.4,0.3,0.8,0.5,1.3,0.7c0.5,0.2,1,0.3,1.5,0.3
			c0.7,0,1.3-0.2,1.9-0.5c0.5-0.3,1-0.8,1.5-1.3l1.7,1.3c-1.3,1.7-3.1,2.5-5.4,2.5c-1,0-1.8-0.2-2.6-0.5c-0.8-0.3-1.4-0.8-2-1.3
			c-0.5-0.6-1-1.2-1.2-2c-0.3-0.8-0.4-1.6-0.4-2.5c0-0.9,0.2-1.7,0.5-2.5c0.3-0.8,0.7-1.4,1.3-2c0.6-0.6,1.2-1,2-1.3
			c0.8-0.3,1.6-0.5,2.5-0.5c1.1,0,2,0.2,2.7,0.6c0.7,0.4,1.4,0.9,1.8,1.5c0.5,0.6,0.8,1.3,1,2c0.2,0.8,0.3,1.5,0.3,2.3v0.8H369.1z
			 M376.3,101c0-0.5-0.1-1-0.2-1.4c-0.1-0.4-0.4-0.8-0.7-1.1s-0.7-0.6-1.1-0.7c-0.4-0.2-0.9-0.3-1.5-0.3c-0.6,0-1.1,0.1-1.5,0.3
			c-0.5,0.2-0.9,0.5-1.2,0.8c-0.3,0.3-0.6,0.7-0.8,1.1c-0.2,0.4-0.3,0.8-0.3,1.2H376.3z"/>
	</g>
</g>
</svg>
