<?xml version="1.0" encoding="utf-8"?>
<!-- Generator: Adobe Illustrator 24.0.2, SVG Export Plug-In . SVG Version: 6.00 Build 0)  -->
<svg version="1.1" id="Calque_1" xmlns="http://www.w3.org/2000/svg" xmlns:xlink="http://www.w3.org/1999/xlink" x="0px" y="0px"
	 viewBox="0 0 392.4 117.7" style="enable-background:new 0 0 392.4 117.7;" xml:space="preserve">
<style type="text/css">
	.st0{fill:#004996;}
	.st1{fill:#FF2146;}
</style>
<g>
	<g>
		<g>
			<path class="st0" d="M53.3,40.5c4.1,0,7.3,1.3,9.8,3.8c2.5,2.5,3.7,5.9,3.7,10v24.4H56.1V57.6c0-2-0.6-3.6-1.8-4.9
				c-1.2-1.2-2.7-1.9-4.7-1.9c-2.1,0-3.8,0.6-5.1,1.9c-1.3,1.3-1.9,2.9-1.9,5v21.1H31.9V57.6c0-2-0.6-3.6-1.8-4.9
				c-1.2-1.2-2.8-1.9-4.7-1.9c-2.1,0-3.8,0.6-5.1,1.9c-1.3,1.3-1.9,2.9-1.9,5v21.1H7.7V41.4h10.7v3.9c2.8-3.2,6.3-4.8,10.6-4.8
				c5.4,0,9.4,2.1,11.8,6.4C43.8,42.7,47.9,40.5,53.3,40.5z"/>
			<path class="st0" d="M98.8,41.4h10.7v37.4H98.8v-4.1c-2.7,3.3-6.4,5-10.9,5c-4.2,0-7.5-1.3-10-3.9c-2.5-2.6-3.8-6-3.8-10.3V41.4
				h10.7v21c0,2.1,0.6,3.8,1.8,5.1c1.2,1.3,2.8,1.9,4.9,1.9c2.1,0,3.9-0.7,5.2-2c1.3-1.3,2-3,2-5.1V41.4z"/>
			<path class="st0" d="M118,78.8V26h10.7v52.8H118z"/>
			<path class="st0" d="M159.3,41.4v9.7h-7.2v27.7h-10.7V51.2h-6.8v-9.7h6.8v-8.7l10.7-2.4v11H159.3z"/>
			<path class="st1" d="M170.2,36.7C170.2,36.7,170.2,36.7,170.2,36.7c-2.3,0-3.8-1.5-4.3-2c-0.7-0.7-3.2-3.1-5.5-5.4
				c-0.8-0.8-1.6-1.5-2.3-2.2c-1.8-1.8-1.8-4.7,0-6.5v0c1.8-1.8,4.6-1.8,6.4,0c0.7,0.7,1.5,1.5,2.3,2.2c1.3,1.2,2.5,2.4,3.5,3.4
				c7.4-7.2,15.8-15.5,23-22.6c1.8-1.8,4.7-1.8,6.5,0v0c1.8,1.8,1.8,4.7,0,6.5c-7.9,7.9-17.4,17.2-25.3,24.9
				C173.9,35.3,172.4,36.7,170.2,36.7z"/>
			<path class="st0" d="M202,79.7c-5.8,0-10.6-1.9-14.4-5.6c-3.8-3.8-5.8-8.4-5.8-14s1.9-10.2,5.8-14c3.8-3.7,8.7-5.6,14.4-5.6
				c5.3,0,9.8,1.6,13.5,4.8c3.7,3.2,5.9,7.2,6.5,12.2h-11.2c-0.5-2-1.6-3.5-3.2-4.8c-1.6-1.2-3.4-1.8-5.6-1.8
				c-2.6,0-4.8,0.9-6.6,2.6c-1.7,1.8-2.6,4-2.6,6.6c0,2.6,0.9,4.8,2.6,6.6c1.7,1.8,3.9,2.7,6.6,2.7c2.1,0,4-0.6,5.6-1.8
				c1.6-1.2,2.6-2.8,3.2-4.8H222c-0.6,4.9-2.8,9-6.5,12.2C211.8,78.1,207.3,79.7,202,79.7z"/>
			<path class="st0" d="M238.7,46.4c2.9-3.7,6.4-5.6,10.4-5.6v11c-3.3,0-5.9,0.9-7.7,2.6c-1.8,1.7-2.7,4-2.7,7v17.4h-10.7V41.4h10.7
				V46.4z"/>
			<path class="st0" d="M291.7,60.3c0,1.4-0.1,2.5-0.3,3.3h-28.6c0.6,2.1,1.7,3.8,3.3,5c1.6,1.2,3.5,1.8,5.7,1.8
				c1.8,0,3.4-0.4,4.8-1.1c1.4-0.7,2.4-1.6,3.1-2.7H291c-1.4,3.9-3.8,7.1-7.3,9.5c-3.5,2.4-7.5,3.6-12.1,3.6
				c-5.8,0-10.6-1.9-14.4-5.6c-3.8-3.8-5.8-8.4-5.8-14s1.9-10.2,5.8-14c3.8-3.7,8.7-5.6,14.4-5.6c5.7,0,10.5,1.9,14.4,5.6
				C289.8,49.9,291.7,54.6,291.7,60.3z M271.6,49.8c-2.1,0-3.9,0.6-5.4,1.8c-1.5,1.2-2.6,2.8-3.2,4.9h17.3c-0.6-2.1-1.6-3.7-3.2-4.9
				C275.4,50.4,273.6,49.8,271.6,49.8z"/>
			<path class="st0" d="M325.2,26h10.7v52.8h-10.7v-4.1c-3,3.3-6.8,5-11.3,5c-5.1,0-9.4-1.9-12.9-5.6c-3.5-3.8-5.2-8.4-5.2-14
				s1.7-10.2,5.2-14c3.5-3.7,7.7-5.6,12.9-5.6c4.5,0,8.3,1.7,11.3,5V26z M316,69.4c2.6,0,4.8-0.9,6.6-2.7c1.7-1.8,2.6-4,2.6-6.6
				c0-2.6-0.9-4.8-2.6-6.6c-1.7-1.8-3.9-2.6-6.6-2.6c-2.6,0-4.8,0.9-6.5,2.6c-1.7,1.8-2.6,4-2.6,6.6c0,2.6,0.9,4.8,2.6,6.6
				C311.2,68.5,313.4,69.4,316,69.4z"/>
			<path class="st0" d="M344.4,78.8V41.4h10.7v37.4H344.4z"/>
			<path class="st0" d="M385.7,41.4v9.7h-7.2v27.7h-10.7V51.2h-6.8v-9.7h6.8V34l10.7-3.6v11H385.7z"/>
			<circle class="st1" cx="349.7" cy="31.4" r="5.3"/>
			<rect x="164.8" y="41.4" class="st0" width="10.7" height="37.4"/>
		</g>
	</g>
	<g>
		<path class="st1" d="M140.7,97.9h-2.6v-2h2.6v-2.7c0-1.6,0.3-2.8,0.9-3.6c0.6-0.8,1.7-1.2,3.2-1.2c0.3,0,0.5,0,0.8,0
			c0.3,0,0.6,0.1,0.9,0.2l-0.3,2c-0.2-0.1-0.4-0.1-0.6-0.2c-0.2,0-0.4-0.1-0.7-0.1c-0.4,0-0.8,0.1-1,0.2c-0.3,0.1-0.5,0.3-0.6,0.5
			c-0.1,0.2-0.2,0.5-0.3,0.9c0,0.3-0.1,0.7-0.1,1.1V96h2.7v2H143v10.1h-2.3V97.9z"/>
		<path class="st1" d="M147.9,91.6c0-0.5,0.2-0.9,0.5-1.2c0.3-0.3,0.7-0.5,1.2-0.5c0.5,0,0.9,0.2,1.2,0.5c0.3,0.3,0.5,0.7,0.5,1.2
			c0,0.5-0.2,0.9-0.5,1.2c-0.3,0.3-0.7,0.5-1.2,0.5c-0.5,0-0.9-0.2-1.2-0.5C148.1,92.5,147.9,92.1,147.9,91.6z M148.5,96h2.3v12.1
			h-2.3V96z"/>
		<path class="st1" d="M154.4,96h2.3v1.9h0.1c0.3-0.6,0.8-1.2,1.5-1.6c0.7-0.4,1.5-0.6,2.5-0.6c0.6,0,1.1,0.1,1.7,0.3
			c0.5,0.2,1,0.5,1.4,0.8c0.4,0.4,0.7,0.9,1,1.4c0.2,0.6,0.4,1.3,0.4,2.1v7.8h-2.3v-7.2c0-0.6-0.1-1-0.2-1.4c-0.2-0.4-0.4-0.7-0.6-1
			c-0.3-0.2-0.5-0.4-0.9-0.5c-0.3-0.1-0.7-0.2-1-0.2c-0.5,0-0.9,0.1-1.3,0.2c-0.4,0.2-0.8,0.4-1.1,0.7c-0.3,0.3-0.5,0.8-0.7,1.3
			s-0.3,1.1-0.3,1.8v6.2h-2.3V96z"/>
		<path class="st1" d="M168.7,97.4c0.6-0.6,1.4-1,2.2-1.3c0.9-0.3,1.7-0.4,2.6-0.4c0.9,0,1.6,0.1,2.3,0.3c0.6,0.2,1.2,0.5,1.6,0.9
			c0.4,0.4,0.7,0.8,0.9,1.3c0.2,0.5,0.3,1,0.3,1.5v6.2c0,0.4,0,0.8,0,1.2c0,0.4,0,0.7,0.1,1h-2c-0.1-0.6-0.1-1.2-0.1-1.8h-0.1
			c-0.5,0.8-1.1,1.3-1.8,1.7c-0.7,0.3-1.5,0.5-2.4,0.5c-0.6,0-1.1-0.1-1.6-0.2c-0.5-0.2-1-0.4-1.3-0.7c-0.4-0.3-0.7-0.7-0.9-1.1
			c-0.2-0.5-0.3-1-0.3-1.6c0-0.8,0.2-1.4,0.5-2c0.3-0.5,0.8-1,1.4-1.3c0.6-0.3,1.3-0.6,2.1-0.7c0.8-0.1,1.7-0.2,2.6-0.2h1.7V100
			c0-0.3-0.1-0.6-0.2-0.9c-0.1-0.3-0.3-0.6-0.5-0.8c-0.2-0.2-0.5-0.4-0.9-0.6c-0.4-0.1-0.8-0.2-1.3-0.2c-0.4,0-0.8,0-1.2,0.1
			c-0.3,0.1-0.6,0.2-0.9,0.3c-0.3,0.1-0.5,0.3-0.7,0.4c-0.2,0.2-0.4,0.3-0.6,0.5L168.7,97.4z M175.2,102.2c-0.5,0-1.1,0-1.7,0.1
			c-0.6,0.1-1.1,0.2-1.6,0.3c-0.5,0.2-0.9,0.4-1.1,0.7c-0.3,0.3-0.4,0.7-0.4,1.2c0,0.7,0.2,1.2,0.7,1.5s1.1,0.5,1.9,0.5
			c0.6,0,1.2-0.1,1.6-0.3c0.4-0.2,0.8-0.5,1.1-0.8c0.3-0.3,0.5-0.7,0.6-1.1c0.1-0.4,0.2-0.8,0.2-1.2v-0.8H175.2z"/>
		<path class="st1" d="M181.9,96h2.3v1.9h0.1c0.3-0.6,0.8-1.2,1.5-1.6c0.7-0.4,1.5-0.6,2.5-0.6c0.6,0,1.1,0.1,1.7,0.3
			c0.5,0.2,1,0.5,1.4,0.8c0.4,0.4,0.7,0.9,1,1.4c0.2,0.6,0.4,1.3,0.4,2.1v7.8h-2.3v-7.2c0-0.6-0.1-1-0.2-1.4c-0.2-0.4-0.4-0.7-0.6-1
			c-0.3-0.2-0.5-0.4-0.9-0.5c-0.3-0.1-0.7-0.2-1-0.2c-0.5,0-0.9,0.1-1.3,0.2c-0.4,0.2-0.8,0.4-1.1,0.7c-0.3,0.3-0.5,0.8-0.7,1.3
			s-0.3,1.1-0.3,1.8v6.2h-2.3V96z"/>
		<path class="st1" d="M204.8,99.2c-0.4-0.4-0.9-0.8-1.3-1c-0.5-0.2-1-0.3-1.7-0.3c-0.6,0-1.2,0.1-1.6,0.3c-0.5,0.2-0.9,0.5-1.2,0.9
			c-0.3,0.4-0.6,0.9-0.7,1.4c-0.2,0.5-0.2,1.1-0.2,1.6c0,0.6,0.1,1.1,0.3,1.6c0.2,0.5,0.5,0.9,0.8,1.3c0.3,0.4,0.8,0.7,1.2,0.9
			c0.5,0.2,1,0.3,1.6,0.3c0.6,0,1.2-0.1,1.7-0.3c0.5-0.2,0.9-0.6,1.3-1l1.6,1.6c-0.6,0.7-1.3,1.1-2.1,1.4c-0.8,0.3-1.6,0.4-2.5,0.4
			c-0.9,0-1.8-0.2-2.6-0.5c-0.8-0.3-1.4-0.7-2-1.3c-0.6-0.6-1-1.2-1.3-2c-0.3-0.8-0.5-1.6-0.5-2.6c0-0.9,0.2-1.8,0.5-2.6
			c0.3-0.8,0.7-1.5,1.3-2s1.2-1,2-1.3c0.8-0.3,1.6-0.5,2.6-0.5c0.9,0,1.7,0.2,2.5,0.5c0.8,0.3,1.5,0.8,2.1,1.4L204.8,99.2z"/>
		<path class="st1" d="M210.2,102.9c0,0.5,0.1,1,0.3,1.4c0.2,0.4,0.5,0.8,0.9,1.1c0.4,0.3,0.8,0.5,1.3,0.7c0.5,0.2,1,0.3,1.5,0.3
			c0.7,0,1.3-0.2,1.9-0.5c0.5-0.3,1-0.8,1.5-1.3l1.7,1.3c-1.3,1.7-3.1,2.5-5.4,2.5c-1,0-1.8-0.2-2.6-0.5s-1.4-0.8-2-1.3
			c-0.5-0.6-1-1.2-1.2-2c-0.3-0.8-0.4-1.6-0.4-2.5c0-0.9,0.2-1.7,0.5-2.5c0.3-0.8,0.7-1.4,1.3-2c0.6-0.6,1.2-1,2-1.3
			c0.8-0.3,1.6-0.5,2.5-0.5c1.1,0,2,0.2,2.7,0.6c0.7,0.4,1.4,0.9,1.8,1.5s0.8,1.3,1,2c0.2,0.8,0.3,1.5,0.3,2.3v0.8H210.2z
			 M217.4,101c0-0.5-0.1-1-0.2-1.4c-0.1-0.4-0.4-0.8-0.7-1.1c-0.3-0.3-0.7-0.6-1.1-0.7c-0.4-0.2-0.9-0.3-1.5-0.3
			c-0.6,0-1.1,0.1-1.5,0.3c-0.5,0.2-0.9,0.5-1.2,0.8c-0.3,0.3-0.6,0.7-0.8,1.1c-0.2,0.4-0.3,0.8-0.3,1.2H217.4z"/>
		<path class="st1" d="M228.3,96h2.7l3.6,9.5h0.1L238,96h2.5l-5.7,14.7c-0.2,0.5-0.4,1-0.6,1.4c-0.2,0.4-0.5,0.8-0.8,1.1
			c-0.3,0.3-0.7,0.5-1.1,0.7c-0.4,0.2-1,0.3-1.6,0.3c-0.3,0-0.7,0-1-0.1c-0.3,0-0.7-0.1-1-0.3l0.3-2.1c0.5,0.2,0.9,0.3,1.4,0.3
			c0.4,0,0.7,0,0.9-0.1c0.2-0.1,0.5-0.2,0.6-0.4c0.2-0.2,0.3-0.4,0.4-0.6c0.1-0.2,0.2-0.5,0.4-0.8l0.7-1.9L228.3,96z"/>
		<path class="st1" d="M241.9,102c0-0.9,0.2-1.7,0.5-2.5c0.3-0.8,0.8-1.4,1.4-2c0.6-0.6,1.3-1,2-1.4c0.8-0.3,1.6-0.5,2.5-0.5
			c0.9,0,1.7,0.2,2.5,0.5c0.8,0.3,1.5,0.8,2,1.4c0.6,0.6,1,1.3,1.4,2c0.3,0.8,0.5,1.6,0.5,2.5c0,0.9-0.2,1.7-0.5,2.5
			c-0.3,0.8-0.8,1.4-1.4,2c-0.6,0.6-1.3,1-2,1.4c-0.8,0.3-1.6,0.5-2.5,0.5c-0.9,0-1.7-0.2-2.5-0.5c-0.8-0.3-1.5-0.8-2-1.4
			c-0.6-0.6-1-1.2-1.4-2C242.1,103.7,241.9,102.9,241.9,102z M244.4,102c0,0.6,0.1,1.2,0.3,1.7c0.2,0.5,0.5,1,0.8,1.3
			c0.3,0.4,0.8,0.7,1.3,0.9c0.5,0.2,1,0.3,1.7,0.3c0.6,0,1.2-0.1,1.7-0.3c0.5-0.2,0.9-0.5,1.3-0.9c0.3-0.4,0.6-0.8,0.8-1.3
			c0.2-0.5,0.3-1.1,0.3-1.7c0-0.6-0.1-1.2-0.3-1.7c-0.2-0.5-0.5-1-0.8-1.3c-0.3-0.4-0.8-0.7-1.3-0.9c-0.5-0.2-1-0.3-1.7-0.3
			c-0.6,0-1.2,0.1-1.7,0.3c-0.5,0.2-0.9,0.5-1.3,0.9c-0.3,0.4-0.6,0.8-0.8,1.3C244.5,100.8,244.4,101.4,244.4,102z"/>
		<path class="st1" d="M268.4,108.1h-2.3v-1.9h-0.1c-0.3,0.6-0.8,1.2-1.5,1.6c-0.7,0.4-1.5,0.6-2.5,0.6c-0.6,0-1.2-0.1-1.7-0.3
			c-0.5-0.2-1-0.5-1.4-0.8c-0.4-0.4-0.7-0.9-1-1.4c-0.2-0.6-0.4-1.3-0.4-2.1V96h2.3v7.2c0,0.6,0.1,1,0.2,1.4c0.2,0.4,0.4,0.7,0.6,1
			c0.3,0.2,0.5,0.4,0.9,0.5c0.3,0.1,0.7,0.2,1,0.2c0.5,0,0.9-0.1,1.3-0.2c0.4-0.2,0.8-0.4,1.1-0.7c0.3-0.3,0.5-0.8,0.7-1.3
			c0.2-0.5,0.3-1.1,0.3-1.8V96h2.3V108.1z"/>
		<path class="st1" d="M271.9,96h2.3v1.9h0.1c0.2-0.3,0.4-0.6,0.6-0.9c0.3-0.3,0.5-0.5,0.9-0.7c0.3-0.2,0.7-0.3,1-0.4
			c0.4-0.1,0.7-0.2,1.1-0.2c0.4,0,0.7,0.1,1,0.2l-0.1,2.5c-0.2-0.1-0.4-0.1-0.6-0.1c-0.2,0-0.4-0.1-0.6-0.1c-1.1,0-2,0.3-2.6,0.9
			c-0.6,0.6-0.9,1.6-0.9,2.9v6.1h-2.3V96z"/>
		<path class="st1" d="M288.5,96h2.3v1.7h0.1c0.4-0.6,1.1-1.2,1.8-1.5c0.8-0.4,1.6-0.5,2.4-0.5c0.9,0,1.8,0.2,2.5,0.5
			c0.8,0.3,1.4,0.8,1.9,1.4c0.5,0.6,0.9,1.3,1.2,2c0.3,0.8,0.4,1.6,0.4,2.5c0,0.9-0.1,1.7-0.4,2.5c-0.3,0.8-0.7,1.4-1.2,2
			c-0.5,0.6-1.2,1-1.9,1.3c-0.8,0.3-1.6,0.5-2.5,0.5c-0.9,0-1.7-0.2-2.5-0.5c-0.8-0.4-1.4-0.9-1.8-1.5h-0.1v8.9h-2.3V96z
			 M294.7,97.8c-0.6,0-1.2,0.1-1.7,0.3c-0.5,0.2-0.9,0.5-1.3,0.9c-0.3,0.4-0.6,0.8-0.8,1.3c-0.2,0.5-0.3,1.1-0.3,1.7
			c0,0.6,0.1,1.2,0.3,1.7c0.2,0.5,0.5,1,0.8,1.3c0.3,0.4,0.8,0.7,1.3,0.9c0.5,0.2,1,0.3,1.7,0.3c0.6,0,1.2-0.1,1.7-0.3
			c0.5-0.2,0.9-0.5,1.3-0.9c0.3-0.4,0.6-0.8,0.8-1.3c0.2-0.5,0.3-1.1,0.3-1.7c0-0.6-0.1-1.2-0.3-1.7c-0.2-0.5-0.5-1-0.8-1.3
			c-0.3-0.4-0.8-0.7-1.3-0.9C295.9,97.9,295.4,97.8,294.7,97.8z"/>
		<path class="st1" d="M304.1,96h2.3v1.9h0.1c0.2-0.3,0.4-0.6,0.6-0.9c0.3-0.3,0.5-0.5,0.9-0.7c0.3-0.2,0.7-0.3,1-0.4
			c0.4-0.1,0.7-0.2,1.1-0.2c0.4,0,0.7,0.1,1,0.2l-0.1,2.5c-0.2-0.1-0.4-0.1-0.6-0.1c-0.2,0-0.4-0.1-0.6-0.1c-1.1,0-2,0.3-2.6,0.9
			c-0.6,0.6-0.9,1.6-0.9,2.9v6.1h-2.3V96z"/>
		<path class="st1" d="M312.5,102c0-0.9,0.2-1.7,0.5-2.5c0.3-0.8,0.8-1.4,1.4-2c0.6-0.6,1.3-1,2-1.4c0.8-0.3,1.6-0.5,2.5-0.5
			c0.9,0,1.7,0.2,2.5,0.5c0.8,0.3,1.5,0.8,2,1.4c0.6,0.6,1,1.3,1.4,2c0.3,0.8,0.5,1.6,0.5,2.5c0,0.9-0.2,1.7-0.5,2.5
			c-0.3,0.8-0.8,1.4-1.4,2c-0.6,0.6-1.3,1-2,1.4c-0.8,0.3-1.6,0.5-2.5,0.5c-0.9,0-1.7-0.2-2.5-0.5c-0.8-0.3-1.5-0.8-2-1.4
			c-0.6-0.6-1-1.2-1.4-2C312.6,103.7,312.5,102.9,312.5,102z M314.9,102c0,0.6,0.1,1.2,0.3,1.7c0.2,0.5,0.5,1,0.8,1.3
			c0.3,0.4,0.8,0.7,1.3,0.9c0.5,0.2,1,0.3,1.7,0.3c0.6,0,1.2-0.1,1.7-0.3c0.5-0.2,0.9-0.5,1.3-0.9c0.3-0.4,0.6-0.8,0.8-1.3
			c0.2-0.5,0.3-1.1,0.3-1.7c0-0.6-0.1-1.2-0.3-1.7c-0.2-0.5-0.5-1-0.8-1.3c-0.3-0.4-0.8-0.7-1.3-0.9c-0.5-0.2-1-0.3-1.7-0.3
			c-0.6,0-1.2,0.1-1.7,0.3c-0.5,0.2-0.9,0.5-1.3,0.9c-0.3,0.4-0.6,0.8-0.8,1.3C315,100.8,314.9,101.4,314.9,102z"/>
		<path class="st1" d="M330.7,96v13.9c0,0.3,0,0.7-0.1,1.2c0,0.5-0.2,1-0.4,1.5c-0.2,0.5-0.6,0.9-1.1,1.2c-0.5,0.3-1.2,0.5-2.1,0.5
			c-0.3,0-0.5,0-0.8-0.1c-0.2,0-0.5-0.1-0.7-0.2l0.3-2.1c0.1,0.1,0.3,0.1,0.5,0.1c0.2,0,0.3,0.1,0.5,0.1c0.6,0,1.1-0.2,1.3-0.6
			c0.2-0.4,0.4-1,0.4-1.8V96H330.7z M327.9,91.6c0-0.5,0.2-0.9,0.5-1.2c0.3-0.3,0.7-0.5,1.2-0.5c0.5,0,0.9,0.2,1.2,0.5
			c0.3,0.3,0.5,0.7,0.5,1.2c0,0.5-0.2,0.9-0.5,1.2c-0.3,0.3-0.7,0.5-1.2,0.5c-0.5,0-0.9-0.2-1.2-0.5
			C328.1,92.5,327.9,92.1,327.9,91.6z"/>
		<path class="st1" d="M336.1,102.9c0,0.5,0.1,1,0.3,1.4c0.2,0.4,0.5,0.8,0.9,1.1c0.4,0.3,0.8,0.5,1.3,0.7c0.5,0.2,1,0.3,1.5,0.3
			c0.7,0,1.3-0.2,1.9-0.5c0.5-0.3,1-0.8,1.5-1.3l1.7,1.3c-1.3,1.7-3.1,2.5-5.4,2.5c-1,0-1.8-0.2-2.6-0.5c-0.8-0.3-1.4-0.8-2-1.3
			c-0.5-0.6-1-1.2-1.2-2c-0.3-0.8-0.4-1.6-0.4-2.5c0-0.9,0.2-1.7,0.5-2.5c0.3-0.8,0.7-1.4,1.3-2c0.6-0.6,1.2-1,2-1.3
			c0.8-0.3,1.6-0.5,2.5-0.5c1.1,0,2,0.2,2.7,0.6c0.7,0.4,1.4,0.9,1.8,1.5c0.5,0.6,0.8,1.3,1,2c0.2,0.8,0.3,1.5,0.3,2.3v0.8H336.1z
			 M343.4,101c0-0.5-0.1-1-0.2-1.4c-0.1-0.4-0.4-0.8-0.7-1.1s-0.7-0.6-1.1-0.7c-0.4-0.2-0.9-0.3-1.5-0.3c-0.6,0-1.1,0.1-1.5,0.3
			c-0.5,0.2-0.9,0.5-1.2,0.8c-0.3,0.3-0.6,0.7-0.8,1.1c-0.2,0.4-0.3,0.8-0.3,1.2H343.4z"/>
		<path class="st1" d="M357.3,99.2c-0.4-0.4-0.9-0.8-1.3-1c-0.5-0.2-1-0.3-1.7-0.3c-0.6,0-1.2,0.1-1.6,0.3c-0.5,0.2-0.9,0.5-1.2,0.9
			c-0.3,0.4-0.6,0.9-0.7,1.4c-0.2,0.5-0.2,1.1-0.2,1.6c0,0.6,0.1,1.1,0.3,1.6c0.2,0.5,0.5,0.9,0.8,1.3c0.3,0.4,0.8,0.7,1.2,0.9
			c0.5,0.2,1,0.3,1.6,0.3c0.6,0,1.2-0.1,1.7-0.3c0.5-0.2,0.9-0.6,1.3-1l1.6,1.6c-0.6,0.7-1.3,1.1-2.1,1.4c-0.8,0.3-1.6,0.4-2.5,0.4
			c-0.9,0-1.8-0.2-2.6-0.5c-0.8-0.3-1.4-0.7-2-1.3c-0.6-0.6-1-1.2-1.3-2c-0.3-0.8-0.5-1.6-0.5-2.6c0-0.9,0.2-1.8,0.5-2.6
			c0.3-0.8,0.7-1.5,1.3-2s1.2-1,2-1.3c0.8-0.3,1.6-0.5,2.6-0.5c0.9,0,1.7,0.2,2.5,0.5c0.8,0.3,1.5,0.8,2.1,1.4L357.3,99.2z"/>
		<path class="st1" d="M367.4,97.9h-3.3v5.5c0,0.3,0,0.7,0,1c0,0.3,0.1,0.6,0.2,0.9c0.1,0.3,0.3,0.5,0.5,0.6c0.2,0.2,0.6,0.2,1,0.2
			c0.3,0,0.6,0,0.8-0.1c0.3-0.1,0.6-0.1,0.8-0.3v2.1c-0.3,0.2-0.6,0.3-1.1,0.3c-0.4,0.1-0.8,0.1-1,0.1c-0.9,0-1.6-0.1-2.1-0.4
			c-0.5-0.2-0.8-0.6-1.1-1c-0.2-0.4-0.4-0.8-0.4-1.3c0-0.5-0.1-1-0.1-1.5v-6.3h-2.7v-2h2.7v-3.4h2.3V96h3.3V97.9z"/>
		<path class="st1" d="M376.8,99c-0.3-0.3-0.6-0.6-1-0.9c-0.4-0.2-0.9-0.3-1.5-0.3c-0.5,0-1,0.1-1.4,0.3c-0.4,0.2-0.6,0.6-0.6,1
			c0,0.4,0.1,0.6,0.3,0.9c0.2,0.2,0.5,0.4,0.8,0.5c0.3,0.1,0.7,0.2,1,0.3c0.4,0.1,0.7,0.1,0.9,0.2c0.5,0.1,1,0.3,1.4,0.4
			c0.4,0.2,0.8,0.4,1.1,0.7c0.3,0.3,0.6,0.6,0.7,1c0.2,0.4,0.3,0.9,0.3,1.4c0,0.7-0.1,1.3-0.4,1.8c-0.3,0.5-0.7,0.9-1.1,1.2
			c-0.5,0.3-1,0.5-1.6,0.7c-0.6,0.1-1.2,0.2-1.8,0.2c-1,0-1.9-0.2-2.6-0.5c-0.8-0.3-1.4-0.9-2-1.7l1.7-1.4c0.4,0.4,0.8,0.7,1.3,1
			c0.5,0.3,1,0.4,1.7,0.4c0.3,0,0.6,0,0.9-0.1c0.3-0.1,0.6-0.2,0.8-0.3c0.2-0.1,0.4-0.3,0.6-0.5c0.1-0.2,0.2-0.4,0.2-0.7
			c0-0.3-0.1-0.6-0.3-0.8c-0.2-0.2-0.5-0.4-0.8-0.5c-0.3-0.1-0.6-0.2-0.9-0.3s-0.6-0.1-0.9-0.2c-0.5-0.1-1-0.3-1.4-0.4
			c-0.4-0.2-0.8-0.4-1.2-0.6c-0.3-0.3-0.6-0.6-0.8-1c-0.2-0.4-0.3-0.9-0.3-1.5c0-0.6,0.1-1.2,0.4-1.6c0.3-0.5,0.6-0.9,1-1.2
			c0.4-0.3,0.9-0.5,1.5-0.7s1.1-0.2,1.7-0.2c0.8,0,1.6,0.2,2.4,0.5c0.8,0.3,1.3,0.8,1.8,1.5L376.8,99z"/>
	</g>
</g>
</svg>
