<?xml version="1.0" encoding="utf-8"?>
<!-- Generator: Adobe Illustrator 24.0.2, SVG Export Plug-In . SVG Version: 6.00 Build 0)  -->
<svg version="1.1" id="Calque_1" xmlns="http://www.w3.org/2000/svg" xmlns:xlink="http://www.w3.org/1999/xlink" x="0px" y="0px"
	 viewBox="0 0 392.4 117.7" style="enable-background:new 0 0 392.4 117.7;" xml:space="preserve">
<style type="text/css">
	.st0{fill:#004996;}
	.st1{fill:#FF2146;}
</style>
<g>
	<g>
		<g>
			<path class="st0" d="M53.3,40.5c4.1,0,7.3,1.3,9.8,3.8c2.5,2.5,3.7,5.9,3.7,10v24.4H56.1V57.6c0-2-0.6-3.6-1.8-4.9
				c-1.2-1.2-2.7-1.9-4.7-1.9c-2.1,0-3.8,0.6-5.1,1.9c-1.3,1.3-1.9,2.9-1.9,5v21.1H31.9V57.6c0-2-0.6-3.6-1.8-4.9
				c-1.2-1.2-2.8-1.9-4.7-1.9c-2.1,0-3.8,0.6-5.1,1.9c-1.3,1.3-1.9,2.9-1.9,5v21.1H7.7V41.4h10.7v3.9c2.8-3.2,6.3-4.8,10.6-4.8
				c5.4,0,9.4,2.1,11.8,6.4C43.8,42.7,47.9,40.5,53.3,40.5z"/>
			<path class="st0" d="M98.8,41.4h10.7v37.4H98.8v-4.1c-2.7,3.3-6.4,5-10.9,5c-4.2,0-7.5-1.3-10-3.9c-2.5-2.6-3.8-6-3.8-10.3V41.4
				h10.7v21c0,2.1,0.6,3.8,1.8,5.1c1.2,1.3,2.8,1.9,4.9,1.9c2.1,0,3.9-0.7,5.2-2c1.3-1.3,2-3,2-5.1V41.4z"/>
			<path class="st0" d="M118,78.8V26h10.7v52.8H118z"/>
			<path class="st0" d="M159.3,41.4v9.7h-7.2v27.7h-10.7V51.2h-6.8v-9.7h6.8v-8.7l10.7-2.4v11H159.3z"/>
			<path class="st1" d="M170.2,36.7C170.2,36.7,170.2,36.7,170.2,36.7c-2.3,0-3.8-1.5-4.3-2c-0.7-0.7-3.2-3.1-5.5-5.4
				c-0.8-0.8-1.6-1.5-2.3-2.2c-1.8-1.8-1.8-4.7,0-6.5v0c1.8-1.8,4.6-1.8,6.4,0c0.7,0.7,1.5,1.5,2.3,2.2c1.3,1.2,2.5,2.4,3.5,3.4
				c7.4-7.2,15.8-15.5,23-22.6c1.8-1.8,4.7-1.8,6.5,0v0c1.8,1.8,1.8,4.7,0,6.5c-7.9,7.9-17.4,17.2-25.3,24.9
				C173.9,35.3,172.4,36.7,170.2,36.7z"/>
			<path class="st0" d="M202,79.7c-5.8,0-10.6-1.9-14.4-5.6c-3.8-3.8-5.8-8.4-5.8-14s1.9-10.2,5.8-14c3.8-3.7,8.7-5.6,14.4-5.6
				c5.3,0,9.8,1.6,13.5,4.8c3.7,3.2,5.9,7.2,6.5,12.2h-11.2c-0.5-2-1.6-3.5-3.2-4.8c-1.6-1.2-3.4-1.8-5.6-1.8
				c-2.6,0-4.8,0.9-6.6,2.6c-1.7,1.8-2.6,4-2.6,6.6c0,2.6,0.9,4.8,2.6,6.6c1.7,1.8,3.9,2.7,6.6,2.7c2.1,0,4-0.6,5.6-1.8
				c1.6-1.2,2.6-2.8,3.2-4.8H222c-0.6,4.9-2.8,9-6.5,12.2C211.8,78.1,207.3,79.7,202,79.7z"/>
			<path class="st0" d="M238.7,46.4c2.9-3.7,6.4-5.6,10.4-5.6v11c-3.3,0-5.9,0.9-7.7,2.6c-1.8,1.7-2.7,4-2.7,7v17.4h-10.7V41.4h10.7
				V46.4z"/>
			<path class="st0" d="M291.7,60.3c0,1.4-0.1,2.5-0.3,3.3h-28.6c0.6,2.1,1.7,3.8,3.3,5c1.6,1.2,3.5,1.8,5.7,1.8
				c1.8,0,3.4-0.4,4.8-1.1c1.4-0.7,2.4-1.6,3.1-2.7H291c-1.4,3.9-3.8,7.1-7.3,9.5c-3.5,2.4-7.5,3.6-12.1,3.6
				c-5.8,0-10.6-1.9-14.4-5.6c-3.8-3.8-5.8-8.4-5.8-14s1.9-10.2,5.8-14c3.8-3.7,8.7-5.6,14.4-5.6c5.7,0,10.5,1.9,14.4,5.6
				C289.8,49.9,291.7,54.6,291.7,60.3z M271.6,49.8c-2.1,0-3.9,0.6-5.4,1.8c-1.5,1.2-2.6,2.8-3.2,4.9h17.3c-0.6-2.1-1.6-3.7-3.2-4.9
				C275.4,50.4,273.6,49.8,271.6,49.8z"/>
			<path class="st0" d="M325.2,26h10.7v52.8h-10.7v-4.1c-3,3.3-6.8,5-11.3,5c-5.1,0-9.4-1.9-12.9-5.6c-3.5-3.8-5.2-8.4-5.2-14
				s1.7-10.2,5.2-14c3.5-3.7,7.7-5.6,12.9-5.6c4.5,0,8.3,1.7,11.3,5V26z M316,69.4c2.6,0,4.8-0.9,6.6-2.7c1.7-1.8,2.6-4,2.6-6.6
				c0-2.6-0.9-4.8-2.6-6.6c-1.7-1.8-3.9-2.6-6.6-2.6c-2.6,0-4.8,0.9-6.5,2.6c-1.7,1.8-2.6,4-2.6,6.6c0,2.6,0.9,4.8,2.6,6.6
				C311.2,68.5,313.4,69.4,316,69.4z"/>
			<path class="st0" d="M344.4,78.8V41.4h10.7v37.4H344.4z"/>
			<path class="st0" d="M385.7,41.4v9.7h-7.2v27.7h-10.7V51.2h-6.8v-9.7h6.8V34l10.7-3.6v11H385.7z"/>
			<circle class="st1" cx="349.7" cy="31.4" r="5.3"/>
			<rect x="164.8" y="41.4" class="st0" width="10.7" height="37.4"/>
		</g>
	</g>
</g>
<g>
	<path class="st1" d="M119.3,97h-2.7v-2.1h2.7V92c0-1.7,0.3-3,1-3.8c0.7-0.8,1.8-1.2,3.4-1.2c0.3,0,0.5,0,0.8,0c0.3,0,0.6,0.1,1,0.2
		l-0.3,2.1c-0.2-0.1-0.5-0.2-0.7-0.2c-0.2,0-0.4-0.1-0.7-0.1c-0.4,0-0.8,0.1-1.1,0.2c-0.3,0.1-0.5,0.3-0.6,0.6
		c-0.2,0.3-0.3,0.5-0.3,0.9c0,0.3-0.1,0.7-0.1,1.2v2.9h2.9V97h-2.9v10.6h-2.4V97z"/>
	<path class="st1" d="M126.9,90.3c0-0.5,0.2-0.9,0.5-1.2c0.3-0.3,0.8-0.5,1.2-0.5c0.5,0,0.9,0.2,1.2,0.5c0.3,0.3,0.5,0.8,0.5,1.2
		s-0.2,0.9-0.5,1.2c-0.3,0.3-0.8,0.5-1.2,0.5c-0.5,0-0.9-0.2-1.2-0.5C127,91.2,126.9,90.8,126.9,90.3z M127.4,94.9h2.4v12.7h-2.4
		V94.9z"/>
	<path class="st1" d="M133.7,94.9h2.4v2h0.1c0.3-0.7,0.8-1.2,1.6-1.6c0.8-0.4,1.6-0.6,2.6-0.6c0.6,0,1.2,0.1,1.8,0.3
		c0.6,0.2,1.1,0.5,1.5,0.9c0.4,0.4,0.8,0.9,1,1.5c0.2,0.6,0.4,1.3,0.4,2.2v8.2h-2.4v-7.5c0-0.6-0.1-1.1-0.2-1.5
		c-0.2-0.4-0.4-0.8-0.6-1c-0.3-0.3-0.6-0.4-0.9-0.6c-0.3-0.1-0.7-0.2-1.1-0.2c-0.5,0-1,0.1-1.4,0.2c-0.4,0.2-0.8,0.4-1.1,0.8
		c-0.3,0.3-0.6,0.8-0.8,1.3c-0.2,0.5-0.3,1.2-0.3,1.9v6.5h-2.4V94.9z"/>
	<path class="st1" d="M148.6,96.4c0.7-0.6,1.5-1.1,2.4-1.4c0.9-0.3,1.8-0.5,2.7-0.5c0.9,0,1.7,0.1,2.4,0.3c0.7,0.2,1.2,0.5,1.6,0.9
		c0.4,0.4,0.7,0.8,1,1.4c0.2,0.5,0.3,1,0.3,1.6v6.5c0,0.4,0,0.9,0,1.2c0,0.4,0,0.7,0.1,1.1h-2.1c-0.1-0.6-0.1-1.3-0.1-1.9h-0.1
		c-0.5,0.8-1.2,1.4-1.9,1.7c-0.7,0.3-1.6,0.5-2.5,0.5c-0.6,0-1.2-0.1-1.7-0.2c-0.5-0.2-1-0.4-1.4-0.7c-0.4-0.3-0.7-0.7-1-1.2
		c-0.2-0.5-0.3-1-0.3-1.6c0-0.8,0.2-1.5,0.5-2.1c0.4-0.6,0.9-1,1.5-1.4c0.6-0.3,1.4-0.6,2.2-0.8c0.8-0.2,1.8-0.2,2.7-0.2h1.8v-0.5
		c0-0.3-0.1-0.6-0.2-1c-0.1-0.3-0.3-0.6-0.6-0.9c-0.3-0.3-0.6-0.5-0.9-0.6c-0.4-0.2-0.8-0.2-1.3-0.2c-0.5,0-0.9,0-1.2,0.1
		c-0.3,0.1-0.7,0.2-1,0.3c-0.3,0.1-0.5,0.3-0.8,0.5c-0.2,0.2-0.5,0.3-0.7,0.5L148.6,96.4z M155.4,101.5c-0.6,0-1.2,0-1.8,0.1
		c-0.6,0.1-1.1,0.2-1.6,0.4c-0.5,0.2-0.9,0.4-1.2,0.8c-0.3,0.3-0.5,0.7-0.5,1.2c0,0.7,0.2,1.3,0.7,1.6c0.5,0.3,1.2,0.5,2,0.5
		c0.7,0,1.2-0.1,1.7-0.3c0.5-0.2,0.8-0.5,1.1-0.9c0.3-0.4,0.5-0.8,0.6-1.2c0.1-0.4,0.2-0.9,0.2-1.3v-0.8H155.4z"/>
	<path class="st1" d="M162.5,94.9h2.4v2h0.1c0.3-0.7,0.8-1.2,1.6-1.6c0.8-0.4,1.6-0.6,2.6-0.6c0.6,0,1.2,0.1,1.8,0.3
		c0.6,0.2,1.1,0.5,1.5,0.9c0.4,0.4,0.8,0.9,1,1.5c0.2,0.6,0.4,1.3,0.4,2.2v8.2h-2.4v-7.5c0-0.6-0.1-1.1-0.2-1.5
		c-0.2-0.4-0.4-0.8-0.6-1c-0.3-0.3-0.6-0.4-0.9-0.6c-0.3-0.1-0.7-0.2-1.1-0.2c-0.5,0-1,0.1-1.4,0.2c-0.4,0.2-0.8,0.4-1.1,0.8
		c-0.3,0.3-0.6,0.8-0.8,1.3c-0.2,0.5-0.3,1.2-0.3,1.9v6.5h-2.4V94.9z"/>
	<path class="st1" d="M186.4,98.3c-0.4-0.5-0.9-0.8-1.4-1.1c-0.5-0.2-1.1-0.4-1.8-0.4c-0.7,0-1.2,0.1-1.7,0.4
		c-0.5,0.2-0.9,0.6-1.2,1c-0.3,0.4-0.6,0.9-0.8,1.4c-0.2,0.5-0.3,1.1-0.3,1.7c0,0.6,0.1,1.1,0.3,1.7c0.2,0.5,0.5,1,0.8,1.4
		c0.4,0.4,0.8,0.7,1.3,0.9c0.5,0.2,1.1,0.3,1.7,0.3c0.7,0,1.3-0.1,1.7-0.4c0.5-0.2,0.9-0.6,1.3-1.1l1.7,1.7
		c-0.6,0.7-1.4,1.2-2.2,1.5c-0.8,0.3-1.7,0.5-2.6,0.5c-1,0-1.9-0.2-2.7-0.5c-0.8-0.3-1.5-0.8-2.1-1.4c-0.6-0.6-1-1.3-1.4-2.1
		c-0.3-0.8-0.5-1.7-0.5-2.7c0-1,0.2-1.9,0.5-2.7c0.3-0.8,0.8-1.5,1.4-2.1c0.6-0.6,1.3-1,2.1-1.4c0.8-0.3,1.7-0.5,2.7-0.5
		c0.9,0,1.8,0.2,2.7,0.5c0.8,0.3,1.6,0.8,2.2,1.5L186.4,98.3z"/>
	<path class="st1" d="M189.9,90.3c0-0.5,0.2-0.9,0.5-1.2c0.3-0.3,0.8-0.5,1.2-0.5s0.9,0.2,1.2,0.5c0.3,0.3,0.5,0.8,0.5,1.2
		s-0.2,0.9-0.5,1.2c-0.3,0.3-0.8,0.5-1.2,0.5s-0.9-0.2-1.2-0.5C190.1,91.2,189.9,90.8,189.9,90.3z M190.5,94.9h2.4v12.7h-2.4V94.9z"
		/>
	<path class="st1" d="M198.5,102.1c0,0.6,0.1,1.1,0.4,1.5c0.2,0.5,0.6,0.8,1,1.2c0.4,0.3,0.8,0.6,1.4,0.8c0.5,0.2,1.1,0.3,1.6,0.3
		c0.8,0,1.4-0.2,2-0.5c0.6-0.3,1.1-0.8,1.5-1.4l1.8,1.4c-1.3,1.7-3.2,2.6-5.6,2.6c-1,0-1.9-0.2-2.7-0.5c-0.8-0.3-1.5-0.8-2.1-1.4
		c-0.6-0.6-1-1.3-1.3-2.1c-0.3-0.8-0.5-1.7-0.5-2.6c0-0.9,0.2-1.8,0.5-2.6c0.3-0.8,0.8-1.5,1.4-2.1c0.6-0.6,1.3-1.1,2.1-1.4
		c0.8-0.3,1.7-0.5,2.6-0.5c1.1,0,2.1,0.2,2.9,0.6c0.8,0.4,1.4,0.9,1.9,1.5c0.5,0.6,0.9,1.3,1.1,2.1c0.2,0.8,0.3,1.6,0.3,2.4v0.9
		H198.5z M206.1,100.2c0-0.5-0.1-1-0.3-1.5c-0.2-0.4-0.4-0.8-0.7-1.2c-0.3-0.3-0.7-0.6-1.1-0.8c-0.5-0.2-1-0.3-1.6-0.3
		c-0.6,0-1.1,0.1-1.6,0.3c-0.5,0.2-0.9,0.5-1.2,0.9c-0.3,0.4-0.6,0.8-0.8,1.2c-0.2,0.4-0.3,0.9-0.3,1.3H206.1z"/>
	<path class="st1" d="M225.8,98.1c-0.3-0.4-0.6-0.7-1.1-0.9c-0.4-0.2-0.9-0.4-1.5-0.4c-0.6,0-1.1,0.1-1.5,0.4
		c-0.4,0.2-0.6,0.6-0.6,1.1c0,0.4,0.1,0.7,0.4,0.9c0.2,0.2,0.5,0.4,0.9,0.6c0.3,0.1,0.7,0.3,1.1,0.3c0.4,0.1,0.7,0.1,1,0.2
		c0.5,0.1,1,0.3,1.5,0.5c0.5,0.2,0.8,0.4,1.2,0.7c0.3,0.3,0.6,0.6,0.8,1c0.2,0.4,0.3,0.9,0.3,1.5c0,0.7-0.2,1.3-0.5,1.8
		c-0.3,0.5-0.7,0.9-1.2,1.2c-0.5,0.3-1,0.6-1.6,0.7c-0.6,0.1-1.2,0.2-1.9,0.2c-1.1,0-2-0.2-2.8-0.5c-0.8-0.3-1.5-0.9-2.1-1.8
		l1.8-1.5c0.4,0.4,0.8,0.7,1.3,1c0.5,0.3,1.1,0.5,1.8,0.5c0.3,0,0.6,0,0.9-0.1c0.3-0.1,0.6-0.2,0.8-0.3c0.2-0.1,0.4-0.3,0.6-0.5
		c0.2-0.2,0.2-0.4,0.2-0.7c0-0.4-0.1-0.7-0.3-0.9c-0.2-0.2-0.5-0.4-0.8-0.5c-0.3-0.1-0.6-0.2-1-0.3c-0.3-0.1-0.7-0.1-0.9-0.2
		c-0.5-0.1-1-0.3-1.5-0.4c-0.5-0.2-0.9-0.4-1.2-0.6c-0.4-0.3-0.6-0.6-0.9-1c-0.2-0.4-0.3-0.9-0.3-1.5c0-0.7,0.1-1.2,0.4-1.7
		c0.3-0.5,0.6-0.9,1.1-1.2c0.5-0.3,1-0.6,1.6-0.7c0.6-0.2,1.2-0.2,1.8-0.2c0.9,0,1.7,0.2,2.5,0.5c0.8,0.3,1.4,0.9,1.9,1.6
		L225.8,98.1z"/>
	<path class="st1" d="M232.8,102.1c0,0.6,0.1,1.1,0.4,1.5c0.2,0.5,0.6,0.8,1,1.2c0.4,0.3,0.8,0.6,1.4,0.8c0.5,0.2,1.1,0.3,1.6,0.3
		c0.8,0,1.4-0.2,2-0.5c0.6-0.3,1.1-0.8,1.5-1.4l1.8,1.4c-1.3,1.7-3.2,2.6-5.6,2.6c-1,0-1.9-0.2-2.7-0.5c-0.8-0.3-1.5-0.8-2.1-1.4
		c-0.6-0.6-1-1.3-1.3-2.1c-0.3-0.8-0.5-1.7-0.5-2.6c0-0.9,0.2-1.8,0.5-2.6c0.3-0.8,0.8-1.5,1.4-2.1c0.6-0.6,1.3-1.1,2.1-1.4
		c0.8-0.3,1.7-0.5,2.6-0.5c1.1,0,2.1,0.2,2.9,0.6c0.8,0.4,1.4,0.9,1.9,1.5c0.5,0.6,0.9,1.3,1.1,2.1c0.2,0.8,0.3,1.6,0.3,2.4v0.9
		H232.8z M240.4,100.2c0-0.5-0.1-1-0.3-1.5c-0.2-0.4-0.4-0.8-0.7-1.2c-0.3-0.3-0.7-0.6-1.1-0.8c-0.5-0.2-1-0.3-1.6-0.3
		c-0.6,0-1.1,0.1-1.6,0.3c-0.5,0.2-0.9,0.5-1.2,0.9c-0.3,0.4-0.6,0.8-0.8,1.2c-0.2,0.4-0.3,0.9-0.3,1.3H240.4z"/>
	<path class="st1" d="M257.1,107.6h-2.4v-2h-0.1c-0.3,0.7-0.8,1.2-1.6,1.6c-0.8,0.4-1.6,0.6-2.6,0.6c-0.6,0-1.2-0.1-1.8-0.3
		c-0.6-0.2-1-0.5-1.5-0.9c-0.4-0.4-0.8-0.9-1-1.5c-0.3-0.6-0.4-1.3-0.4-2.2v-8.2h2.4v7.5c0,0.6,0.1,1.1,0.2,1.5
		c0.2,0.4,0.4,0.8,0.6,1c0.3,0.3,0.6,0.4,0.9,0.6c0.3,0.1,0.7,0.2,1.1,0.2c0.5,0,1-0.1,1.4-0.2c0.4-0.2,0.8-0.4,1.1-0.8
		c0.3-0.3,0.6-0.8,0.8-1.3c0.2-0.5,0.3-1.2,0.3-1.9v-6.5h2.4V107.6z"/>
	<path class="st1" d="M267.5,98.1c-0.3-0.4-0.6-0.7-1.1-0.9c-0.4-0.2-0.9-0.4-1.5-0.4c-0.6,0-1.1,0.1-1.5,0.4
		c-0.4,0.2-0.6,0.6-0.6,1.1c0,0.4,0.1,0.7,0.4,0.9c0.2,0.2,0.5,0.4,0.9,0.6c0.3,0.1,0.7,0.3,1.1,0.3c0.4,0.1,0.7,0.1,1,0.2
		c0.5,0.1,1,0.3,1.5,0.5c0.5,0.2,0.8,0.4,1.2,0.7c0.3,0.3,0.6,0.6,0.8,1c0.2,0.4,0.3,0.9,0.3,1.5c0,0.7-0.2,1.3-0.5,1.8
		c-0.3,0.5-0.7,0.9-1.2,1.2c-0.5,0.3-1,0.6-1.6,0.7c-0.6,0.1-1.2,0.2-1.9,0.2c-1.1,0-2-0.2-2.8-0.5c-0.8-0.3-1.5-0.9-2.1-1.8
		l1.8-1.5c0.4,0.4,0.8,0.7,1.3,1c0.5,0.3,1.1,0.5,1.8,0.5c0.3,0,0.6,0,0.9-0.1c0.3-0.1,0.6-0.2,0.8-0.3s0.4-0.3,0.6-0.5
		c0.2-0.2,0.2-0.4,0.2-0.7c0-0.4-0.1-0.7-0.3-0.9c-0.2-0.2-0.5-0.4-0.8-0.5c-0.3-0.1-0.6-0.2-1-0.3c-0.3-0.1-0.7-0.1-0.9-0.2
		c-0.5-0.1-1-0.3-1.5-0.4c-0.5-0.2-0.9-0.4-1.2-0.6c-0.4-0.3-0.6-0.6-0.9-1c-0.2-0.4-0.3-0.9-0.3-1.5c0-0.7,0.1-1.2,0.4-1.7
		c0.3-0.5,0.6-0.9,1.1-1.2c0.5-0.3,1-0.6,1.6-0.7c0.6-0.2,1.2-0.2,1.8-0.2c0.9,0,1.7,0.2,2.5,0.5c0.8,0.3,1.4,0.9,1.9,1.6
		L267.5,98.1z"/>
	<path class="st1" d="M280.1,94.9h2.4v1.8h0.1c0.5-0.7,1.1-1.2,1.9-1.6c0.8-0.4,1.6-0.6,2.5-0.6c1,0,1.9,0.2,2.7,0.5
		c0.8,0.3,1.5,0.8,2,1.4c0.6,0.6,1,1.3,1.3,2.1c0.3,0.8,0.5,1.7,0.5,2.6c0,0.9-0.2,1.8-0.5,2.6c-0.3,0.8-0.7,1.5-1.3,2.1
		c-0.6,0.6-1.2,1.1-2,1.4c-0.8,0.3-1.7,0.5-2.7,0.5c-0.9,0-1.8-0.2-2.6-0.6s-1.4-0.9-1.8-1.6h-0.1v9.4h-2.4V94.9z M286.7,96.8
		c-0.6,0-1.2,0.1-1.7,0.3c-0.5,0.2-1,0.5-1.3,0.9c-0.4,0.4-0.6,0.8-0.8,1.4c-0.2,0.5-0.3,1.1-0.3,1.8c0,0.6,0.1,1.2,0.3,1.8
		c0.2,0.5,0.5,1,0.8,1.4c0.4,0.4,0.8,0.7,1.3,0.9c0.5,0.2,1.1,0.3,1.7,0.3c0.6,0,1.2-0.1,1.7-0.3c0.5-0.2,1-0.5,1.3-0.9
		c0.4-0.4,0.6-0.8,0.8-1.4c0.2-0.5,0.3-1.1,0.3-1.8c0-0.6-0.1-1.2-0.3-1.8c-0.2-0.5-0.5-1-0.8-1.4c-0.4-0.4-0.8-0.7-1.3-0.9
		C287.9,96.9,287.3,96.8,286.7,96.8z"/>
	<path class="st1" d="M296.4,94.9h2.4v2h0.1c0.2-0.3,0.4-0.6,0.6-0.9c0.3-0.3,0.6-0.5,0.9-0.7c0.3-0.2,0.7-0.4,1.1-0.5
		c0.4-0.1,0.8-0.2,1.2-0.2c0.4,0,0.8,0.1,1.1,0.2l-0.1,2.6c-0.2-0.1-0.4-0.1-0.6-0.1c-0.2,0-0.4-0.1-0.6-0.1c-1.2,0-2.1,0.3-2.7,1
		c-0.6,0.7-0.9,1.7-0.9,3.1v6.4h-2.4V94.9z"/>
	<path class="st1" d="M305.3,101.2c0-0.9,0.2-1.8,0.5-2.6c0.3-0.8,0.8-1.5,1.4-2.1c0.6-0.6,1.3-1.1,2.1-1.4c0.8-0.3,1.7-0.5,2.7-0.5
		c0.9,0,1.8,0.2,2.7,0.5c0.8,0.3,1.5,0.8,2.1,1.4c0.6,0.6,1.1,1.3,1.4,2.1c0.3,0.8,0.5,1.7,0.5,2.6c0,0.9-0.2,1.8-0.5,2.6
		c-0.3,0.8-0.8,1.5-1.4,2.1c-0.6,0.6-1.3,1.1-2.1,1.4c-0.8,0.3-1.7,0.5-2.7,0.5c-0.9,0-1.8-0.2-2.7-0.5c-0.8-0.3-1.5-0.8-2.1-1.4
		c-0.6-0.6-1.1-1.3-1.4-2.1C305.4,103,305.3,102.2,305.3,101.2z M307.8,101.2c0,0.6,0.1,1.2,0.3,1.8c0.2,0.5,0.5,1,0.8,1.4
		c0.4,0.4,0.8,0.7,1.3,0.9c0.5,0.2,1.1,0.3,1.7,0.3c0.6,0,1.2-0.1,1.7-0.3c0.5-0.2,1-0.5,1.3-0.9c0.4-0.4,0.6-0.8,0.8-1.4
		c0.2-0.5,0.3-1.1,0.3-1.8c0-0.6-0.1-1.2-0.3-1.8c-0.2-0.5-0.5-1-0.8-1.4c-0.4-0.4-0.8-0.7-1.3-0.9c-0.5-0.2-1.1-0.3-1.7-0.3
		c-0.6,0-1.2,0.1-1.7,0.3c-0.5,0.2-1,0.5-1.3,0.9c-0.4,0.4-0.6,0.8-0.8,1.4C307.9,100,307.8,100.6,307.8,101.2z"/>
	<path class="st1" d="M324.4,94.9v14.5c0,0.3,0,0.7-0.1,1.3c0,0.5-0.2,1-0.4,1.5c-0.2,0.5-0.6,0.9-1.2,1.3c-0.5,0.4-1.3,0.5-2.2,0.5
		c-0.3,0-0.5,0-0.8-0.1c-0.3,0-0.5-0.1-0.8-0.2l0.3-2.2c0.1,0.1,0.3,0.1,0.5,0.1c0.2,0,0.3,0.1,0.5,0.1c0.7,0,1.1-0.2,1.4-0.6
		c0.3-0.4,0.4-1,0.4-1.8V94.9H324.4z M321.4,90.3c0-0.5,0.2-0.9,0.5-1.2c0.3-0.3,0.8-0.5,1.2-0.5c0.5,0,0.9,0.2,1.2,0.5
		c0.3,0.3,0.5,0.8,0.5,1.2s-0.2,0.9-0.5,1.2c-0.3,0.3-0.8,0.5-1.2,0.5c-0.5,0-0.9-0.2-1.2-0.5C321.6,91.2,321.4,90.8,321.4,90.3z"/>
	<path class="st1" d="M330,102.1c0,0.6,0.1,1.1,0.4,1.5c0.2,0.5,0.6,0.8,1,1.2c0.4,0.3,0.8,0.6,1.4,0.8c0.5,0.2,1.1,0.3,1.6,0.3
		c0.8,0,1.4-0.2,2-0.5c0.6-0.3,1.1-0.8,1.5-1.4l1.8,1.4c-1.3,1.7-3.2,2.6-5.6,2.6c-1,0-1.9-0.2-2.7-0.5c-0.8-0.3-1.5-0.8-2.1-1.4
		c-0.6-0.6-1-1.3-1.3-2.1c-0.3-0.8-0.5-1.7-0.5-2.6c0-0.9,0.2-1.8,0.5-2.6c0.3-0.8,0.8-1.5,1.4-2.1c0.6-0.6,1.3-1.1,2.1-1.4
		c0.8-0.3,1.7-0.5,2.6-0.5c1.1,0,2.1,0.2,2.9,0.6c0.8,0.4,1.4,0.9,1.9,1.5c0.5,0.6,0.9,1.3,1.1,2.1c0.2,0.8,0.3,1.6,0.3,2.4v0.9H330
		z M337.6,100.2c0-0.5-0.1-1-0.3-1.5c-0.2-0.4-0.4-0.8-0.7-1.2c-0.3-0.3-0.7-0.6-1.1-0.8c-0.5-0.2-1-0.3-1.6-0.3
		c-0.6,0-1.1,0.1-1.6,0.3c-0.5,0.2-0.9,0.5-1.2,0.9c-0.3,0.4-0.6,0.8-0.8,1.2c-0.2,0.4-0.3,0.9-0.3,1.3H337.6z"/>
	<path class="st1" d="M349.9,97h-3.5v5.8c0,0.4,0,0.7,0,1.1c0,0.3,0.1,0.7,0.2,0.9c0.1,0.3,0.3,0.5,0.5,0.7c0.2,0.2,0.6,0.3,1.1,0.3
		c0.3,0,0.6,0,0.9-0.1c0.3-0.1,0.6-0.2,0.8-0.3v2.2c-0.3,0.2-0.7,0.3-1.1,0.3c-0.5,0.1-0.8,0.1-1.1,0.1c-0.9,0-1.6-0.1-2.2-0.4
		c-0.5-0.3-0.9-0.6-1.1-1c-0.2-0.4-0.4-0.9-0.4-1.4c0-0.5-0.1-1-0.1-1.5V97h-2.8v-2.1h2.8v-3.6h2.4v3.6h3.5V97z"/>
	<path class="st1" d="M352.4,101.2c0-0.9,0.2-1.8,0.5-2.6c0.3-0.8,0.8-1.5,1.4-2.1c0.6-0.6,1.3-1.1,2.1-1.4c0.8-0.3,1.7-0.5,2.7-0.5
		c0.9,0,1.8,0.2,2.7,0.5c0.8,0.3,1.5,0.8,2.1,1.4c0.6,0.6,1.1,1.3,1.4,2.1c0.3,0.8,0.5,1.7,0.5,2.6c0,0.9-0.2,1.8-0.5,2.6
		c-0.3,0.8-0.8,1.5-1.4,2.1c-0.6,0.6-1.3,1.1-2.1,1.4c-0.8,0.3-1.7,0.5-2.7,0.5c-0.9,0-1.8-0.2-2.7-0.5c-0.8-0.3-1.5-0.8-2.1-1.4
		c-0.6-0.6-1.1-1.3-1.4-2.1C352.6,103,352.4,102.2,352.4,101.2z M355,101.2c0,0.6,0.1,1.2,0.3,1.8c0.2,0.5,0.5,1,0.8,1.4
		c0.4,0.4,0.8,0.7,1.3,0.9c0.5,0.2,1.1,0.3,1.7,0.3c0.6,0,1.2-0.1,1.7-0.3c0.5-0.2,1-0.5,1.3-0.9c0.4-0.4,0.6-0.8,0.8-1.4
		c0.2-0.5,0.3-1.1,0.3-1.8c0-0.6-0.1-1.2-0.3-1.8c-0.2-0.5-0.5-1-0.8-1.4c-0.4-0.4-0.8-0.7-1.3-0.9c-0.5-0.2-1.1-0.3-1.7-0.3
		c-0.6,0-1.2,0.1-1.7,0.3c-0.5,0.2-1,0.5-1.3,0.9c-0.4,0.4-0.6,0.8-0.8,1.4C355.1,100,355,100.6,355,101.2z"/>
	<path class="st1" d="M375.7,98.1c-0.3-0.4-0.6-0.7-1.1-0.9c-0.4-0.2-0.9-0.4-1.5-0.4c-0.6,0-1.1,0.1-1.5,0.4
		c-0.4,0.2-0.6,0.6-0.6,1.1c0,0.4,0.1,0.7,0.4,0.9c0.2,0.2,0.5,0.4,0.9,0.6c0.3,0.1,0.7,0.3,1.1,0.3c0.4,0.1,0.7,0.1,1,0.2
		c0.5,0.1,1,0.3,1.5,0.5c0.5,0.2,0.8,0.4,1.2,0.7c0.3,0.3,0.6,0.6,0.8,1c0.2,0.4,0.3,0.9,0.3,1.5c0,0.7-0.2,1.3-0.5,1.8
		c-0.3,0.5-0.7,0.9-1.2,1.2c-0.5,0.3-1,0.6-1.6,0.7c-0.6,0.1-1.2,0.2-1.9,0.2c-1.1,0-2-0.2-2.8-0.5c-0.8-0.3-1.5-0.9-2.1-1.8
		l1.8-1.5c0.4,0.4,0.8,0.7,1.3,1c0.5,0.3,1.1,0.5,1.8,0.5c0.3,0,0.6,0,0.9-0.1c0.3-0.1,0.6-0.2,0.8-0.3c0.2-0.1,0.4-0.3,0.6-0.5
		c0.2-0.2,0.2-0.4,0.2-0.7c0-0.4-0.1-0.7-0.3-0.9c-0.2-0.2-0.5-0.4-0.8-0.5s-0.6-0.2-1-0.3c-0.3-0.1-0.7-0.1-0.9-0.2
		c-0.5-0.1-1-0.3-1.5-0.4c-0.5-0.2-0.9-0.4-1.2-0.6c-0.4-0.3-0.6-0.6-0.9-1c-0.2-0.4-0.3-0.9-0.3-1.5c0-0.7,0.1-1.2,0.4-1.7
		c0.3-0.5,0.6-0.9,1.1-1.2c0.5-0.3,1-0.6,1.6-0.7c0.6-0.2,1.2-0.2,1.8-0.2c0.9,0,1.7,0.2,2.5,0.5c0.8,0.3,1.4,0.9,1.9,1.6
		L375.7,98.1z"/>
</g>
</svg>
