<?xml version="1.0" encoding="utf-8"?>
<!-- Generator: Adobe Illustrator 24.0.2, SVG Export Plug-In . SVG Version: 6.00 Build 0)  -->
<svg version="1.1" id="Calque_1" xmlns="http://www.w3.org/2000/svg" xmlns:xlink="http://www.w3.org/1999/xlink" x="0px" y="0px"
	 viewBox="0 0 392.4 117.7" style="enable-background:new 0 0 392.4 117.7;" xml:space="preserve">
<style type="text/css">
	.st0{fill:#004996;}
	.st1{fill:#FF2146;}
</style>
<g>
	<g>
		<g>
			<g>
				<g>
					<path class="st0" d="M53.6,40c4.1,0,7.3,1.3,9.8,3.8c2.5,2.5,3.7,5.9,3.7,10v24.4H56.4V57.1c0-2-0.6-3.6-1.8-4.9
						c-1.2-1.2-2.7-1.9-4.7-1.9c-2.1,0-3.8,0.6-5.1,1.9c-1.3,1.3-1.9,2.9-1.9,5v21.1H32.2V57.1c0-2-0.6-3.6-1.8-4.9
						c-1.2-1.2-2.8-1.9-4.7-1.9c-2.1,0-3.8,0.6-5.1,1.9c-1.3,1.3-1.9,2.9-1.9,5v21.1H8V40.9h10.7v3.9c2.8-3.2,6.3-4.8,10.6-4.8
						c5.4,0,9.3,2.1,11.8,6.4C44.1,42.2,48.2,40,53.6,40z"/>
					<path class="st0" d="M99,40.9h10.7v37.4H99v-4.1c-2.7,3.3-6.4,5-10.9,5c-4.2,0-7.5-1.3-10-3.8s-3.8-6-3.8-10.3V40.9h10.7v21
						c0,2.1,0.6,3.8,1.8,5.1c1.2,1.3,2.8,1.9,4.9,1.9c2.1,0,3.9-0.7,5.2-2c1.3-1.3,2-3,2-5.1V40.9z"/>
					<path class="st0" d="M118.2,78.3V25.5h10.7v52.8H118.2z"/>
					<path class="st0" d="M159.6,40.9v9.7h-7.2v27.6h-10.7V50.6h-6.8v-9.7h6.8v-8.7l10.7-2.4v11H159.6z"/>
					<path class="st1" d="M170.4,36.1C170.4,36.1,170.4,36.1,170.4,36.1c-2.3,0-3.8-1.5-4.3-2c-0.7-0.7-3.2-3.1-5.5-5.4
						c-0.8-0.8-1.6-1.5-2.3-2.2c-1.8-1.8-1.8-4.7,0-6.5v0c1.8-1.7,4.6-1.8,6.4,0c0.7,0.7,1.5,1.5,2.3,2.2c1.3,1.2,2.5,2.4,3.5,3.4
						c7.4-7.2,15.8-15.5,23-22.6c1.8-1.8,4.7-1.8,6.5,0l0,0c1.8,1.8,1.8,4.7,0,6.5c-7.9,7.9-17.4,17.2-25.3,24.9
						C174.1,34.8,172.7,36.1,170.4,36.1z"/>
					<path class="st0" d="M202.3,79.2c-5.8,0-10.6-1.9-14.4-5.6c-3.8-3.7-5.8-8.4-5.8-14s1.9-10.2,5.8-14c3.8-3.7,8.7-5.6,14.4-5.6
						c5.3,0,9.8,1.6,13.5,4.8c3.7,3.2,5.9,7.2,6.5,12.2H211c-0.5-2-1.6-3.5-3.2-4.8c-1.6-1.2-3.4-1.8-5.6-1.8
						c-2.6,0-4.8,0.9-6.6,2.6c-1.7,1.8-2.6,4-2.6,6.6c0,2.6,0.9,4.8,2.6,6.6c1.7,1.8,3.9,2.6,6.6,2.6c2.1,0,4-0.6,5.6-1.8
						c1.6-1.2,2.6-2.8,3.2-4.8h11.2c-0.6,4.9-2.8,9-6.5,12.2C212,77.6,207.5,79.2,202.3,79.2z"/>
					<path class="st0" d="M238.9,45.9c2.9-3.7,6.4-5.6,10.4-5.6v11c-3.3,0-5.9,0.9-7.7,2.6c-1.8,1.7-2.7,4-2.7,7v17.4h-10.7V40.9
						h10.7V45.9z"/>
					<path class="st0" d="M292,59.7c0,1.4-0.1,2.5-0.3,3.3h-28.6c0.6,2.1,1.7,3.8,3.3,5c1.6,1.2,3.5,1.8,5.7,1.8
						c1.8,0,3.4-0.4,4.8-1.1c1.4-0.7,2.4-1.6,3.1-2.7h11.4c-1.4,3.9-3.8,7.1-7.3,9.5c-3.5,2.4-7.5,3.6-12.1,3.6
						c-5.8,0-10.6-1.9-14.4-5.6c-3.8-3.7-5.8-8.4-5.8-14s1.9-10.2,5.8-14c3.8-3.7,8.7-5.6,14.4-5.6c5.7,0,10.5,1.9,14.4,5.6
						C290,49.4,292,54.1,292,59.7z M271.8,49.2c-2.1,0-3.9,0.6-5.4,1.8c-1.5,1.2-2.6,2.8-3.2,4.9h17.3c-0.6-2.1-1.6-3.7-3.2-4.9
						C275.7,49.8,273.9,49.2,271.8,49.2z"/>
					<path class="st0" d="M325.4,25.5h10.7v52.8h-10.7v-4.1c-3,3.3-6.8,5-11.3,5c-5.1,0-9.4-1.9-12.9-5.6c-3.5-3.7-5.2-8.4-5.2-14
						s1.7-10.2,5.2-14c3.5-3.7,7.7-5.6,12.9-5.6c4.5,0,8.3,1.7,11.3,5V25.5z M316.2,68.8c2.6,0,4.8-0.9,6.6-2.6
						c1.7-1.8,2.6-4,2.6-6.6c0-2.6-0.9-4.8-2.6-6.6c-1.7-1.8-3.9-2.6-6.6-2.6c-2.6,0-4.8,0.9-6.5,2.6c-1.7,1.8-2.6,4-2.6,6.6
						c0,2.6,0.9,4.8,2.6,6.6C311.5,68,313.6,68.8,316.2,68.8z"/>
					<path class="st0" d="M344.6,78.3V40.9h10.7v37.4H344.6z"/>
					<path class="st0" d="M385.9,40.9v9.7h-7.2v27.6H368V50.6h-6.8v-9.7h6.8v-7.5l10.7-3.6v11H385.9z"/>
					<circle class="st1" cx="349.9" cy="30.8" r="5.3"/>
					<rect x="165.1" y="40.9" class="st0" width="10.7" height="37.4"/>
				</g>
			</g>
		</g>
	</g>
	<g>
		<g>
			<path class="st1" d="M125.5,97.2h-2.6v-2h2.6v-2.7c0-1.6,0.3-2.9,0.9-3.7c0.6-0.8,1.7-1.2,3.2-1.2c0.3,0,0.5,0,0.8,0
				c0.3,0,0.6,0.1,0.9,0.2l-0.3,2.1c-0.2-0.1-0.4-0.1-0.6-0.2c-0.2,0-0.4-0.1-0.7-0.1c-0.4,0-0.8,0.1-1,0.2
				c-0.3,0.1-0.5,0.3-0.6,0.6c-0.1,0.2-0.2,0.5-0.3,0.9c0,0.3-0.1,0.7-0.1,1.1v2.8h2.8v2h-2.8v10.2h-2.3V97.2z"/>
			<path class="st1" d="M133.4,95.2h2.3v12.2h-2.3V95.2z M132.8,90.8c0-0.5,0.2-0.9,0.5-1.2c0.3-0.3,0.7-0.5,1.2-0.5
				s0.9,0.2,1.2,0.5c0.3,0.3,0.5,0.7,0.5,1.2s-0.2,0.9-0.5,1.2c-0.3,0.3-0.7,0.5-1.2,0.5s-0.9-0.2-1.2-0.5
				C133,91.6,132.8,91.2,132.8,90.8"/>
			<path class="st1" d="M139.4,95.2h2.3V97h0.1c0.3-0.7,0.8-1.2,1.5-1.6c0.7-0.4,1.6-0.6,2.5-0.6c0.6,0,1.1,0.1,1.7,0.3
				c0.5,0.2,1,0.5,1.4,0.8c0.4,0.4,0.7,0.9,1,1.5c0.2,0.6,0.4,1.3,0.4,2.1v7.9h-2.3v-7.2c0-0.6-0.1-1.1-0.2-1.5
				c-0.2-0.4-0.4-0.7-0.6-1c-0.3-0.2-0.6-0.4-0.9-0.5c-0.3-0.1-0.7-0.2-1-0.2c-0.5,0-0.9,0.1-1.3,0.2c-0.4,0.2-0.8,0.4-1.1,0.7
				c-0.3,0.3-0.6,0.8-0.7,1.3c-0.2,0.5-0.3,1.1-0.3,1.8v6.3h-2.3V95.2z"/>
			<path class="st1" d="M160.3,101.5c-0.6,0-1.1,0-1.7,0.1c-0.6,0.1-1.1,0.2-1.6,0.3c-0.5,0.2-0.9,0.4-1.2,0.7
				c-0.3,0.3-0.5,0.7-0.5,1.2c0,0.7,0.2,1.2,0.7,1.5c0.5,0.3,1.1,0.5,1.9,0.5c0.6,0,1.2-0.1,1.6-0.3c0.4-0.2,0.8-0.5,1.1-0.8
				c0.3-0.3,0.5-0.7,0.6-1.1c0.1-0.4,0.2-0.8,0.2-1.3v-0.8H160.3z M153.8,96.7c0.7-0.6,1.4-1.1,2.3-1.4c0.9-0.3,1.7-0.5,2.6-0.5
				c0.9,0,1.7,0.1,2.3,0.3s1.2,0.5,1.6,0.9c0.4,0.4,0.7,0.8,0.9,1.3c0.2,0.5,0.3,1,0.3,1.5v6.2c0,0.4,0,0.8,0,1.2c0,0.4,0,0.7,0.1,1
				h-2.1c-0.1-0.6-0.1-1.2-0.1-1.9h-0.1c-0.5,0.8-1.1,1.4-1.8,1.7c-0.7,0.3-1.5,0.5-2.5,0.5c-0.6,0-1.1-0.1-1.6-0.2
				c-0.5-0.2-1-0.4-1.4-0.7c-0.4-0.3-0.7-0.7-0.9-1.1c-0.2-0.5-0.3-1-0.3-1.6c0-0.8,0.2-1.5,0.5-2c0.4-0.5,0.8-1,1.4-1.3
				c0.6-0.3,1.3-0.6,2.1-0.7c0.8-0.1,1.7-0.2,2.6-0.2h1.7v-0.5c0-0.3-0.1-0.6-0.2-0.9c-0.1-0.3-0.3-0.6-0.5-0.8s-0.5-0.4-0.9-0.6
				c-0.4-0.1-0.8-0.2-1.3-0.2c-0.4,0-0.8,0-1.2,0.1c-0.3,0.1-0.6,0.2-0.9,0.3c-0.3,0.1-0.5,0.3-0.7,0.5c-0.2,0.2-0.4,0.3-0.6,0.5
				L153.8,96.7z"/>
			<path class="st1" d="M167.1,95.2h2.3V97h0.1c0.3-0.7,0.8-1.2,1.5-1.6c0.7-0.4,1.6-0.6,2.5-0.6c0.6,0,1.1,0.1,1.7,0.3
				c0.5,0.2,1,0.5,1.4,0.8c0.4,0.4,0.7,0.9,1,1.5c0.2,0.6,0.4,1.3,0.4,2.1v7.9h-2.3v-7.2c0-0.6-0.1-1.1-0.2-1.5
				c-0.2-0.4-0.4-0.7-0.6-1c-0.3-0.2-0.6-0.4-0.9-0.5c-0.3-0.1-0.7-0.2-1-0.2c-0.5,0-0.9,0.1-1.3,0.2s-0.8,0.4-1.1,0.7
				c-0.3,0.3-0.6,0.8-0.7,1.3c-0.2,0.5-0.3,1.1-0.3,1.8v6.3h-2.3V95.2z"/>
			<path class="st1" d="M190.2,98.4c-0.4-0.4-0.9-0.8-1.4-1c-0.5-0.2-1-0.3-1.7-0.3c-0.6,0-1.2,0.1-1.7,0.3c-0.5,0.2-0.9,0.6-1.2,1
				c-0.3,0.4-0.6,0.9-0.7,1.4c-0.2,0.5-0.2,1.1-0.2,1.6c0,0.6,0.1,1.1,0.3,1.6c0.2,0.5,0.5,1,0.8,1.3c0.3,0.4,0.8,0.7,1.2,0.9
				c0.5,0.2,1,0.3,1.6,0.3c0.7,0,1.2-0.1,1.7-0.3c0.5-0.2,0.9-0.6,1.3-1l1.7,1.7c-0.6,0.7-1.3,1.2-2.1,1.4c-0.8,0.3-1.6,0.4-2.5,0.4
				c-0.9,0-1.8-0.2-2.6-0.5c-0.8-0.3-1.5-0.7-2-1.3c-0.6-0.6-1-1.2-1.3-2c-0.3-0.8-0.5-1.6-0.5-2.6c0-0.9,0.2-1.8,0.5-2.6
				c0.3-0.8,0.7-1.5,1.3-2c0.6-0.6,1.2-1,2-1.3c0.8-0.3,1.7-0.5,2.6-0.5c0.9,0,1.8,0.2,2.6,0.5c0.8,0.3,1.5,0.8,2.1,1.5L190.2,98.4z
				"/>
			<path class="st1" d="M194.1,95.2h2.3v12.2h-2.3V95.2z M193.6,90.8c0-0.5,0.2-0.9,0.5-1.2c0.3-0.3,0.7-0.5,1.2-0.5
				c0.5,0,0.9,0.2,1.2,0.5c0.3,0.3,0.5,0.7,0.5,1.2s-0.2,0.9-0.5,1.2c-0.3,0.3-0.7,0.5-1.2,0.5c-0.5,0-0.9-0.2-1.2-0.5
				C193.7,91.6,193.6,91.2,193.6,90.8"/>
			<path class="st1" d="M206.7,101.5c-0.6,0-1.1,0-1.7,0.1c-0.6,0.1-1.1,0.2-1.6,0.3c-0.5,0.2-0.9,0.4-1.2,0.7
				c-0.3,0.3-0.5,0.7-0.5,1.2c0,0.7,0.2,1.2,0.7,1.5c0.5,0.3,1.1,0.5,1.9,0.5c0.6,0,1.2-0.1,1.6-0.3c0.4-0.2,0.8-0.5,1.1-0.8
				c0.3-0.3,0.5-0.7,0.6-1.1c0.1-0.4,0.2-0.8,0.2-1.3v-0.8H206.7z M200.2,96.7c0.7-0.6,1.4-1.1,2.3-1.4c0.9-0.3,1.7-0.5,2.6-0.5
				c0.9,0,1.7,0.1,2.3,0.3c0.6,0.2,1.2,0.5,1.6,0.9c0.4,0.4,0.7,0.8,0.9,1.3c0.2,0.5,0.3,1,0.3,1.5v6.2c0,0.4,0,0.8,0,1.2
				c0,0.4,0,0.7,0.1,1h-2.1c-0.1-0.6-0.1-1.2-0.1-1.9h-0.1c-0.5,0.8-1.1,1.4-1.8,1.7c-0.7,0.3-1.5,0.5-2.5,0.5
				c-0.6,0-1.1-0.1-1.6-0.2c-0.5-0.2-1-0.4-1.4-0.7c-0.4-0.3-0.7-0.7-0.9-1.1c-0.2-0.5-0.3-1-0.3-1.6c0-0.8,0.2-1.5,0.5-2
				c0.4-0.5,0.8-1,1.4-1.3c0.6-0.3,1.3-0.6,2.1-0.7c0.8-0.1,1.7-0.2,2.6-0.2h1.7v-0.5c0-0.3-0.1-0.6-0.2-0.9
				c-0.1-0.3-0.3-0.6-0.5-0.8c-0.2-0.2-0.5-0.4-0.9-0.6c-0.4-0.1-0.8-0.2-1.3-0.2c-0.4,0-0.8,0-1.2,0.1c-0.3,0.1-0.6,0.2-0.9,0.3
				c-0.3,0.1-0.5,0.3-0.7,0.5c-0.2,0.2-0.4,0.3-0.6,0.5L200.2,96.7z"/>
			<path class="st1" d="M227.2,98.2c-0.3-0.3-0.6-0.6-1-0.9c-0.4-0.2-0.9-0.3-1.5-0.3c-0.6,0-1,0.1-1.4,0.3c-0.4,0.2-0.6,0.6-0.6,1
				c0,0.4,0.1,0.7,0.3,0.9c0.2,0.2,0.5,0.4,0.8,0.5c0.3,0.1,0.7,0.2,1,0.3c0.4,0.1,0.7,0.1,0.9,0.2c0.5,0.1,1,0.3,1.4,0.4
				s0.8,0.4,1.1,0.7c0.3,0.3,0.6,0.6,0.7,1c0.2,0.4,0.3,0.9,0.3,1.4c0,0.7-0.1,1.3-0.4,1.8c-0.3,0.5-0.7,0.9-1.1,1.2
				c-0.5,0.3-1,0.5-1.6,0.7c-0.6,0.1-1.2,0.2-1.8,0.2c-1,0-1.9-0.2-2.7-0.5c-0.8-0.3-1.5-0.9-2.1-1.7l1.8-1.4c0.4,0.4,0.8,0.7,1.3,1
				c0.5,0.3,1,0.4,1.7,0.4c0.3,0,0.6,0,0.9-0.1c0.3-0.1,0.6-0.2,0.8-0.3c0.2-0.1,0.4-0.3,0.6-0.5c0.1-0.2,0.2-0.4,0.2-0.7
				c0-0.3-0.1-0.6-0.3-0.9c-0.2-0.2-0.5-0.4-0.8-0.5c-0.3-0.1-0.6-0.2-1-0.3c-0.3-0.1-0.6-0.1-0.9-0.2c-0.5-0.1-1-0.3-1.4-0.4
				c-0.4-0.2-0.8-0.4-1.2-0.6c-0.3-0.3-0.6-0.6-0.8-1c-0.2-0.4-0.3-0.9-0.3-1.5c0-0.6,0.1-1.2,0.4-1.7c0.3-0.5,0.6-0.9,1.1-1.2
				c0.4-0.3,0.9-0.5,1.5-0.7c0.6-0.2,1.1-0.2,1.7-0.2c0.8,0,1.6,0.2,2.4,0.5c0.8,0.3,1.4,0.8,1.8,1.5L227.2,98.2z"/>
			<path class="st1" d="M243,107.4h-2.3v-1.9h-0.1c-0.3,0.7-0.8,1.2-1.5,1.6c-0.7,0.4-1.6,0.6-2.5,0.6c-0.6,0-1.2-0.1-1.7-0.3
				c-0.5-0.2-1-0.5-1.4-0.8c-0.4-0.4-0.7-0.9-1-1.5c-0.2-0.6-0.4-1.3-0.4-2.1v-7.9h2.3v7.2c0,0.6,0.1,1.1,0.2,1.5
				c0.2,0.4,0.4,0.7,0.6,1c0.3,0.2,0.6,0.4,0.9,0.5c0.3,0.1,0.7,0.2,1,0.2c0.5,0,0.9-0.1,1.3-0.2c0.4-0.2,0.8-0.4,1.1-0.7
				c0.3-0.3,0.6-0.8,0.7-1.3c0.2-0.5,0.3-1.1,0.3-1.8v-6.3h2.3V107.4z"/>
			<path class="st1" d="M253,98.2c-0.3-0.3-0.6-0.6-1-0.9c-0.4-0.2-0.9-0.3-1.5-0.3c-0.6,0-1,0.1-1.4,0.3c-0.4,0.2-0.6,0.6-0.6,1
				c0,0.4,0.1,0.7,0.3,0.9c0.2,0.2,0.5,0.4,0.8,0.5c0.3,0.1,0.7,0.2,1,0.3c0.4,0.1,0.7,0.1,0.9,0.2c0.5,0.1,1,0.3,1.4,0.4
				s0.8,0.4,1.1,0.7c0.3,0.3,0.6,0.6,0.7,1c0.2,0.4,0.3,0.9,0.3,1.4c0,0.7-0.1,1.3-0.4,1.8c-0.3,0.5-0.7,0.9-1.1,1.2
				c-0.5,0.3-1,0.5-1.6,0.7c-0.6,0.1-1.2,0.2-1.8,0.2c-1,0-1.9-0.2-2.7-0.5c-0.8-0.3-1.5-0.9-2.1-1.7l1.8-1.4c0.4,0.4,0.8,0.7,1.3,1
				c0.5,0.3,1,0.4,1.7,0.4c0.3,0,0.6,0,0.9-0.1c0.3-0.1,0.6-0.2,0.8-0.3c0.2-0.1,0.4-0.3,0.6-0.5c0.1-0.2,0.2-0.4,0.2-0.7
				c0-0.3-0.1-0.6-0.3-0.9c-0.2-0.2-0.5-0.4-0.8-0.5c-0.3-0.1-0.6-0.2-1-0.3c-0.3-0.1-0.6-0.1-0.9-0.2c-0.5-0.1-1-0.3-1.4-0.4
				c-0.4-0.2-0.8-0.4-1.2-0.6c-0.3-0.3-0.6-0.6-0.8-1c-0.2-0.4-0.3-0.9-0.3-1.5c0-0.6,0.1-1.2,0.4-1.7c0.3-0.5,0.6-0.9,1.1-1.2
				c0.4-0.3,0.9-0.5,1.5-0.7c0.6-0.2,1.1-0.2,1.7-0.2c0.8,0,1.6,0.2,2.4,0.5c0.8,0.3,1.4,0.8,1.8,1.5L253,98.2z"/>
			<path class="st1" d="M271.5,97c-0.6,0-1.2,0.1-1.7,0.3c-0.5,0.2-0.9,0.5-1.3,0.9c-0.3,0.4-0.6,0.8-0.8,1.3
				c-0.2,0.5-0.3,1.1-0.3,1.7c0,0.6,0.1,1.2,0.3,1.7c0.2,0.5,0.5,1,0.8,1.3c0.3,0.4,0.8,0.7,1.3,0.9c0.5,0.2,1.1,0.3,1.7,0.3
				c0.6,0,1.2-0.1,1.7-0.3c0.5-0.2,0.9-0.5,1.3-0.9s0.6-0.8,0.8-1.3c0.2-0.5,0.3-1.1,0.3-1.7c0-0.6-0.1-1.2-0.3-1.7
				c-0.2-0.5-0.5-1-0.8-1.3c-0.3-0.4-0.8-0.7-1.3-0.9C272.7,97.1,272.1,97,271.5,97 M265.2,95.2h2.3v1.8h0.1
				c0.4-0.7,1.1-1.2,1.8-1.5c0.8-0.4,1.6-0.5,2.4-0.5c0.9,0,1.8,0.2,2.6,0.5c0.8,0.3,1.4,0.8,2,1.4c0.5,0.6,1,1.3,1.3,2.1
				c0.3,0.8,0.4,1.6,0.4,2.5c0,0.9-0.1,1.8-0.4,2.5c-0.3,0.8-0.7,1.5-1.3,2c-0.5,0.6-1.2,1-2,1.4c-0.8,0.3-1.6,0.5-2.6,0.5
				c-0.9,0-1.7-0.2-2.5-0.6s-1.4-0.9-1.8-1.5h-0.1v9h-2.3V95.2z"/>
			<path class="st1" d="M280.9,95.2h2.3V97h0.1c0.2-0.3,0.4-0.6,0.6-0.9c0.3-0.3,0.5-0.5,0.9-0.7c0.3-0.2,0.7-0.3,1-0.5
				c0.4-0.1,0.8-0.2,1.1-0.2c0.4,0,0.7,0.1,1,0.2l-0.1,2.5c-0.2-0.1-0.4-0.1-0.6-0.1c-0.2,0-0.4-0.1-0.6-0.1c-1.1,0-2,0.3-2.6,1
				c-0.6,0.6-0.9,1.6-0.9,3v6.1h-2.3V95.2z"/>
			<path class="st1" d="M291.9,101.3c0,0.6,0.1,1.2,0.3,1.7c0.2,0.5,0.5,1,0.8,1.3c0.3,0.4,0.8,0.7,1.3,0.9c0.5,0.2,1.1,0.3,1.7,0.3
				c0.6,0,1.2-0.1,1.7-0.3c0.5-0.2,0.9-0.5,1.3-0.9c0.3-0.4,0.6-0.8,0.8-1.3c0.2-0.5,0.3-1.1,0.3-1.7c0-0.6-0.1-1.2-0.3-1.7
				c-0.2-0.5-0.5-1-0.8-1.3c-0.3-0.4-0.8-0.7-1.3-0.9c-0.5-0.2-1.1-0.3-1.7-0.3c-0.6,0-1.2,0.1-1.7,0.3c-0.5,0.2-0.9,0.5-1.3,0.9
				c-0.3,0.4-0.6,0.8-0.8,1.3C292,100.1,291.9,100.7,291.9,101.3 M289.4,101.3c0-0.9,0.2-1.7,0.5-2.5c0.3-0.8,0.8-1.5,1.4-2
				c0.6-0.6,1.3-1,2.1-1.4c0.8-0.3,1.6-0.5,2.6-0.5c0.9,0,1.8,0.2,2.6,0.5c0.8,0.3,1.5,0.8,2.1,1.4c0.6,0.6,1,1.3,1.4,2
				c0.3,0.8,0.5,1.6,0.5,2.5s-0.2,1.7-0.5,2.5s-0.8,1.5-1.4,2c-0.6,0.6-1.3,1-2.1,1.4c-0.8,0.3-1.6,0.5-2.6,0.5
				c-0.9,0-1.8-0.2-2.6-0.5c-0.8-0.3-1.5-0.8-2.1-1.4c-0.6-0.6-1-1.3-1.4-2C289.6,103,289.4,102.2,289.4,101.3"/>
			<path class="st1" d="M303.9,95.2h2.7l3.6,9.6h0.1l3.5-9.6h2.5l-5.8,14.9c-0.2,0.5-0.4,1-0.6,1.5c-0.2,0.4-0.5,0.8-0.8,1.1
				c-0.3,0.3-0.7,0.6-1.1,0.7c-0.4,0.2-1,0.3-1.6,0.3c-0.3,0-0.7,0-1-0.1c-0.4,0-0.7-0.1-1-0.3l0.3-2.1c0.5,0.2,0.9,0.3,1.4,0.3
				c0.4,0,0.7,0,0.9-0.1c0.2-0.1,0.5-0.2,0.6-0.4c0.2-0.2,0.3-0.4,0.4-0.6c0.1-0.2,0.2-0.5,0.4-0.8l0.8-1.9L303.9,95.2z"/>
			<path class="st1" d="M327.4,100.3c0-0.5-0.1-1-0.2-1.4c-0.1-0.4-0.4-0.8-0.7-1.1c-0.3-0.3-0.7-0.6-1.1-0.7
				c-0.4-0.2-1-0.3-1.5-0.3c-0.6,0-1.1,0.1-1.6,0.3c-0.5,0.2-0.9,0.5-1.2,0.8c-0.3,0.3-0.6,0.7-0.8,1.1c-0.2,0.4-0.3,0.8-0.3,1.3
				H327.4z M320,102.1c0,0.5,0.1,1,0.3,1.5c0.2,0.4,0.5,0.8,0.9,1.1c0.4,0.3,0.8,0.6,1.3,0.7c0.5,0.2,1,0.3,1.6,0.3
				c0.7,0,1.3-0.2,1.9-0.5c0.5-0.3,1-0.8,1.5-1.3l1.8,1.3c-1.3,1.7-3.1,2.5-5.4,2.5c-1,0-1.8-0.2-2.6-0.5c-0.8-0.3-1.4-0.8-2-1.4
				c-0.5-0.6-1-1.3-1.3-2c-0.3-0.8-0.4-1.6-0.4-2.5c0-0.9,0.2-1.8,0.5-2.5c0.3-0.8,0.8-1.5,1.3-2c0.6-0.6,1.2-1,2-1.4
				c0.8-0.3,1.6-0.5,2.5-0.5c1.1,0,2,0.2,2.7,0.6c0.7,0.4,1.4,0.9,1.8,1.5c0.5,0.6,0.8,1.3,1,2.1c0.2,0.8,0.3,1.5,0.3,2.3v0.8H320z"
				/>
			<path class="st1" d="M341.4,98.4c-0.4-0.4-0.9-0.8-1.4-1c-0.5-0.2-1-0.3-1.7-0.3c-0.6,0-1.2,0.1-1.7,0.3c-0.5,0.2-0.9,0.6-1.2,1
				c-0.3,0.4-0.6,0.9-0.7,1.4c-0.2,0.5-0.2,1.1-0.2,1.6c0,0.6,0.1,1.1,0.3,1.6c0.2,0.5,0.5,1,0.8,1.3c0.3,0.4,0.8,0.7,1.2,0.9
				c0.5,0.2,1,0.3,1.6,0.3c0.7,0,1.2-0.1,1.7-0.3c0.5-0.2,0.9-0.6,1.3-1l1.7,1.7c-0.6,0.7-1.3,1.2-2.1,1.4c-0.8,0.3-1.6,0.4-2.5,0.4
				c-0.9,0-1.8-0.2-2.6-0.5c-0.8-0.3-1.5-0.7-2-1.3c-0.6-0.6-1-1.2-1.3-2c-0.3-0.8-0.5-1.6-0.5-2.6c0-0.9,0.2-1.8,0.5-2.6
				c0.3-0.8,0.7-1.5,1.3-2c0.6-0.6,1.2-1,2-1.3c0.8-0.3,1.7-0.5,2.6-0.5c0.9,0,1.8,0.2,2.6,0.5c0.8,0.3,1.5,0.8,2.1,1.5L341.4,98.4z
				"/>
			<path class="st1" d="M351.6,97.2h-3.3v5.6c0,0.3,0,0.7,0,1c0,0.3,0.1,0.6,0.2,0.9c0.1,0.3,0.3,0.5,0.5,0.6c0.2,0.2,0.6,0.2,1,0.2
				c0.3,0,0.6,0,0.9-0.1c0.3-0.1,0.6-0.1,0.8-0.3v2.1c-0.3,0.2-0.6,0.3-1.1,0.3c-0.4,0.1-0.8,0.1-1,0.1c-0.9,0-1.6-0.1-2.1-0.4
				s-0.9-0.6-1.1-1c-0.2-0.4-0.4-0.8-0.4-1.3c0-0.5-0.1-1-0.1-1.5v-6.4h-2.7v-2h2.7v-3.4h2.3v3.4h3.3V97.2z"/>
			<path class="st1" d="M356.5,101.3c0,0.6,0.1,1.2,0.3,1.7c0.2,0.5,0.5,1,0.8,1.3c0.3,0.4,0.8,0.7,1.3,0.9s1.1,0.3,1.7,0.3
				c0.6,0,1.2-0.1,1.7-0.3c0.5-0.2,0.9-0.5,1.3-0.9c0.3-0.4,0.6-0.8,0.8-1.3c0.2-0.5,0.3-1.1,0.3-1.7c0-0.6-0.1-1.2-0.3-1.7
				c-0.2-0.5-0.5-1-0.8-1.3c-0.3-0.4-0.8-0.7-1.3-0.9c-0.5-0.2-1.1-0.3-1.7-0.3c-0.6,0-1.2,0.1-1.7,0.3s-0.9,0.5-1.3,0.9
				c-0.3,0.4-0.6,0.8-0.8,1.3C356.6,100.1,356.5,100.7,356.5,101.3 M354,101.3c0-0.9,0.2-1.7,0.5-2.5c0.3-0.8,0.8-1.5,1.4-2
				c0.6-0.6,1.3-1,2.1-1.4c0.8-0.3,1.6-0.5,2.6-0.5c0.9,0,1.8,0.2,2.6,0.5c0.8,0.3,1.5,0.8,2.1,1.4c0.6,0.6,1,1.3,1.4,2
				c0.3,0.8,0.5,1.6,0.5,2.5s-0.2,1.7-0.5,2.5s-0.8,1.5-1.4,2c-0.6,0.6-1.3,1-2.1,1.4c-0.8,0.3-1.6,0.5-2.6,0.5
				c-0.9,0-1.8-0.2-2.6-0.5c-0.8-0.3-1.5-0.8-2.1-1.4c-0.6-0.6-1-1.3-1.4-2S354,102.2,354,101.3"/>
			<path class="st1" d="M376.5,98.2c-0.3-0.3-0.6-0.6-1-0.9c-0.4-0.2-0.9-0.3-1.5-0.3c-0.6,0-1,0.1-1.4,0.3c-0.4,0.2-0.6,0.6-0.6,1
				c0,0.4,0.1,0.7,0.3,0.9c0.2,0.2,0.5,0.4,0.8,0.5c0.3,0.1,0.7,0.2,1,0.3c0.4,0.1,0.7,0.1,0.9,0.2c0.5,0.1,1,0.3,1.4,0.4
				s0.8,0.4,1.1,0.7c0.3,0.3,0.6,0.6,0.7,1c0.2,0.4,0.3,0.9,0.3,1.4c0,0.7-0.1,1.3-0.4,1.8c-0.3,0.5-0.7,0.9-1.1,1.2
				c-0.5,0.3-1,0.5-1.6,0.7c-0.6,0.1-1.2,0.2-1.8,0.2c-1,0-1.9-0.2-2.7-0.5c-0.8-0.3-1.5-0.9-2.1-1.7l1.8-1.4c0.4,0.4,0.8,0.7,1.3,1
				c0.5,0.3,1,0.4,1.7,0.4c0.3,0,0.6,0,0.9-0.1c0.3-0.1,0.6-0.2,0.8-0.3c0.2-0.1,0.4-0.3,0.6-0.5c0.1-0.2,0.2-0.4,0.2-0.7
				c0-0.3-0.1-0.6-0.3-0.9c-0.2-0.2-0.5-0.4-0.8-0.5c-0.3-0.1-0.6-0.2-1-0.3c-0.3-0.1-0.6-0.1-0.9-0.2c-0.5-0.1-1-0.3-1.4-0.4
				c-0.4-0.2-0.8-0.4-1.2-0.6c-0.3-0.3-0.6-0.6-0.8-1c-0.2-0.4-0.3-0.9-0.3-1.5c0-0.6,0.1-1.2,0.4-1.7c0.3-0.5,0.6-0.9,1.1-1.2
				c0.4-0.3,0.9-0.5,1.5-0.7c0.6-0.2,1.1-0.2,1.7-0.2c0.8,0,1.6,0.2,2.4,0.5c0.8,0.3,1.4,0.8,1.8,1.5L376.5,98.2z"/>
		</g>
	</g>
</g>
</svg>
