<?xml version="1.0" encoding="utf-8"?>
<!-- Generator: Adobe Illustrator 24.2.1, SVG Export Plug-In . SVG Version: 6.00 Build 0)  -->
<svg version="1.1" id="Calque_1" xmlns="http://www.w3.org/2000/svg" xmlns:xlink="http://www.w3.org/1999/xlink" x="0px" y="0px"
	 viewBox="0 0 61.7 29.5" style="enable-background:new 0 0 61.7 29.5;" xml:space="preserve">
<style type="text/css">
	.st0{fill:#0033A0;}
</style>
<g id="a58JXR_2_">
	<g>
		<g>
			<path class="st0" d="M18.5,28.9c-4.9,0-9.8,0-14.8,0c-0.1,0-0.2-0.1-0.3-0.1c-1.9-0.4-2.9-1.7-2.9-3.6c0-2.9,0-5.7,0-8.6
				c0-1.9,1.3-3.4,2.9-3.6c0.6-0.1,0.7-0.3,0.7-0.8c0-1.7,0-3.5,0-5.2c0.1-4.2,4.4-7.3,8.4-6.4c3.2,0.7,5.6,3.6,5.5,7
				c0,1.6,0,3.2,0,4.7c0,0.4,0.1,0.6,0.6,0.6c1.4,0.1,2.6,1.2,2.9,2.5c0.1,0.2,0.1,0.5,0.2,0.7c0,3.1,0,6.1,0,9.2
				c-0.1,0.2-0.1,0.3-0.2,0.5c-0.3,1.4-1.1,2.3-2.4,2.7C19,28.8,18.8,28.8,18.5,28.9z M11.2,13c1,0,2.1,0,3.1,0
				c0.4,0,0.6-0.1,0.6-0.5c0-1.7,0-3.3,0-5c-0.1-2-1.7-3.5-3.6-3.5C9.2,4,7.6,5.5,7.5,7.5c0,1.6,0,3.2,0,4.9c0,0.5,0.1,0.6,0.6,0.6
				C9.1,13,10.1,13,11.2,13z M10.2,23.1c0,0.4,0,0.8,0,1.2c0,0.7,0.4,1.1,1,1.1c0.5,0,0.9-0.4,0.9-1.1c0-0.7,0-1.4,0-2.1
				c0-0.3,0.2-0.7,0.4-0.9c0.7-0.8,0.6-1.8-0.1-2.5c-0.7-0.7-1.8-0.7-2.5,0c-0.7,0.7-0.8,1.8-0.1,2.5c0.2,0.2,0.3,0.6,0.4,0.9
				C10.2,22.4,10.2,22.8,10.2,23.1z"/>
		</g>
	</g>
</g>
<g id="pm3AS6_2_">
	<g>
		<g>
			<path class="st0" d="M48.1,0.7C48.1,0.7,48.1,0.7,48.1,0.7c0.2,0.1,0.3,0.1,0.4,0.2c4,1.9,8.2,3.1,12.6,3.6c0,1.8,0,3.7,0,5.5
				c0,0.1-0.1,0.3-0.1,0.4c-0.1,1.2-0.2,2.4-0.3,3.6c-0.4,2.9-1.5,5.5-3.2,7.8c-2,2.7-4.7,4.7-7.6,6.4c-0.6,0.3-1.1,0.6-1.7,0.9
				c0,0-0.1,0-0.1,0c-0.5-0.3-0.9-0.5-1.4-0.8c-2.7-1.5-5.2-3.3-7.2-5.8c-2.7-3.2-3.9-7-4.1-11.1c-0.1-2.2-0.1-4.4-0.1-6.7
				c0-0.3,0-0.4,0.3-0.4c3.4-0.4,6.7-1.2,9.9-2.6C46.3,1.5,47.2,1.1,48.1,0.7z M59.4,8.6c0-0.7,0-1.4,0-2.2c0-0.4-0.1-0.6-0.5-0.6
				c-0.2,0-0.4-0.1-0.5-0.1c-3.5-0.6-6.8-1.7-10-3.1c-0.2-0.1-0.4-0.1-0.6,0c-1.3,0.5-2.6,1.1-3.9,1.5c-2.2,0.8-4.4,1.3-6.7,1.6
				c-0.2,0-0.3,0.1-0.3,0.3c0,2.5-0.1,4.9,0.3,7.4c0.4,2.8,1.5,5.3,3.2,7.6c2,2.6,4.7,4.5,7.5,6c0.1,0.1,0.4,0,0.5,0
				c1.7-0.9,3.4-2,4.9-3.3c2.8-2.4,4.7-5.3,5.5-8.8C59.3,12.9,59.4,10.7,59.4,8.6z"/>
			<path class="st0" d="M57.8,8.9c0,2.3-0.1,4.7-0.8,6.9c-0.9,2.9-2.5,5.3-4.9,7.2c-1.2,0.9-2.5,1.7-3.8,2.5c-0.1,0.1-0.3,0.1-0.4,0
				c-2.7-1.5-5.1-3.2-6.8-5.8c-1.3-1.9-2.1-3.9-2.4-6.2c-0.3-2-0.3-4.1-0.3-6.1c0-0.3,0.2-0.3,0.3-0.4c1.7-0.4,3.5-0.8,5.2-1.3
				c1.3-0.4,2.6-1,3.9-1.5c0.2-0.1,0.4-0.1,0.5,0c2.9,1.3,6,2.2,9.1,2.8c0.2,0,0.4,0.1,0.4,0.4C57.8,8,57.8,8.4,57.8,8.9z M53.4,9.2
				c-2.4,2.4-4.8,4.9-7.4,7.4c-0.8-0.8-1.6-1.7-2.4-2.4c-0.6,0.6-1.2,1.2-1.8,1.7c1.4,1.5,2.9,2.9,4.3,4.3c3-3,6-6.1,9.1-9.1
				C54.7,10.5,54.1,9.9,53.4,9.2z"/>
		</g>
	</g>
</g>
</svg>
