<?xml version="1.0" encoding="utf-8"?>
<!-- Generator: Adobe Illustrator 26.3.1, SVG Export Plug-In . SVG Version: 6.00 Build 0)  -->
<svg version="1.1" id="Calque_1" xmlns="http://www.w3.org/2000/svg" xmlns:xlink="http://www.w3.org/1999/xlink" x="0px" y="0px"
	 viewBox="0 0 512 512" style="enable-background:new 0 0 512 512;" xml:space="preserve">
<path d="M457.7,82.8L269.4,2.9C265.2,1,260.7,0,256,0c-4.6,0-9.2,1-13.3,2.9L54.3,82.8c-22,9.3-38.4,31-39.2,56.3
	c1.4,100.1,42.2,281.6,214.5,364.1c16.7,7.9,36.1,7.9,52.8,0c172.3-82.5,213.1-264,213.6-364.1C496.2,113.8,479.7,92.1,457.7,82.8z
	 M439.3,138.8c-0.1,26-4,94.1-37.1,165c-31.5,67.6-80,117.4-144.1,148.2c-0.7,0.3-1.4,0.5-2.1,0.5c-0.7,0-1.4-0.2-2.1-0.5
	c-64.1-30.7-112.7-80.6-144.3-148.3c-32.2-68.9-37.2-135.9-37.8-163.4c0.4-2.2,2.6-4.4,4.6-5.3L256,58.8L435.6,135
	c2.3,1,3.8,3,3.7,3.7C439.3,138.7,439.3,138.8,439.3,138.8z"/>
</svg>
