<?xml version="1.0" encoding="utf-8"?>
<!-- Generator: Adobe Illustrator 26.3.1, SVG Export Plug-In . SVG Version: 6.00 Build 0)  -->
<svg version="1.1" id="Calque_1" xmlns="http://www.w3.org/2000/svg" xmlns:xlink="http://www.w3.org/1999/xlink" x="0px" y="0px"
	 viewBox="0 0 480.9 509.1" style="enable-background:new 0 0 480.9 509.1;" xml:space="preserve">
<style type="text/css">
	.st0{fill:#FFFFFF;}
</style>
<path class="st0" d="M442.6,82.8L254.3,2.9C250.1,1,245.6,0,240.9,0c-4.6,0-9.2,1-13.3,2.9L39.2,82.8c-22,9.3-38.4,31-39.2,56.3
	c1.4,100.1,42.2,281.6,214.5,364.1c16.7,7.9,36.1,7.9,52.8,0c172.3-82.5,213.1-264,213.6-364.1C481.1,113.8,464.6,92.1,442.6,82.8z
	 M424.2,138.8c-0.1,26-4,94.1-37.1,165c-31.5,67.6-80,117.4-144.1,148.2c-0.7,0.3-1.4,0.5-2.1,0.5c-0.7,0-1.4-0.2-2.1-0.5
	c-64.1-30.7-112.7-80.6-144.3-148.3c-32.2-68.9-37.2-135.9-37.8-163.4c0.4-2.2,2.6-4.4,4.6-5.3l179.6-76.1L420.5,135
	c2.3,1,3.8,3,3.7,3.7C424.2,138.7,424.2,138.8,424.2,138.8z"/>
<path class="st0" d="M177.5,186.3v-21c0-34.8,28.2-63,63-63s63,28.2,63,63v21h7c15.4,0,28,12.6,28,28v84c0,15.4-12.6,28-28,28h-140
	c-15.5,0-28-12.6-28-28v-84c0-15.4,12.5-28,28-28H177.5z M205.5,186.3h70v-21c0-19.3-15.7-35-35-35s-35,15.7-35,35V186.3z"/>
</svg>
