<?xml version="1.0" encoding="utf-8"?>
<!-- Generator: Adobe Illustrator 26.3.1, SVG Export Plug-In . SVG Version: 6.00 Build 0)  -->
<svg version="1.1" id="Calque_1" xmlns="http://www.w3.org/2000/svg" xmlns:xlink="http://www.w3.org/1999/xlink" x="0px" y="0px"
	 viewBox="0 0 320 320" style="enable-background:new 0 0 320 320;" xml:space="preserve">
<style type="text/css">
	.st0{fill:#DF003C;}
</style>
<path class="st0" d="M310.6,265.4c12.5,12.5,12.5,32.8,0,45.2c-6.2,6.2-14.4,9.4-22.6,9.4s-16.4-3.1-22.6-9.4L160,205.3L54.6,310.6
	c-6.2,6.3-14.4,9.4-22.6,9.4s-16.4-3.1-22.6-9.4c-12.5-12.5-12.5-32.8,0-45.2L114.8,160L9.4,54.6C-3.1,42.1-3.1,21.9,9.4,9.4
	s32.8-12.5,45.2,0L160,114.8L265.4,9.4c12.5-12.5,32.8-12.5,45.2,0s12.5,32.7,0,45.2L205.2,160.1L310.6,265.4z"/>
</svg>
