<?xml version="1.0" encoding="utf-8"?>
<!-- Generator: Adobe Illustrator 24.2.1, SVG Export Plug-In . SVG Version: 6.00 Build 0)  -->
<svg version="1.1" id="Calque_1" xmlns="http://www.w3.org/2000/svg" xmlns:xlink="http://www.w3.org/1999/xlink" x="0px" y="0px"
	 viewBox="0 0 50 50" style="enable-background:new 0 0 50 50;" xml:space="preserve">
<style type="text/css">
	.st0{fill-rule:evenodd;clip-rule:evenodd;fill:#0033A0;}
</style>
<g id="Page-1">
	<g id="Facebook">
		<path id="Oval-1" class="st0" d="M25,50c13.8,0,25-11.2,25-25S38.8,0,25,0S0,11.2,0,25S11.2,50,25,50z M25,47c12.2,0,22-9.8,22-22
			S37.2,3,25,3S3,12.8,3,25S12.8,47,25,47z M26.8,36V25h3.3l0.4-3.8h-3.7l0-1.9c0-1,0.1-1.5,1.6-1.5h2V14h-3.3
			c-3.9,0-5.3,1.8-5.3,4.9v2.3h-2.4V25h2.4v11H26.8z"/>
	</g>
</g>
</svg>
