<?xml version="1.0" encoding="utf-8"?>
<!-- Generator: Adobe Illustrator 24.2.1, SVG Export Plug-In . SVG Version: 6.00 Build 0)  -->
<svg version="1.1" id="Calque_1" xmlns="http://www.w3.org/2000/svg" xmlns:xlink="http://www.w3.org/1999/xlink" x="0px" y="0px"
	 viewBox="0 0 50 50" style="enable-background:new 0 0 50 50;" xml:space="preserve">
<style type="text/css">
	.st0{fill-rule:evenodd;clip-rule:evenodd;fill:#0033A0;}
	.st1{fill:#0033A0;}
</style>
<g id="Page-1">
	<g id="LinkedIn">
		<path id="Oval-1" class="st0" d="M25,50c13.8,0,25-11.2,25-25S38.8,0,25,0S0,11.2,0,25S11.2,50,25,50z M25,47c12.2,0,22-9.8,22-22
			S37.2,3,25,3S3,12.8,3,25S12.8,47,25,47z"/>
		<path class="st1" d="M39.2,17c-1,0.5-2.2,0.8-3.3,0.9c1.2-0.7,2.1-1.9,2.6-3.2c-1.1,0.7-2.4,1.1-3.7,1.4c-1.1-1.1-2.6-1.8-4.2-1.8
			c-3.2,0-5.8,2.6-5.8,5.8c0,0.5,0.1,0.9,0.2,1.3c-4.8-0.2-9.1-2.6-12-6.1c-0.5,0.9-0.8,1.9-0.8,2.9c0,2,1,3.8,2.6,4.8
			c-1,0-1.8-0.3-2.6-0.7c0,0,0,0,0,0.1c0,2.8,2,5.2,4.7,5.7c-0.5,0.1-1,0.2-1.5,0.2c-0.4,0-0.7,0-1.1-0.1c0.7,2.3,2.9,4,5.4,4
			c-2,1.6-4.5,2.5-7.2,2.5c-0.5,0-0.9,0-1.4-0.1c2.6,1.6,5.6,2.6,8.9,2.6c10.7,0,16.5-8.8,16.5-16.5c0-0.3,0-0.5,0-0.8
			C37.4,19.1,38.4,18.1,39.2,17z"/>
	</g>
</g>
</svg>
