<?xml version="1.0" encoding="utf-8"?>
<!-- Generator: Adobe Illustrator 24.0.2, SVG Export Plug-In . SVG Version: 6.00 Build 0)  -->
<svg version="1.1" id="Layer_1" xmlns="http://www.w3.org/2000/svg" xmlns:xlink="http://www.w3.org/1999/xlink" x="0px" y="0px"
	 viewBox="0 0 100 100" style="enable-background:new 0 0 100 100;" xml:space="preserve">
<style type="text/css">
	.st0{fill:#BEBEBE;}
</style>
<g id="XMUzaD_1_">
	<g>
		<g>
			<path class="st0" d="M47.6,99.6c-8.3,0-18.4-0.5-28.3-2.9c-3.2-0.8-6.3-1.9-9.2-3.3c-5.3-2.6-6.8-6.8-5-12.4
				c1.3-4.2,3.1-8.1,5.9-11.6c2.6-3.2,5.8-5.3,9.9-6c1.3-0.2,2.1-0.9,2.6-2c1.5-2.9,2.1-6.1,2-9.2c-0.2-6.1-1-12.2-1.2-18.4
				c-0.3-9.2,0.9-18.2,6.8-25.8c3.8-4.9,9-7.4,15.1-7.6c3.7-0.1,7.4-0.1,11,0.6c6.6,1.3,11.2,5.4,14,11.4C74.9,19.9,76,28,75,36.4
				c-0.9,7.1-1.6,14.2-0.2,21.3c0.2,1,0.6,2,0.9,2.9c0.6,1.6,1.6,2.6,3.4,2.9c5.5,1,9.2,4.6,11.8,9.3c1.6,3,2.9,6.3,3.9,9.6
				c1.2,3.9-0.2,7.6-3.6,10C87.6,94.9,83.3,96,79,97C69.3,99.1,59.4,99.6,47.6,99.6z M30.9,31.7c-1.1-0.2-1.5,0.8-1.6,1.9
				c-0.3,2.1,0.1,4.2,1,6.1c0.3,0.6,0.9,1.4,1.3,1.4c1.3,0,1.3,0.9,1.6,1.7c2.1,5.2,5,9.9,9.8,13.1c4.1,2.8,8.5,3.1,12.9,0.5
				c5.3-3,8.3-7.9,10.6-13.3c0.4-0.9,0.5-2,1.9-2c0.3,0,0.7-0.6,0.9-0.9c1.3-2.2,1.6-4.5,1.2-7c-0.1-0.5-0.5-1-0.9-1.6
				c-0.4,0.3-0.6,0.5-0.8,0.7c-1,1.4-2,1.3-3.5,0.5c-7.6-4-15.3-8-23.1-11.9c-1-0.5-2.4-0.5-3.5-0.4c-2.2,0.3-3.8,1.6-4.8,3.5
				C32.8,26.5,32,29,30.9,31.7z M62.1,56.7c-8.2,7.5-16.4,7.5-24.3,0.2c-0.7,1.1-1.2,2.2-1.9,3c-0.8,0.8-1.9,1.4-3,2.2
				c0.6,0.9,1.1,1.8,1.9,2.5c8.6,7.9,21.2,8.1,29.9,0.1c0.8-0.7,1.4-1.8,2.2-2.9C64.3,60.8,62.6,59.4,62.1,56.7z"/>
		</g>
	</g>
</g>
</svg>
