<?xml version="1.0" encoding="utf-8"?>
<!-- Generator: Adobe Illustrator 24.0.2, SVG Export Plug-In . SVG Version: 6.00 Build 0)  -->
<svg version="1.1" id="Calque_1" xmlns="http://www.w3.org/2000/svg" xmlns:xlink="http://www.w3.org/1999/xlink" x="0px" y="0px"
	 viewBox="0 0 502.8 391.5" style="enable-background:new 0 0 502.8 391.5;" xml:space="preserve">
<style type="text/css">
	.st0{fill:#FFFFFF;}
</style>
<path class="st0" d="M188.6,320.2c0,0-0.1,0-0.1,0c-16.8,0-27.3-10.6-30.8-14.2c-5-5.1-22.7-22.4-39.9-39.1
	c-5.7-5.6-11.3-11-16.4-16c-13.2-12.9-13.3-34.1-0.1-47.1l0,0c12.8-12.6,33.3-12.7,46.2-0.1c5.2,5.1,10.8,10.5,16.4,16
	c9,8.8,17.8,17.3,25,24.4C242.5,192.5,303,132.6,354.7,81c12.9-12.9,33.7-12.8,46.6,0.1l0,0c12.9,12.9,12.9,33.8-0.1,46.7
	C343.9,184.8,276,252,218.4,307C215.2,310.3,204.8,320.2,188.6,320.2z"/>
</svg>
