<?xml version="1.0" encoding="utf-8"?>
<!-- Generator: Adobe Illustrator 24.0.2, SVG Export Plug-In . SVG Version: 6.00 Build 0)  -->
<svg version="1.1" id="Calque_1" xmlns="http://www.w3.org/2000/svg" xmlns:xlink="http://www.w3.org/1999/xlink" x="0px" y="0px"
	 viewBox="0 0 113 113" style="enable-background:new 0 0 113 113;" xml:space="preserve">
<style type="text/css">
	.st0{fill:#FF2146;}
</style>
<path class="st0" d="M53.1,75.7L53.1,75.7c-4.1,0-6.5-2.5-7.3-3.4c-1.2-1.2-5.4-5.3-9.5-9.2c-1.4-1.4-2.7-2.5-3.9-3.7
	c-3.1-3.1-3.1-8,0-11.2l0,0c3.1-3.1,7.8-3.1,10.9,0c1.2,1.2,2.5,2.5,3.9,3.7c2.2,2,4.2,4.1,5.9,5.8c12.7-12.2,27-26.3,39.2-38.6
	c3.1-3.1,8-3.1,11,0l0,0c3.1,3.1,3.1,8,0,11C89.8,43.7,73.9,59.5,60.3,72.6C59.4,73.3,57,75.7,53.1,75.7z"/>
<g>
	<g>
		<path class="st0" d="M56.5,112.9c-31.1,0-56.4-25.3-56.4-56.4S25.4,0.1,56.5,0.1c3.9,0,7,3.1,7,7s-3.1,7-7,7
			c-23.4,0-42.4,19-42.4,42.4s19,42.4,42.4,42.4s42.4-19,42.4-42.4c0-3.9,3.1-7,7-7s7,3.1,7,7C112.9,87.6,87.6,112.9,56.5,112.9z"/>
	</g>
</g>
</svg>
